<svg xmlns="http://www.w3.org/2000/svg" width="375" height="375"><defs><clipPath id="a"><path d="M0 0h375v375H0Z" clip-rule="evenodd"/></clipPath><clipPath id="b"><path d="M0 .96h373.92v374.16H0Z" clip-rule="evenodd"/></clipPath><clipPath id="c"><path d="m41.446 4.08 329.475 38.525-38.526 329.474L2.921 333.554z"/></clipPath><clipPath id="d"><path d="M213.804 28.543a15.73 15.73 0 0 0 17.269 3.878l.032-.013a12.635 12.635 0 0 1 15.466 5.222 15.7 15.7 0 0 0 16.065 7.368l.074-.013a12.605 12.605 0 0 1 14.02 8.309 15.65 15.65 0 0 0 14.163 10.525l.103.005a12.57 12.57 0 0 1 11.97 11.024 15.61 15.61 0 0 0 11.65 13.22l.108.027a12.54 12.54 0 0 1 9.405 13.255 15.57 15.57 0 0 0 8.637 15.339l.092.045a12.51 12.51 0 0 1 6.437 14.91 15.54 15.54 0 0 0 5.254 16.792l.059.046a12.5 12.5 0 0 1 3.194 15.921 15.53 15.53 0 0 0 1.642 17.521l.022.027a12.5 12.5 0 0 1-.188 16.247 15.54 15.54 0 0 0-2.046 17.493 12.5 12.5 0 0 1-3.565 15.852l-.027.02a15.53 15.53 0 0 0-5.64 16.67 12.5 12.5 0 0 1-6.782 14.755l-.068.032a15.54 15.54 0 0 0-8.985 15.127 12.51 12.51 0 0 1-9.704 13.022l-.1.023a15.57 15.57 0 0 0-11.943 12.932 12.54 12.54 0 0 1-12.209 10.727l-.112.002a15.61 15.61 0 0 0-14.385 10.176 12.57 12.57 0 0 1-14.19 7.965l-.101-.02a15.65 15.65 0 0 0-16.209 6.975 12.605 12.605 0 0 1-15.56 4.85l-.069-.03a15.7 15.7 0 0 0-17.331 3.462 12.635 12.635 0 0 1-16.254 1.514l-.028-.02a15.73 15.73 0 0 0-17.698-.21 12.655 12.655 0 0 1-16.235-1.899 15.73 15.73 0 0 0-17.269-3.878l-.032.013a12.635 12.635 0 0 1-15.466-5.223 15.7 15.7 0 0 0-16.064-7.367l-.075.013a12.605 12.605 0 0 1-14.02-8.309 15.65 15.65 0 0 0-14.163-10.526l-.103-.004a12.57 12.57 0 0 1-11.97-11.024 15.61 15.61 0 0 0-11.65-13.22l-.108-.028a12.54 12.54 0 0 1-9.404-13.255 15.57 15.57 0 0 0-8.638-15.338l-.092-.045a12.514 12.514 0 0 1-6.437-14.91 15.54 15.54 0 0 0-5.253-16.792l-.06-.047a12.5 12.5 0 0 1-3.194-15.92 15.53 15.53 0 0 0-1.642-17.522l-.022-.026a12.5 12.5 0 0 1 .189-16.247 15.54 15.54 0 0 0 2.045-17.493 12.5 12.5 0 0 1 3.565-15.852l.028-.021a15.53 15.53 0 0 0 5.64-16.67 12.5 12.5 0 0 1 6.78-14.754l.07-.032a15.54 15.54 0 0 0 8.985-15.127A12.51 12.51 0 0 1 61.38 84.99l.1-.023a15.57 15.57 0 0 0 11.943-12.932 12.54 12.54 0 0 1 12.209-10.728l.112-.001A15.61 15.61 0 0 0 100.13 51.13a12.57 12.57 0 0 1 14.19-7.965l.1.02a15.65 15.65 0 0 0 16.21-6.975 12.605 12.605 0 0 1 15.559-4.85l.07.03a15.7 15.7 0 0 0 17.33-3.463 12.635 12.635 0 0 1 16.254-1.513l.028.02a15.73 15.73 0 0 0 17.698.21 12.656 12.656 0 0 1 16.235 1.899"/></clipPath><clipPath id="e"><path d="M20.4 22.8h333.12v330.48H20.4Z"/></clipPath><clipPath id="f"><path d="M24.74 25.898h324.362V350.26H24.74Z"/></clipPath><clipPath id="g"><path d="M194.912 30.083a15.38 15.38 0 0 0 17.212 1.806l.03-.016a12.355 12.355 0 0 1 15.614 3.315 15.35 15.35 0 0 0 16.439 5.331l.07-.02a12.325 12.325 0 0 1 14.561 6.476 15.31 15.31 0 0 0 14.95 8.615l.1-.008a12.29 12.29 0 0 1 12.877 9.348 15.26 15.26 0 0 0 12.816 11.516l.109.014a12.26 12.26 0 0 1 10.639 11.806 15.22 15.22 0 0 0 10.13 13.915l.095.034a12.236 12.236 0 0 1 7.945 13.75 15.2 15.2 0 0 0 7.009 15.711l.062.039a12.22 12.22 0 0 1 4.91 15.1 15.18 15.18 0 0 0 3.585 16.83l.025.023a12.22 12.22 0 0 1 1.662 15.8 15.19 15.19 0 0 0 0 17.222 12.22 12.22 0 0 1-1.662 15.8l-.025.024a15.18 15.18 0 0 0-3.584 16.83c2.3 5.556.218 11.96-4.91 15.1l-.063.038a15.2 15.2 0 0 0-7.01 15.712 12.236 12.236 0 0 1-7.944 13.75l-.095.033a15.22 15.22 0 0 0-10.13 13.916 12.26 12.26 0 0 1-10.64 11.805l-.108.015a15.26 15.26 0 0 0-12.816 11.516 12.29 12.29 0 0 1-12.877 9.347l-.1-.007a15.31 15.31 0 0 0-14.95 8.614 12.325 12.325 0 0 1-14.56 6.477l-.071-.02a15.35 15.35 0 0 0-16.44 5.33 12.355 12.355 0 0 1-15.613 3.316l-.03-.016a15.38 15.38 0 0 0-17.212 1.805 12.375 12.375 0 0 1-15.983 0 15.38 15.38 0 0 0-17.212-1.805l-.03.016a12.355 12.355 0 0 1-15.613-3.316 15.35 15.35 0 0 0-16.44-5.33l-.07.02a12.325 12.325 0 0 1-14.56-6.477 15.31 15.31 0 0 0-14.95-8.614l-.1.007a12.29 12.29 0 0 1-12.878-9.347 15.26 15.26 0 0 0-12.816-11.516l-.108-.015a12.26 12.26 0 0 1-10.64-11.805 15.22 15.22 0 0 0-10.13-13.916l-.094-.033a12.236 12.236 0 0 1-7.945-13.75 15.195 15.195 0 0 0-7.01-15.712l-.062-.038a12.22 12.22 0 0 1-4.91-15.1 15.18 15.18 0 0 0-3.585-16.83l-.024-.024a12.22 12.22 0 0 1-1.662-15.8 15.19 15.19 0 0 0 0-17.222 12.22 12.22 0 0 1 1.662-15.8l.024-.023a15.18 15.18 0 0 0 3.584-16.83 12.22 12.22 0 0 1 4.91-15.1l.064-.039a15.195 15.195 0 0 0 7.009-15.712 12.236 12.236 0 0 1 7.945-13.75l.094-.033a15.22 15.22 0 0 0 10.13-13.915 12.26 12.26 0 0 1 10.64-11.806l.108-.014A15.26 15.26 0 0 0 87.076 64.93a12.29 12.29 0 0 1 12.877-9.348l.1.008a15.31 15.31 0 0 0 14.95-8.615 12.325 12.325 0 0 1 14.561-6.477l.07.021a15.35 15.35 0 0 0 16.44-5.33 12.355 12.355 0 0 1 15.613-3.316l.03.016a15.38 15.38 0 0 0 17.212-1.806 12.375 12.375 0 0 1 15.983 0"/></clipPath><clipPath id="h"><path d="M24.72 26.16H349.2v324H24.72Z"/></clipPath><clipPath id="i"><path d="M22.165 23.324h329.162v329.162H22.165Z"/></clipPath><clipPath id="j"><path d="M22.165 23.324h329.509v329.508H22.165Z"/></clipPath><clipPath id="k"><path d="M194.911 30.083a15.38 15.38 0 0 0 17.212 1.806l.03-.016a12.355 12.355 0 0 1 15.613 3.315 15.35 15.35 0 0 0 16.439 5.33l.07-.02a12.325 12.325 0 0 1 14.561 6.477 15.31 15.31 0 0 0 14.95 8.615l.1-.008a12.29 12.29 0 0 1 12.877 9.347 15.26 15.26 0 0 0 12.816 11.517l.108.014a12.26 12.26 0 0 1 10.64 11.805 15.22 15.22 0 0 0 10.13 13.916l.094.033a12.236 12.236 0 0 1 7.945 13.75 15.195 15.195 0 0 0 7.01 15.711l.062.039a12.22 12.22 0 0 1 4.91 15.1 15.18 15.18 0 0 0 3.585 16.83l.024.023a12.22 12.22 0 0 1 1.662 15.8 15.19 15.19 0 0 0 0 17.222 12.22 12.22 0 0 1-1.662 15.8l-.024.023a15.18 15.18 0 0 0-3.585 16.83c2.3 5.556.218 11.96-4.91 15.1l-.063.038a15.195 15.195 0 0 0-7.009 15.712 12.236 12.236 0 0 1-7.945 13.75l-.094.033a15.22 15.22 0 0 0-10.13 13.916 12.26 12.26 0 0 1-10.64 11.805l-.108.014a15.26 15.26 0 0 0-12.816 11.517 12.29 12.29 0 0 1-12.877 9.347l-.1-.008a15.31 15.31 0 0 0-14.95 8.615 12.325 12.325 0 0 1-14.56 6.477l-.071-.02a15.35 15.35 0 0 0-16.439 5.33 12.355 12.355 0 0 1-15.613 3.315l-.03-.016a15.38 15.38 0 0 0-17.212 1.806 12.375 12.375 0 0 1-15.983 0 15.38 15.38 0 0 0-17.212-1.806l-.03.016a12.355 12.355 0 0 1-15.613-3.316 15.35 15.35 0 0 0-16.439-5.33l-.07.02a12.325 12.325 0 0 1-14.561-6.476 15.31 15.31 0 0 0-14.95-8.615l-.1.008a12.29 12.29 0 0 1-12.877-9.347A15.26 15.26 0 0 0 74.26 299.71l-.109-.014a12.26 12.26 0 0 1-10.639-11.805 15.22 15.22 0 0 0-10.13-13.916l-.094-.033a12.236 12.236 0 0 1-7.945-13.75 15.195 15.195 0 0 0-7.01-15.711l-.062-.039a12.22 12.22 0 0 1-4.91-15.1 15.18 15.18 0 0 0-3.585-16.83l-.024-.023a12.22 12.22 0 0 1-1.663-15.8 15.19 15.19 0 0 0 0-17.222 12.22 12.22 0 0 1 1.663-15.8l.024-.023a15.18 15.18 0 0 0 3.584-16.83 12.22 12.22 0 0 1 4.91-15.1l.064-.039a15.195 15.195 0 0 0 7.009-15.712 12.236 12.236 0 0 1 7.945-13.749l.094-.033a15.22 15.22 0 0 0 10.13-13.916 12.26 12.26 0 0 1 10.64-11.805l.108-.014a15.26 15.26 0 0 0 12.816-11.517 12.29 12.29 0 0 1 12.877-9.347l.1.008a15.31 15.31 0 0 0 14.95-8.615 12.325 12.325 0 0 1 14.56-6.477l.071.02a15.35 15.35 0 0 0 16.439-5.33 12.355 12.355 0 0 1 15.613-3.315l.03.016a15.38 15.38 0 0 0 17.212-1.806 12.375 12.375 0 0 1 15.983 0"/></clipPath><clipPath id="l"><path d="M9.6 10.8h354.72v354.72H9.6Z"/></clipPath><clipPath id="m"><path d="M37.66 38.819h298.521v298.52H37.661Z"/></clipPath><clipPath id="n"><path d="M186.92 38.819c-82.434 0-149.26 66.826-149.26 149.26 0 82.435 66.826 149.26 149.26 149.26 82.435 0 149.261-66.825 149.261-149.26S269.355 38.82 186.921 38.82"/></clipPath><clipPath id="o"><path d="M37.44 38.64h298.8v298.8H37.44Z"/></clipPath><clipPath id="p"><path d="M37.66 38.819h298.463v298.463H37.66Z"/></clipPath><clipPath id="q"><path d="M37.66 38.819h298.516v298.516H37.66Z"/></clipPath><clipPath id="r"><path d="M186.918 38.819c-82.433 0-149.258 66.825-149.258 149.258s66.825 149.258 149.258 149.258 149.258-66.825 149.258-149.258S269.351 38.819 186.918 38.819"/></clipPath><clipPath id="s"><path d="m37.358 46.342 291.3-7.826 7.826 291.3-291.3 7.826z"/></clipPath><clipPath id="t"><path d="M183.008 42.429c-80.44 2.16-143.899 69.123-141.738 149.563s69.123 143.899 149.564 141.738 143.898-69.123 141.737-149.564c-2.16-80.44-69.123-143.898-149.563-141.737"/></clipPath><clipPath id="u"><path d="M38.88 40.08H334.8V336H38.88Z"/></clipPath><clipPath id="v"><path d="M0 0h375v375H0Z"/></clipPath><clipPath id="w"><path d="M0 0h375v375H0Z"/></clipPath><clipPath id="x"><path d="m14.725 176.455 249.28 24.687-3.621 36.57-249.28-24.686z"/></clipPath><clipPath id="y"><path d="m14.725 176.455 249.28 24.687-3.621 36.57-249.28-24.686z"/></clipPath><clipPath id="z"><path d="M0 0h375v375H0Z"/></clipPath><clipPath id="A"><path d="M0 0h375v375H0Z"/></clipPath><clipPath id="B"><path d="m112.647 202.927 248.901-28.256 4.146 36.515-248.902 28.256z"/></clipPath><clipPath id="C"><path d="m112.647 202.927 248.901-28.256 4.146 36.515-248.902 28.256z"/></clipPath><clipPath id="D"><path d="M0 0h375v375H0Z"/></clipPath><clipPath id="E"><path d="M0 0h375v375H0Z"/></clipPath><clipPath id="F"><path d="M94.821 95.98h184.2v184.199H94.82Z"/></clipPath><clipPath id="G"><path d="M191.46 98.356a8.73 8.73 0 0 0 9.773 1.026l.017-.01a7.016 7.016 0 0 1 8.867 1.884 8.72 8.72 0 0 0 9.335 3.027l.04-.012a7 7 0 0 1 8.27 3.678 8.69 8.69 0 0 0 8.489 4.892l.057-.004a6.98 6.98 0 0 1 7.312 5.308 8.67 8.67 0 0 0 7.278 6.54l.062.008a6.96 6.96 0 0 1 6.042 6.704 8.645 8.645 0 0 0 5.753 7.902l.053.02a6.95 6.95 0 0 1 4.512 7.808 8.63 8.63 0 0 0 3.98 8.922l.036.022a6.94 6.94 0 0 1 2.789 8.575 8.62 8.62 0 0 0 2.035 9.557l.014.014a6.94 6.94 0 0 1 .944 8.972 8.63 8.63 0 0 0 0 9.78 6.94 6.94 0 0 1-.944 8.973l-.014.013a8.62 8.62 0 0 0-2.035 9.558 6.94 6.94 0 0 1-2.789 8.575l-.036.021a8.63 8.63 0 0 0-3.98 8.923 6.95 6.95 0 0 1-4.512 7.808l-.053.019a8.645 8.645 0 0 0-5.753 7.902 6.96 6.96 0 0 1-6.042 6.704l-.062.009a8.67 8.67 0 0 0-7.278 6.54 6.98 6.98 0 0 1-7.312 5.308l-.057-.005a8.69 8.69 0 0 0-8.49 4.892 7 7 0 0 1-8.269 3.679l-.04-.012a8.72 8.72 0 0 0-9.335 3.027 7.016 7.016 0 0 1-8.867 1.883l-.017-.01a8.73 8.73 0 0 0-9.774 1.026 7.03 7.03 0 0 1-9.077 0 8.73 8.73 0 0 0-9.774-1.025l-.017.009a7.016 7.016 0 0 1-8.866-1.883 8.72 8.72 0 0 0-9.336-3.027l-.04.012a7 7 0 0 1-8.269-3.679 8.69 8.69 0 0 0-8.49-4.892l-.056.005a6.98 6.98 0 0 1-7.313-5.309 8.67 8.67 0 0 0-7.278-6.54l-.062-.008a6.96 6.96 0 0 1-6.041-6.704 8.645 8.645 0 0 0-5.753-7.902l-.054-.02a6.95 6.95 0 0 1-4.512-7.807 8.63 8.63 0 0 0-3.98-8.923l-.036-.021a6.94 6.94 0 0 1-2.788-8.575 8.62 8.62 0 0 0-2.036-9.558l-.014-.013a6.94 6.94 0 0 1-.943-8.973 8.63 8.63 0 0 0 0-9.78 6.94 6.94 0 0 1 .943-8.972l.014-.014a8.62 8.62 0 0 0 2.036-9.557 6.94 6.94 0 0 1 2.788-8.575l.036-.022a8.63 8.63 0 0 0 3.98-8.922 6.95 6.95 0 0 1 4.512-7.809l.054-.018a8.645 8.645 0 0 0 5.753-7.903 6.96 6.96 0 0 1 6.041-6.704l.062-.008a8.67 8.67 0 0 0 7.278-6.54 6.98 6.98 0 0 1 7.313-5.308l.057.004a8.69 8.69 0 0 0 8.49-4.892 7 7 0 0 1 8.268-3.678l.04.012a8.72 8.72 0 0 0 9.336-3.027 7.016 7.016 0 0 1 8.866-1.883l.017.009a8.73 8.73 0 0 0 9.774-1.026 7.03 7.03 0 0 1 9.077 0"/></clipPath><clipPath id="H"><path d="M94.8 96h184.32v184.08H94.8Z"/></clipPath><clipPath id="I"><path d="M0 0h375v375H0Z" clip-rule="evenodd"/></clipPath><clipPath id="J"><path d="M46.32 43.2h278.16v132.24H46.32Z" clip-rule="evenodd"/></clipPath><clipPath id="K"><path d="M59.04 223.2h252.48v105.12H59.04Z" clip-rule="evenodd"/></clipPath><clipPath id="L"><path d="M40.8 185.04h51.12v29.76H40.8Z" clip-rule="evenodd"/></clipPath><clipPath id="M"><path d="M285.12 185.28h49.44v29.52h-49.44Z" clip-rule="evenodd"/></clipPath></defs><g clip-path="url(#a)"><g clip-path="url(#b)"><g clip-path="url(#c)"><g clip-path="url(#d)"><g clip-path="url(#e)"><path fill="#6b4623" d="m39.137 1.159 334.704 39.137L334.704 375 0 335.863Z"/></g></g></g><g clip-path="url(#f)"><g clip-path="url(#g)"><g clip-path="url(#h)"><path fill="#6b4623" d="M22.165 23.324h329.511v329.51H22.166Z"/></g></g></g><g clip-path="url(#i)"><g clip-path="url(#j)"><g clip-path="url(#k)"><path fill="none" stroke="#efdeb6" stroke-width="3" d="M194.911 30.083a15.38 15.38 0 0 0 17.212 1.806l.03-.016a12.355 12.355 0 0 1 15.613 3.315 15.35 15.35 0 0 0 16.439 5.33l.07-.02a12.325 12.325 0 0 1 14.561 6.477 15.31 15.31 0 0 0 14.95 8.615l.1-.008a12.29 12.29 0 0 1 12.877 9.347 15.26 15.26 0 0 0 12.816 11.517l.108.014a12.26 12.26 0 0 1 10.64 11.805 15.22 15.22 0 0 0 10.13 13.916l.094.033a12.236 12.236 0 0 1 7.945 13.75 15.195 15.195 0 0 0 7.01 15.711l.062.039a12.22 12.22 0 0 1 4.91 15.1 15.18 15.18 0 0 0 3.585 16.83l.024.023a12.22 12.22 0 0 1 1.662 15.8 15.19 15.19 0 0 0 0 17.222 12.22 12.22 0 0 1-1.662 15.8l-.024.023a15.18 15.18 0 0 0-3.585 16.83c2.3 5.556.218 11.96-4.91 15.1l-.063.038a15.195 15.195 0 0 0-7.009 15.712 12.236 12.236 0 0 1-7.945 13.75l-.094.033a15.22 15.22 0 0 0-10.13 13.916 12.26 12.26 0 0 1-10.64 11.805l-.108.014a15.26 15.26 0 0 0-12.816 11.517 12.29 12.29 0 0 1-12.877 9.347l-.1-.008a15.31 15.31 0 0 0-14.95 8.615 12.325 12.325 0 0 1-14.56 6.477l-.071-.02a15.35 15.35 0 0 0-16.439 5.33 12.355 12.355 0 0 1-15.613 3.315l-.03-.016a15.38 15.38 0 0 0-17.212 1.806 12.375 12.375 0 0 1-15.983 0 15.38 15.38 0 0 0-17.212-1.806l-.03.016a12.355 12.355 0 0 1-15.613-3.316 15.35 15.35 0 0 0-16.439-5.33l-.07.02a12.325 12.325 0 0 1-14.561-6.476 15.31 15.31 0 0 0-14.95-8.615l-.1.008a12.29 12.29 0 0 1-12.877-9.347A15.26 15.26 0 0 0 74.26 299.71l-.109-.014a12.26 12.26 0 0 1-10.639-11.805 15.22 15.22 0 0 0-10.13-13.916l-.094-.033a12.236 12.236 0 0 1-7.945-13.75 15.195 15.195 0 0 0-7.01-15.711l-.062-.039a12.22 12.22 0 0 1-4.91-15.1 15.18 15.18 0 0 0-3.585-16.83l-.024-.023a12.22 12.22 0 0 1-1.663-15.8 15.19 15.19 0 0 0 0-17.222 12.22 12.22 0 0 1 1.663-15.8l.024-.023a15.18 15.18 0 0 0 3.584-16.83 12.22 12.22 0 0 1 4.91-15.1l.064-.039a15.195 15.195 0 0 0 7.009-15.712 12.236 12.236 0 0 1 7.945-13.749l.094-.033a15.22 15.22 0 0 0 10.13-13.916 12.26 12.26 0 0 1 10.64-11.805l.108-.014a15.26 15.26 0 0 0 12.816-11.517 12.29 12.29 0 0 1 12.877-9.347l.1.008a15.31 15.31 0 0 0 14.95-8.615 12.325 12.325 0 0 1 14.56-6.477l.071.02a15.35 15.35 0 0 0 16.439-5.33 12.355 12.355 0 0 1 15.613-3.315l.03.016a15.38 15.38 0 0 0 17.212-1.806 12.375 12.375 0 0 1 15.983 0Z"/></g></g></g></g><g clip-path="url(#l)"><g clip-path="url(#m)"><g clip-path="url(#n)"><g clip-path="url(#o)"><path fill="#c23737" d="M37.66 38.819h298.521v298.52H37.661Z"/></g></g></g><g clip-path="url(#p)"><g clip-path="url(#q)"><g clip-path="url(#r)"><path fill="#f6f3ec" d="M174.017 46.144q-3.22.29-6.419.722l-1.812-13.377q3.501-.475 7.025-.79zm-12.778 1.731q-3.172.577-6.31 1.297l-3.018-13.159a155 155 0 0 1 6.911-1.42zm-12.56 2.88q-3.1.862-6.159 1.864l-4.202-12.83a155 155 0 0 1 6.747-2.04zm-12.242 4.011q-3.007 1.14-5.962 2.415l-5.351-12.394a155 155 0 0 1 6.53-2.645zm-11.827 5.108a142 142 0 0 0-5.719 2.947l-6.454-11.857a156 156 0 0 1 6.263-3.228zm-11.316 6.16a143 143 0 0 0-5.435 3.456l-7.5-11.225a156 156 0 0 1 5.95-3.783zm-10.716 7.16a143 143 0 0 0-5.105 3.934l-8.48-10.504a157 157 0 0 1 5.586-4.306zm-10.03 8.096a143 143 0 0 0-4.733 4.38l-9.389-9.7a157 157 0 0 1 5.178-4.792zm-9.263 8.966a143 143 0 0 0-4.32 4.787l-10.223-8.818a157 157 0 0 1 4.728-5.237zm-8.42 9.762q-1.995 2.535-3.872 5.154L60.019 97.31a157 157 0 0 1 4.237-5.641zm-7.508 10.478a143 143 0 0 0-3.39 5.48l-11.638-6.84a156 156 0 0 1 3.71-6zm-6.53 11.113a142 142 0 0 0-2.878 5.76l-12.21-5.759a156 156 0 0 1 3.15-6.307zm-5.497 11.658a142 142 0 0 0-2.34 5.99l-12.683-4.625a155 155 0 0 1 2.563-6.561zm-4.413 12.108q-.962 3.065-1.783 6.171l-13.052-3.45q.9-3.404 1.953-6.762zm-3.29 12.45a142 142 0 0 0-1.216 6.312l-13.31-2.25q.586-3.474 1.33-6.913zm-2.147 12.698q-.393 3.195-.64 6.409l-13.46-1.04q.27-3.519.7-7.014zm-.994 12.843q-.075 2.352-.076 4.71l.012 1.835-13.5.083-.012-1.917q0-2.578.084-5.149zm.16 12.972q.181 3.205.508 6.391l-13.43 1.371a157 157 0 0 1-.557-6.992zm1.311 12.818a142 142 0 0 0 1.086 6.333l-13.251 2.582a156 156 0 0 1-1.189-6.936zm2.465 12.641q.759 3.129 1.659 6.219l-12.961 3.776a155 155 0 0 1-1.818-6.812zm3.602 12.364a141 141 0 0 0 2.221 6.048l-12.563 4.941q-1.293-3.285-2.433-6.626zm4.714 11.987a142 142 0 0 0 2.763 5.825l-12.062 6.062a155 155 0 0 1-3.027-6.38zm5.784 11.512a142 142 0 0 0 3.281 5.553l-11.465 7.128q-1.864-3-3.591-6.08zm6.805 10.945a143 143 0 0 0 3.768 5.235l-10.775 8.133a156 156 0 0 1-4.125-5.73zm7.765 10.29q2.057 2.483 4.224 4.874l-10.001 9.068a157 157 0 0 1-4.622-5.333zm8.66 9.552a143 143 0 0 0 4.643 4.473l-9.146 9.93a157 157 0 0 1-5.08-4.895zm9.484 8.734q2.466 2.076 5.024 4.037l-8.217 10.711a157 157 0 0 1-5.498-4.417zm10.228 7.846a143 143 0 0 0 5.365 3.567l-7.218 11.409a156 156 0 0 1-5.873-3.905zm10.89 6.89a142 142 0 0 0 5.666 3.068L115.863 327a156 156 0 0 1-6.203-3.36zm11.466 5.876q2.934 1.34 5.923 2.542l-5.04 12.524a155 155 0 0 1-6.487-2.784zm11.95 4.81q3.045 1.066 6.135 1.994l-3.879 12.93a155 155 0 0 1-6.722-2.184zm12.335 3.7a142 142 0 0 0 6.305 1.431l-2.685 13.23a155 155 0 0 1-6.907-1.567zm12.622 2.565q3.192.499 6.41.854l-1.477 13.419q-3.522-.388-7.018-.935zm12.809 1.413q3.22.21 6.455.274l-.272 13.498a158 158 0 0 1-7.058-.3zm12.962.26q3.232-.08 6.448-.303l.935 13.467q-3.516.245-7.05.332zm12.85-.892a142 142 0 0 0 6.402-.882l2.145 13.328q-3.49.563-7.008.966zm12.715-2.045q3.166-.66 6.298-1.46l3.347 13.079a155 155 0 0 1-6.9 1.598zm12.486-3.194a141 141 0 0 0 6.13-2.024l4.524 12.72q-3.332 1.186-6.717 2.217zm12.143-4.318q2.985-1.217 5.914-2.57l5.661 12.256a155 155 0 0 1-6.477 2.815zm11.7-5.403q2.861-1.483 5.653-3.095l6.749 11.693a156 156 0 0 1-6.19 3.388zm11.162-6.442a143 143 0 0 0 5.35-3.592l7.776 11.035a156 156 0 0 1-5.856 3.932zm10.537-7.425a143 143 0 0 0 5.006-4.06l8.737 10.292a157 157 0 0 1-5.478 4.442zm9.826-8.343a143 143 0 0 0 4.623-4.494l9.626 9.465a157 157 0 0 1-5.057 4.917zm9.039-9.192q2.155-2.4 4.2-4.893l10.438 8.562a157 157 0 0 1-4.597 5.354zm8.175-9.966a143 143 0 0 0 3.745-5.252l11.166 7.587a156 156 0 0 1-4.1 5.75zm7.244-10.66a142 142 0 0 0 3.256-5.569l11.805 6.548a156 156 0 0 1-3.564 6.098zm6.25-11.267q1.436-2.89 2.737-5.84l12.351 5.45q-1.425 3.231-2.998 6.396zm5.202-11.787a141 141 0 0 0 2.194-6.062l12.795 4.305a155 155 0 0 1-2.403 6.64zm4.108-12.212q.887-3.095 1.632-6.23l13.134 3.123q-.817 3.434-1.788 6.824zm2.98-12.538q.6-3.158 1.058-6.343l13.363 1.918q-.501 3.487-1.158 6.946zm1.832-12.768q.31-3.19.48-6.398l13.481.709q-.185 3.51-.525 7zm.675-12.848.004-1.19q0-2.659-.098-5.336l13.49-.498q.108 2.925.108 5.886l-.004 1.19zm-.476-12.952a143 143 0 0 0-.67-6.413l13.392-1.706q.445 3.498.733 7.018zm-1.63-12.789a142 142 0 0 0-1.245-6.311l13.183-2.912q.759 3.439 1.363 6.912zm-2.78-12.58a141 141 0 0 0-1.812-6.166l12.862-4.1a155 155 0 0 1 1.985 6.756zm-3.913-12.272a142 142 0 0 0-2.366-5.976l12.436-5.253a155 155 0 0 1 2.592 6.547zm-5.013-11.866a142 142 0 0 0-2.903-5.744l11.907-6.36a155 155 0 0 1 3.18 6.29zm-6.07-11.364a143 143 0 0 0-3.415-5.464l11.284-7.41a156 156 0 0 1 3.738 5.98zm-7.075-10.772a143 143 0 0 0-3.895-5.137l10.57-8.397a157 157 0 0 1 4.263 5.621zm-8.018-10.093a143 143 0 0 0-4.342-4.767l9.774-9.313a157 157 0 0 1 4.75 5.216zm-8.893-9.333a143 143 0 0 0-4.752-4.358l8.898-10.153a157 157 0 0 1 5.2 4.768zm-9.695-8.498a143 143 0 0 0-5.124-3.911l7.95-10.912q2.85 2.076 5.606 4.28zm-10.42-7.59a143 143 0 0 0-5.452-3.432l6.932-11.584a156 156 0 0 1 5.968 3.757zm-11.062-6.619a142 142 0 0 0-5.734-2.922l5.855-12.164a156 156 0 0 1 6.279 3.2zm-11.613-5.588a142 142 0 0 0-5.97-2.387l4.725-12.646q3.298 1.233 6.54 2.614zm-12.067-4.508q-3.06-.986-6.163-1.833l3.554-13.024q3.4.928 6.752 2.009zm-12.423-3.39q-3.14-.704-6.311-1.266l2.355-13.293q3.474.615 6.912 1.388zm-12.68-2.246q-3.198-.42-6.416-.693l1.146-13.451q3.522.3 7.02.758zm-12.836-1.095a145 145 0 0 0-12.329.028l-.604-13.487a159 159 0 0 1 13.476-.03z"/></g></g></g><g clip-path="url(#s)"><g clip-path="url(#t)"><g clip-path="url(#u)"><path fill="#c23737" d="m37.358 46.342 291.3-7.826 7.826 291.3-291.3 7.826Z"/></g></g></g></g></g><g clip-path="url(#v)"><g clip-path="url(#w)"><g clip-path="url(#x)"><g clip-path="url(#y)"><path fill="#8d6640" d="M260.172 237.342 11.138 212.68l10.085-18.833-6.5-17.375 249.035 24.663-12.283 15.514z"/></g></g></g></g><g clip-path="url(#z)"><g clip-path="url(#A)"><g clip-path="url(#B)"><g clip-path="url(#C)"><path fill="#8d6640" d="m365.409 210.868-248.656 28.228 5.902-20.531-10.006-15.62 248.656-28.23-8.748 17.75z"/></g></g></g></g><g clip-path="url(#D)"><g clip-path="url(#E)"><g clip-path="url(#F)"><g clip-path="url(#G)"><g clip-path="url(#H)"><path fill="#6b4623" d="M93.36 94.518h187.122V281.64H93.36Z"/></g></g></g></g></g><g transform="rotate(7.447 638.728 807.737)scale(2.17915)"><ellipse cx="52.174" cy="103.823" rx="18.268" ry="17.348" style="fill:#bdffff;fill-opacity:1;stroke:#000;stroke-width:0;paint-order:stroke fill markers"/><path d="M51.123 77.538h2.234v35.221h-2.234z" style="fill:#5ee5e6;fill-opacity:1;stroke:#000;stroke-width:0;paint-order:stroke fill markers"/><path d="M52.9 94.451c-3.285 0-6.208 1.89-7.28 4.706a5.81 5.81 0 0 0-7.819 5.426h29.192a5.812 5.812 0 0 0-6.868-5.568c-1.119-2.743-4.001-4.564-7.225-4.564z" style="fill:#e5ddd9;fill-opacity:.798055;stroke:#000;stroke-width:0;paint-order:stroke fill markers"/><path d="m15.902 99.749 2.891 36.316a5.394 5.394 42.815 0 0 5.36 4.965l30.686.098a6.18 6.18 137.263 0 0 6.181-5.711l2.72-35.8z" style="fill:#ffd088;fill-opacity:1;stroke:#000;stroke-width:0;paint-order:stroke fill markers" transform="matrix(.7445 0 0 1 22.33 8.28)"/><rect width="42.821" height="6.712" x="30.32" y="104.426" rx="3.037" ry="5.949" style="fill:#efa11a;fill-opacity:1;stroke:#000;stroke-width:0;paint-order:stroke fill markers"/><rect width="25.233" height="16.165" x="39.032" y="121.302" rx="2.764" ry="5.42" style="fill:#ef1c1a;fill-opacity:1;stroke:#000;stroke-width:0;paint-order:stroke fill markers"/><path d="M22.21 85.95c-.087.025-2.377-3.8-2.462-3.83-.086-.032-4.292 1.443-4.343 1.368-.05-.076 2.879-3.435 2.882-3.526s-2.7-3.635-2.644-3.707 4.156 1.677 4.244 1.651c.087-.025 2.623-3.69 2.709-3.66.085.032-.31 4.471-.26 4.547.051.075 4.321 1.354 4.318 1.445s-4.347 1.086-4.403 1.158.047 4.528-.04 4.553z" style="fill:#fbff0d;fill-opacity:1;stroke:#000;stroke-width:0;paint-order:stroke fill markers" transform="matrix(.86908 -.29317 .30617 .83218 9.271 68.837)"/></g><g clip-path="url(#I)"><g clip-path="url(#J)"><path d="M15.838 41c.48 0 .829-.262 1.003-.698l11.257-29.843c-4.843.436-8.639 3.49-10.733 10.297L13.787 32.36 7.112 12.03c-.175-.524-.48-.698-.96-.698H.96c-.611 0-.916.392-.698 1.003l10.515 27.967c.174.436.523.698 1.003.698Z" aria-label="V" style="font-weight:700;font-size:43.63px;font-family:Batangas;fill:#f6f3ec" transform="rotate(-77.343 126.169 53.398)scale(.8906)"/><text xml:space="preserve" fill="#f6f3ec" font-family="Batangas" font-size="43.63" font-weight="bold" transform="rotate(-77.343 126.169 53.398)scale(.8906)"><tspan x="27.922" y="41"> </tspan></text><path d="M5.061 17.963c2.356 0 4.8-1.178 4.8-3.534 0-2.312-2.444-3.534-4.8-3.534-2.4 0-4.8 1.222-4.8 3.534 0 2.356 2.4 3.534 4.8 3.534M7.766 41c.567 0 .873-.305.873-.873V29.613c0-4.494-2.313-7.418-6.545-8.29v18.804c0 .568.306.873.873.873z" aria-label="i" style="font-weight:700;font-size:43.63px;font-family:Batangas;fill:#f6f3ec" transform="rotate(-68.923 126.818 29.78)scale(.8906)"/><text xml:space="preserve" fill="#f6f3ec" font-family="Batangas" font-size="43.63" font-weight="bold" transform="rotate(-68.923 126.818 29.78)scale(.8906)"><tspan x="10.484" y="41"> </tspan></text><path d="M12.39 21.061c-6.456 0-11.212 4.058-11.212 10.34 0 6.37 4.581 10.297 11.213 10.297 4.8 0 8.595-2.094 10.122-6.457.218-.611-.13-1.004-.742-1.004h-4.843c-.48 0-.741.262-.96.742-.523 1.178-1.788 2.05-3.708 2.05-2.443 0-3.97-1.745-4.145-4.406h14.049c.567 0 .873-.305.873-.873v-.785c0-6.37-4.8-9.904-10.646-9.904M8.203 29.09c.371-2.094 1.55-3.578 3.97-3.578 2.313 0 3.797 1.484 3.927 3.578z" aria-label="e" style="font-weight:700;font-size:43.63px;font-family:Batangas;fill:#f6f3ec" transform="rotate(-61.296 134.927 14.143)scale(.8906)"/><text xml:space="preserve" fill="#f6f3ec" font-family="Batangas" font-size="43.63" font-weight="bold" transform="rotate(-61.296 134.927 14.143)scale(.8906)"><tspan x="24.313" y="41"> </tspan></text><path d="M10.733 21.76v-8.29c-4.232.872-6.545 3.795-6.545 8.29H1.396c-.567 0-.872.305-.872.872v3.316c0 .567.305.872.872.872h2.792v13.307c0 .568.306.873.873.873h4.8c.567 0 .872-.305.872-.873V26.82h2.836c.567 0 .873-.305.873-.872v-3.316c0-.567-.306-.873-.873-.873z" aria-label="t" style="font-weight:700;font-size:43.63px;font-family:Batangas;fill:#f6f3ec" transform="rotate(-52.685 140.083 -19.027)scale(.8906)"/><text xml:space="preserve" fill="#f6f3ec" font-family="Batangas" font-size="43.63" font-weight="bold" transform="rotate(-52.685 140.083 -19.027)scale(.8906)"><tspan x="14.969" y="41"> </tspan></text><path d="M14.485 21.061c-2.53 0-4.886 1.113-6.872 4.036-1.068-1.942-2.945-3.25-5.519-3.774v18.804c0 .568.306.873.873.873h4.8c.566 0 .872-.305.872-.873v-9.97c.262-2.399 1.767-3.86 3.621-3.86 2.05 0 2.923 1.265 2.923 3.534v10.296c0 .568.306.873.873.873h4.8c.566 0 .872-.305.872-.873V29.831c0-5.236-2.095-8.77-7.243-8.77" aria-label="n" style="font-weight:700;font-size:43.63px;font-family:Batangas;fill:#f6f3ec" transform="rotate(-44.235 151.615 -53.724)scale(.8906)"/><text xml:space="preserve" fill="#f6f3ec" font-family="Batangas" font-size="43.63" font-weight="bold" transform="rotate(-44.235 151.615 -53.724)scale(.8906)"><tspan x="23.563" y="41"> </tspan></text><path d="M18.565 24.879c-1.702-2.378-4.407-3.818-7.701-3.818-5.672 0-9.599 4.232-9.599 10.297 0 6.108 3.927 10.34 9.599 10.34 3.294 0 5.999-1.44 7.7-3.84 1.07 2.139 2.902 3.317 5.433 3.578V21.323c-2.531.262-4.363 1.44-5.432 3.556M12.87 36.462c-2.662 0-4.581-2.094-4.581-5.06 0-2.967 1.92-5.062 4.58-5.062 2.662 0 4.582 2.095 4.582 5.061 0 2.967-1.92 5.061-4.581 5.061" aria-label="a" style="font-weight:700;font-size:43.63px;font-family:Batangas;fill:#f6f3ec" transform="rotate(-33.337 171.374 -128.706)scale(.8906)"/><text xml:space="preserve" fill="#f6f3ec" font-family="Batangas" font-size="43.63" font-weight="bold" transform="rotate(-33.337 171.374 -128.706)scale(.8906)"><tspan x="26.141" y="41"> </tspan></text><path d="M26.92 21.061c-2.902 0-5.018.807-6.85 3.032-1.244-2.421-3.6-3.032-5.716-3.032-2.552 0-5.192 1.287-7.09 3.49-1.09-1.657-2.836-2.748-5.17-3.228v18.804c0 .568.306.873.873.873h4.8c.566 0 .872-.305.872-.873V29.918c.24-2.247 1.374-3.621 3.36-3.621 2.18 0 2.922 1.483 2.922 4.232v9.598c0 .568.306.873.873.873h4.8c.567 0 .872-.305.872-.873V30.53c0-2.749 1.003-4.232 3.36-4.232 2.355 0 2.966 1.483 2.966 4.232v9.598c0 .568.306.873.873.873h4.8c.566 0 .872-.305.872-.873v-11.78c0-4.1-2.4-7.286-7.417-7.286" aria-label="m" style="font-weight:700;font-size:43.63px;font-family:Batangas;fill:#f6f3ec" transform="rotate(-19.663 226.64 -326.922)scale(.8906)"/><text xml:space="preserve" fill="#f6f3ec" font-family="Batangas" font-size="43.63" font-weight="bold" transform="rotate(-19.663 226.64 -326.922)scale(.8906)"><tspan x="36.219" y="41"> </tspan></text><path d="M12.39 21.061c-6.456 0-11.212 4.058-11.212 10.34 0 6.37 4.581 10.297 11.213 10.297 4.8 0 8.595-2.094 10.122-6.457.218-.611-.13-1.004-.742-1.004h-4.843c-.48 0-.741.262-.96.742-.523 1.178-1.788 2.05-3.708 2.05-2.443 0-3.97-1.745-4.145-4.406h14.049c.567 0 .873-.305.873-.873v-.785c0-6.37-4.8-9.904-10.646-9.904M8.203 29.09c.371-2.094 1.55-3.578 3.97-3.578 2.313 0 3.797 1.484 3.927 3.578z" aria-label="e" style="font-weight:700;font-size:43.63px;font-family:Batangas;fill:#f6f3ec" transform="rotate(-6.392 488.773 -1401.724)scale(.8906)"/><text xml:space="preserve" fill="#f6f3ec" font-family="Batangas" font-size="43.63" font-weight="bold" transform="rotate(-6.392 488.773 -1401.724)scale(.8906)"><tspan x="24.313" y="41"> </tspan></text><path d="M11.606 41.698c6.151 0 9.73-2.574 9.73-7.024 0-7.941-12.872-4.93-12.872-8.29 0-.655.655-1.265 2.182-1.265 1.876 0 2.792.61 3.316 1.745.218.48.523.742 1.003.742h4.669c.61 0 .916-.35.785-.96-.96-3.752-4.32-5.585-9.424-5.585-5.934 0-9.119 2.487-9.119 6.196 0 7.766 12.87 4.45 12.87 8.027 0 1.091-.959 1.877-3.01 1.877-1.178 0-3.577-.437-4.1-2.487-.132-.524-.393-.83-.917-.83H1.963c-.567 0-.916.35-.829.917.83 4.843 4.93 6.937 10.472 6.937" aria-label="s" style="font-weight:700;font-size:43.63px;font-family:Batangas;fill:#f6f3ec" transform="rotate(3.885 -545.452 2746.477)scale(.8906)"/><text xml:space="preserve" fill="#f6f3ec" font-family="Batangas" font-size="43.63" font-weight="bold" transform="rotate(3.885 -545.452 2746.477)scale(.8906)"><tspan x="22.563" y="41"> </tspan></text><path d="M12.39 21.061c-6.456 0-11.212 4.058-11.212 10.34 0 6.37 4.581 10.297 11.213 10.297 4.8 0 8.595-2.094 10.122-6.457.218-.611-.13-1.004-.742-1.004h-4.843c-.48 0-.741.262-.96.742-.523 1.178-1.788 2.05-3.708 2.05-2.443 0-3.97-1.745-4.145-4.406h14.049c.567 0 .873-.305.873-.873v-.785c0-6.37-4.8-9.904-10.646-9.904M8.203 29.09c.371-2.094 1.55-3.578 3.97-3.578 2.313 0 3.797 1.484 3.927 3.578z" aria-label="e" style="font-weight:700;font-size:43.63px;font-family:Batangas;fill:#f6f3ec" transform="rotate(14.162 -77.495 864.116)scale(.8906)"/><text xml:space="preserve" fill="#f6f3ec" font-family="Batangas" font-size="43.63" font-weight="bold" transform="rotate(14.162 -77.495 864.116)scale(.8906)"><tspan x="24.313" y="41"> </tspan></text><text xml:space="preserve" fill="#f6f3ec" font-family="Batangas" font-size="43.63" font-weight="bold" transform="rotate(21.979 -17.112 625.792)scale(.8906)"><tspan x="0" y="41"> </tspan></text><text xml:space="preserve" fill="#f6f3ec" font-family="Batangas" font-size="43.63" font-weight="bold" transform="rotate(21.979 -17.112 625.792)scale(.8906)"><tspan x="11.344" y="41"> </tspan></text><path d="M16.318 41.349c6.413 0 12.129-3.534 13.743-9.511.175-.611-.174-.96-.785-.96h-5.192c-.48 0-.786.218-1.004.698-1.003 2.487-3.665 3.84-6.762 3.84-4.8 0-8.683-3.404-8.683-9.337 0-5.89 3.883-9.294 8.683-9.294 3.054 0 5.715 1.353 6.762 3.796.218.48.524.698 1.004.698h5.148c.61 0 .96-.349.785-.96-1.657-5.89-7.155-9.467-13.656-9.467-8.29 0-15.27 5.846-15.27 15.227 0 9.25 6.806 15.27 15.227 15.27" aria-label="C" style="font-weight:700;font-size:43.63px;font-family:Batangas;fill:#f6f3ec" transform="rotate(31.289 21.727 467.729)scale(.8906)"/><text xml:space="preserve" fill="#f6f3ec" font-family="Batangas" font-size="43.63" font-weight="bold" transform="rotate(31.289 21.727 467.729)scale(.8906)"><tspan x="31.109" y="41"> </tspan></text><path d="M12.216 41.698c6.85 0 10.952-4.232 10.952-10.297 0-6.02-4.145-10.34-10.952-10.34-6.85 0-10.994 4.32-10.994 10.34 0 6.021 4.1 10.297 10.994 10.297m0-5.105c-2.923 0-4.493-2.268-4.493-5.148 0-2.923 1.614-5.28 4.493-5.28s4.45 2.313 4.45 5.28c0 2.923-1.57 5.148-4.45 5.148" aria-label="o" style="font-weight:700;font-size:43.63px;font-family:Batangas;fill:#f6f3ec" transform="rotate(43.47 43.42 380.328)scale(.8906)"/><text xml:space="preserve" fill="#f6f3ec" font-family="Batangas" font-size="43.63" font-weight="bold" transform="rotate(43.47 43.42 380.328)scale(.8906)"><tspan x="24.438" y="41"> </tspan></text><path d="M13.656 8.277c-3.36 0-9.25 2.182-9.25 10.733v2.75H1.615c-.567 0-.872.305-.872.872v3.316c0 .567.305.872.872.872h2.793v13.307c0 .568.305.873.872.873h4.8c.567 0 .872-.305.872-.873V26.82h3.054c.567 0 .873-.305.873-.872v-3.316c0-.567-.306-.873-.873-.873h-3.054V19.01c0-3.883 1.396-4.755 3.621-4.755.568 0 .873-.306.873-.873V9.15c0-.567-.305-.873-.873-.873z" aria-label="f" style="font-weight:700;font-size:43.63px;font-family:Batangas;fill:#f6f3ec" transform="rotate(52.158 51.509 343.937)scale(.8906)"/><text xml:space="preserve" fill="#f6f3ec" font-family="Batangas" font-size="43.63" font-weight="bold" transform="rotate(52.158 51.509 343.937)scale(.8906)"><tspan x="15.188" y="41"> </tspan></text><path d="M13.656 8.277c-3.36 0-9.25 2.182-9.25 10.733v2.75H1.615c-.567 0-.872.305-.872.872v3.316c0 .567.305.872.872.872h2.793v13.307c0 .568.305.873.872.873h4.8c.567 0 .872-.305.872-.873V26.82h3.054c.567 0 .873-.305.873-.872v-3.316c0-.567-.306-.873-.873-.873h-3.054V19.01c0-3.883 1.396-4.755 3.621-4.755.568 0 .873-.306.873-.873V9.15c0-.567-.305-.873-.873-.873z" aria-label="f" style="font-weight:700;font-size:43.63px;font-family:Batangas;fill:#f6f3ec" transform="rotate(58.818 57.379 319.903)scale(.8906)"/><text xml:space="preserve" fill="#f6f3ec" font-family="Batangas" font-size="43.63" font-weight="bold" transform="rotate(58.818 57.379 319.903)scale(.8906)"><tspan x="15.188" y="41"> </tspan></text><path d="M12.39 21.061c-6.456 0-11.212 4.058-11.212 10.34 0 6.37 4.581 10.297 11.213 10.297 4.8 0 8.595-2.094 10.122-6.457.218-.611-.13-1.004-.742-1.004h-4.843c-.48 0-.741.262-.96.742-.523 1.178-1.788 2.05-3.708 2.05-2.443 0-3.97-1.745-4.145-4.406h14.049c.567 0 .873-.305.873-.873v-.785c0-6.37-4.8-9.904-10.646-9.904M8.203 29.09c.371-2.094 1.55-3.578 3.97-3.578 2.313 0 3.797 1.484 3.927 3.578z" aria-label="e" style="font-weight:700;font-size:43.63px;font-family:Batangas;fill:#f6f3ec" transform="rotate(67.478 65.452 292.136)scale(.8906)"/><text xml:space="preserve" fill="#f6f3ec" font-family="Batangas" font-size="43.63" font-weight="bold" transform="rotate(67.478 65.452 292.136)scale(.8906)"><tspan x="24.313" y="41"> </tspan></text><path d="M12.39 21.061c-6.456 0-11.212 4.058-11.212 10.34 0 6.37 4.581 10.297 11.213 10.297 4.8 0 8.595-2.094 10.122-6.457.218-.611-.13-1.004-.742-1.004h-4.843c-.48 0-.741.262-.96.742-.523 1.178-1.788 2.05-3.708 2.05-2.443 0-3.97-1.745-4.145-4.406h14.049c.567 0 .873-.305.873-.873v-.785c0-6.37-4.8-9.904-10.646-9.904M8.203 29.09c.371-2.094 1.55-3.578 3.97-3.578 2.313 0 3.797 1.484 3.927 3.578z" aria-label="e" style="font-weight:700;font-size:43.63px;font-family:Batangas;fill:#f6f3ec" transform="rotate(78.137 71.24 268.977)scale(.8906)"/><text xml:space="preserve" fill="#f6f3ec" font-family="Batangas" font-size="43.63" font-weight="bold" transform="rotate(78.137 71.24 268.977)scale(.8906)"><tspan x="24.313" y="41"> </tspan></text></g><g clip-path="url(#K)"><path d="M10.769 41c11.544 0 16.792-6.753 16.792-15.514S22.267 9.972 10.769 9.972H3.377c-.594 0-.913.319-.913.912v29.203c0 .594.32.913.913.913zm-1.46-24.823h2.099c6.661 0 9.308 4.153 9.308 9.309s-2.692 9.308-9.308 9.308h-2.1Z" aria-label="D" style="font-weight:700;font-size:45.63px;font-family:Batangas;fill:#f6f3ec" transform="rotate(62.249 -135.34 193.687)scale(.85275)"/><path d="M12.959 20.147c-6.753 0-11.727 4.244-11.727 10.814 0 6.662 4.791 10.77 11.727 10.77 5.02 0 8.989-2.191 10.586-6.754.228-.639-.137-1.05-.776-1.05h-5.065c-.501 0-.775.274-1.003.776-.548 1.232-1.871 2.145-3.879 2.145-2.555 0-4.152-1.826-4.335-4.609H23.18c.593 0 .913-.32.913-.913v-.82c0-6.663-5.02-10.359-11.134-10.359m-4.38 8.396c.387-2.19 1.62-3.742 4.152-3.742 2.418 0 3.97 1.552 4.106 3.742z" aria-label="e" style="font-weight:700;font-size:45.63px;font-family:Batangas;fill:#f6f3ec" transform="rotate(50.652 -200.64 234.71)scale(.85275)"/><path d="M8.122 41c.593 0 .913-.32.913-.913v-24.64c0-4.7-2.419-7.757-6.845-8.67v33.31c0 .594.32.913.913.913z" aria-label="l" style="font-weight:700;font-size:45.63px;font-family:Batangas;fill:#f6f3ec" transform="rotate(42.804 -265.617 280.622)scale(.85275)"/><path d="M5.293 16.907c2.464 0 5.02-1.232 5.02-3.696 0-2.418-2.556-3.696-5.02-3.696-2.51 0-5.02 1.278-5.02 3.696 0 2.464 2.51 3.696 5.02 3.696M8.123 41c.592 0 .912-.32.912-.913V29.091c0-4.7-2.419-7.758-6.845-8.67v19.666c0 .594.32.913.913.913z" aria-label="i" style="font-weight:700;font-size:45.63px;font-family:Batangas;fill:#f6f3ec" transform="rotate(38.05 -314.97 312.265)scale(.85275)"/><path d="M15.15 41c.501 0 .866-.274 1.049-.73l7.529-19.85c-4.7 0-7.712 2.328-9.4 7.439l-2.464 7.392L7.3 21.607c-.183-.502-.502-.73-1.004-.73H1.323c-.684 0-.958.41-.73 1.05L7.575 40.27c.182.456.547.73 1.05.73Z" aria-label="v" style="font-weight:700;font-size:45.63px;font-family:Batangas;fill:#f6f3ec" transform="rotate(30.553 -419.753 370.712)scale(.85275)"/><path d="M12.959 20.147c-6.753 0-11.727 4.244-11.727 10.814 0 6.662 4.791 10.77 11.727 10.77 5.02 0 8.989-2.191 10.586-6.754.228-.639-.137-1.05-.776-1.05h-5.065c-.501 0-.775.274-1.003.776-.548 1.232-1.871 2.145-3.879 2.145-2.555 0-4.152-1.826-4.335-4.609H23.18c.593 0 .913-.32.913-.913v-.82c0-6.663-5.02-10.359-11.134-10.359m-4.38 8.396c.387-2.19 1.62-3.742 4.152-3.742 2.418 0 3.97 1.552 4.106 3.742z" aria-label="e" style="font-weight:700;font-size:45.63px;font-family:Batangas;fill:#f6f3ec" transform="rotate(19.962 -705.119 545.861)scale(.85275)"/><path d="M15.605 20.603c-.456-.09-1.003-.182-1.505-.182-2.419 0-4.677 1.095-6.115 4.015-1.095-2.076-3.057-3.445-5.795-4.015v19.666c0 .594.32.913.913.913h5.02c.592 0 .912-.32.912-.913V30.87c.274-2.783 1.688-4.243 4.152-4.243.639 0 1.323.09 2.1.273.638.183 1.049-.09 1.049-.73v-4.517c0-.502-.229-.913-.73-1.05" aria-label="r" style="font-weight:700;font-size:45.63px;font-family:Batangas;fill:#f6f3ec" transform="rotate(10.864 -1390.111 985.865)scale(.85275)"/><path d="M12.959 20.147c-6.753 0-11.727 4.244-11.727 10.814 0 6.662 4.791 10.77 11.727 10.77 5.02 0 8.989-2.191 10.586-6.754.228-.639-.137-1.05-.776-1.05h-5.065c-.501 0-.775.274-1.003.776-.548 1.232-1.871 2.145-3.879 2.145-2.555 0-4.152-1.826-4.335-4.609H23.18c.593 0 .913-.32.913-.913v-.82c0-6.663-5.02-10.359-11.134-10.359m-4.38 8.396c.387-2.19 1.62-3.742 4.152-3.742 2.418 0 3.97 1.552 4.106 3.742z" aria-label="e" style="font-weight:700;font-size:45.63px;font-family:Batangas;fill:#f6f3ec" transform="rotate(1.764 -9067.53 5703.051)scale(.85275)"/><path d="M18.252 22.794c-1.734-1.689-4.107-2.647-6.89-2.647-5.932 0-10.039 4.426-10.039 10.769 0 6.388 4.107 10.814 10.039 10.814 3.33 0 6.091-1.392 7.871-3.764 1.095 2.281 3.08 3.49 5.864 3.49V15.447c0-4.7-2.419-7.757-6.845-8.67zm-4.791 13.46c-2.784 0-4.791-2.19-4.791-5.293 0-3.102 2.007-5.293 4.79-5.293s4.792 2.19 4.792 5.293-2.008 5.293-4.791 5.293" aria-label="d" style="font-weight:700;font-size:45.63px;font-family:Batangas;fill:#f6f3ec" transform="rotate(-9.516 1796.328 -991.85)scale(.85275)"/><text xml:space="preserve" fill="#f6f3ec" font-family="Batangas" font-size="45.63" font-weight="bold" transform="rotate(-17.902 992.472 -521.313)scale(.85275)"><tspan x="0" y="41"> </tspan></text><path d="M3.194 9.972c-.593 0-.912.319-.912.912v4.38c0 .594.319.913.912.913h4.084c-2.989 1.164-4.996 4.312-4.996 9.08v14.83c0 .594.319.913.912.913h5.02c.593 0 .912-.32.912-.913V23.683c1.095 2.624 3.924 4.404 8.213 4.404h1.552c.593 0 .912-.32.912-.913v-4.38c0-.594-.319-.913-.912-.913H9.126v-5.704h10.221c.593 0 .913-.32.913-.912v-4.38c0-.594-.32-.913-.913-.913z" aria-label="F" style="font-weight:700;font-size:45.63px;font-family:Batangas;fill:#f6f3ec" transform="rotate(-25.009 734.45 -346.476)scale(.85275)"/><path d="M15.605 20.603c-.456-.09-1.003-.182-1.505-.182-2.419 0-4.677 1.095-6.115 4.015-1.095-2.076-3.057-3.445-5.795-4.015v19.666c0 .594.32.913.913.913h5.02c.592 0 .912-.32.912-.913V30.87c.274-2.783 1.688-4.243 4.152-4.243.639 0 1.323.09 2.1.273.638.183 1.049-.09 1.049-.73v-4.517c0-.502-.229-.913-.73-1.05" aria-label="r" style="font-weight:700;font-size:45.63px;font-family:Batangas;fill:#f6f3ec" transform="rotate(-33.238 569.787 -247.496)scale(.85275)"/><path d="M12.959 20.147c-6.753 0-11.727 4.244-11.727 10.814 0 6.662 4.791 10.77 11.727 10.77 5.02 0 8.989-2.191 10.586-6.754.228-.639-.137-1.05-.776-1.05h-5.065c-.501 0-.775.274-1.003.776-.548 1.232-1.871 2.145-3.879 2.145-2.555 0-4.152-1.826-4.335-4.609H23.18c.593 0 .913-.32.913-.913v-.82c0-6.663-5.02-10.359-11.134-10.359m-4.38 8.396c.387-2.19 1.62-3.742 4.152-3.742 2.418 0 3.97 1.552 4.106 3.742z" aria-label="e" style="font-weight:700;font-size:45.63px;font-family:Batangas;fill:#f6f3ec" transform="rotate(-42.335 463.023 -174.628)scale(.85275)"/><path d="M12.138 41.73c6.433 0 10.175-2.692 10.175-7.346 0-8.305-13.46-5.157-13.46-8.67 0-.684.684-1.323 2.28-1.323 1.963 0 2.921.639 3.469 1.825.228.502.547.776 1.05.776h4.882c.638 0 .958-.365.82-1.004-1.003-3.924-4.517-5.84-9.855-5.84-6.206 0-9.537 2.6-9.537 6.479 0 8.122 13.46 4.654 13.46 8.395 0 1.141-1.003 1.963-3.148 1.963-1.232 0-3.741-.457-4.289-2.601-.137-.548-.41-.867-.958-.867H2.053c-.593 0-.958.365-.867.958.867 5.065 5.157 7.255 10.952 7.255" aria-label="s" style="font-weight:700;font-size:45.63px;font-family:Batangas;fill:#f6f3ec" transform="rotate(-52.819 382.232 -125.82)scale(.85275)"/><path d="M15.195 20.42c-2.647 0-4.791 1.187-6.16 2.898v-7.87c0-4.7-2.419-7.758-6.845-8.67v33.31c0 .593.32.912.913.912h5.02c.592 0 .912-.32.912-.913v-9.126c0-2.737 1.688-5.019 3.833-5.019 2.144 0 3.057 1.278 3.057 3.65v10.495c0 .594.32.913.912.913h5.02c.593 0 .912-.32.912-.913V29.592c0-5.475-2.19-9.171-7.574-9.171" aria-label="h" style="font-weight:700;font-size:45.63px;font-family:Batangas;fill:#f6f3ec" transform="rotate(-63.137 327.874 -91.64)scale(.85275)"/></g><g clip-path="url(#L)"><path d="M20.473 6.515q.654 0 1.495.117.864.093 1.611.373.747.257 1.26.7.515.421.515 1.051 0 .374-.21.63-.21.258-.678.258-.35 0-.724-.14-.35-.14-.817-.28-.444-.164-1.05-.304-.584-.14-1.378-.14-1.541 0-2.289.56-.723.537-.723 1.495 0 .653.327 1.097.326.444.863.77.56.304 1.238.514.7.21 1.424.397.818.21 1.611.514.818.304 1.448.794t1.004 1.237q.397.748.397 1.892 0 1.19-.443 2.148-.444.934-1.215 1.611-.77.654-1.844 1.028-1.074.35-2.335.35-.7 0-1.635-.14-.934-.117-1.774-.42-.841-.328-1.425-.841-.584-.537-.584-1.308 0-.467.234-.747.257-.28.747-.28.397 0 .654.163.257.14.444.327.7.607 1.587.817.888.21 1.822.21.537 0 1.12-.07.608-.093 1.098-.35t.817-.724q.327-.49.327-1.307 0-.747-.303-1.214-.28-.49-.771-.818-.49-.327-1.167-.537-.654-.21-1.425-.42-.864-.234-1.704-.514-.841-.28-1.495-.747-.654-.49-1.074-1.214-.397-.747-.397-1.891t.42-2.009 1.145-1.447 1.704-.888q1.004-.303 2.148-.303m8.076 15.037q-.047-.864-.094-1.961-.023-1.12-.023-2.452 0-1.658.023-2.825.024-1.191.117-1.938.117-.77.35-1.121.234-.374.654-.374.397 0 .7.28.304.28.351 1.215.14 2.451.14 4.74 0 1.167-.047 2.195-.046 1.004-.093 2.218-.023.56-.117.864-.07.303-.21.467-.14.163-.327.187-.163.046-.397.046-.42 0-.7-.28-.28-.303-.327-1.26m1.05-14.897q.538 0 .981.42.467.42.467 1.004 0 .56-.467.981-.467.397-1.05.397-.49 0-.934-.397-.42-.42-.42-1.027 0-.56.42-.958.443-.42 1.004-.42m9.55 6.398q-.865 0-1.565.28-.677.28-1.541.84v1.448q0 .934-.024 2.055l-.046 2.172q-.024 1.074-.094 1.798-.046.467-.116.747-.047.257-.164.397-.093.14-.28.187-.163.023-.444.023-.28 0-.467-.023-.163-.047-.28-.164-.117-.14-.187-.397t-.116-.7q-.047-.42-.094-1.121-.023-.7-.047-1.518l-.046-1.681v-1.588q0-1.19.023-1.938.047-.747.14-1.33.14-.982.374-1.238.233-.257.63-.257.584 0 .864.327.304.327.374 1.074.864-.747 1.844-1.191 1.005-.444 2.055-.444 1.004 0 1.822.467.84.467 1.377 1.518.327.63.49 1.401.164.747.234 1.588l.047.747q.023.35.023.77.023.398.023.911v1.214q0 .748-.023 1.401-.023.654-.14 1.145-.093.467-.35.747-.257.257-.7.257-1.075 0-1.122-1.028v-.584q0-.537-.023-1.237 0-.7-.023-1.424 0-.724-.024-1.191-.023-.374-.07-.794-.023-.444-.093-.887-.047-.444-.14-.841-.094-.42-.234-.747-.327-.77-.817-.98-.49-.211-1.05-.211m12.838-1.962q.678 0 1.355.117.7.117 1.26.327.561.21.911.514.35.303.35.7 0 1.028-1.167 1.028-.28 0-.537-.07-.234-.094-.56-.164-.327-.093-.818-.163-.49-.094-1.214-.094-1.541 0-2.382 1.051-.84 1.05-.84 2.732 0 1.845.84 2.966.864 1.12 2.429 1.12.98 0 1.588-.163.607-.164.98-.374.397-.21.63-.373.258-.164.561-.164.42 0 .654.187.257.164.257.7 0 .561-.444.981-.42.42-1.074.7-.654.281-1.424.421-.747.14-1.378.14-2.825 0-4.436-1.564-1.612-1.565-1.612-4.437 0-1.237.374-2.335.397-1.12 1.168-1.961.77-.84 1.89-1.331 1.145-.49 2.64-.49m11.672 7.613q-.817 0-1.728-.117-.887-.14-1.938-.56.21 1.424 1.168 2.148.98.723 2.802.723.654 0 1.167-.07.537-.093.934-.186.397-.117.7-.187.304-.094.561-.094.327 0 .63.21.304.187.304.654 0 .584-.49.958-.467.373-1.168.607-.677.21-1.447.28-.77.093-1.355.093-1.377 0-2.545-.373-1.144-.374-1.984-1.121-.841-.77-1.308-1.891t-.467-2.615q0-1.448.444-2.569.467-1.12 1.26-1.891.794-.77 1.869-1.168 1.097-.397 2.358-.397.98 0 1.891.257.934.257 1.635.77.724.514 1.144 1.308.444.77.444 1.821 0 .934-.35 1.588-.351.654-1.005 1.051-.63.397-1.54.584-.888.187-1.986.187m-.163-5.418q-.63 0-1.214.164-.584.14-1.074.49-.467.327-.794.887-.327.538-.444 1.355.887.397 1.728.56.84.14 1.775.14 1.377 0 2.031-.327.677-.35.677-1.237 0-.817-.63-1.424-.607-.608-2.055-.608" aria-label="Since" style="font-size:23.35px;font-family:Sniglet;fill:#f6f3ec" transform="rotate(5.959 -1742.779 404.307)scale(.85275)"/></g><g clip-path="url(#M)"><path d="M6.258 8.897q-.84 0-1.401.186-.56.164-.934.444t-.607.584q-.21.303-.42.584-.187.28-.42.467-.211.163-.538.163-.56 0-.794-.28-.21-.304-.21-.794 0-1.028.77-1.915.234-.28.631-.584.42-.326.98-.583.584-.257 1.332-.42.77-.187 1.728-.187 2.545 0 3.946 1.237 1.4 1.238 1.4 3.48 0 .443-.093.98-.07.537-.303 1.12-.21.585-.607 1.215t-1.051 1.284q-.584.584-1.238 1.074-.653.49-1.354.981-.7.49-1.471 1.05-.747.538-1.518 1.238.747.397 1.611.514t1.938.117q1.005 0 1.612-.047t.98-.117.584-.116.444-.047q.864 0 .864.794 0 .7-.584 1.074-.584.373-1.401.56-.817.164-1.681.187-.864.047-1.425.047-.303 0-.864-.047-.537-.023-1.167-.117-.63-.093-1.284-.256-.63-.187-1.168-.467-.514-.304-.84-.724-.327-.444-.327-1.051 0-.817.583-1.541.607-.747 1.495-1.448.887-.724 1.915-1.424 1.027-.724 1.914-1.471.888-.77 1.471-1.588.607-.817.607-1.775 0-1.19-.817-1.774-.794-.607-2.288-.607m7.959 6.117q0-1.424.256-2.918.28-1.495.981-2.71.7-1.213 1.892-1.984 1.214-.77 3.082-.77 1.47 0 2.498.443 1.05.444 1.728 1.168t1.05 1.658q.374.91.561 1.914t.21 1.985q.047.98.047 1.798 0 1.635-.397 3.012-.373 1.354-1.167 2.335-.77.98-1.962 1.541-1.167.537-2.755.537-1.658 0-2.825-.63-1.145-.654-1.868-1.728-.7-1.097-1.028-2.545-.303-1.471-.303-3.106m2.335-.046q0 1.144.186 2.195.21 1.027.654 1.82.444.771 1.144 1.238.724.467 1.752.467.98 0 1.704-.397.747-.397 1.238-1.097.49-.724.724-1.705.233-.98.233-2.124 0-.864-.07-1.962-.07-1.12-.444-2.101-.35-.981-1.12-1.658t-2.149-.677q-1.167 0-1.914.56-.724.56-1.168 1.448-.443.864-.607 1.938-.163 1.05-.163 2.055M33.71 8.897q-.84 0-1.4.186-.561.164-.935.444-.373.28-.607.584-.21.303-.42.584-.187.28-.42.467-.21.163-.538.163-.56 0-.794-.28-.21-.304-.21-.794 0-1.028.77-1.915.234-.28.631-.584.42-.326.981-.583.584-.257 1.331-.42.77-.187 1.728-.187 2.545 0 3.946 1.237t1.401 3.48q0 .443-.093.98-.07.537-.304 1.12-.21.585-.607 1.215t-1.05 1.284q-.585.584-1.238 1.074-.654.49-1.355.981-.7.49-1.47 1.05-.748.538-1.518 1.238.747.397 1.61.514.865.117 1.939.117 1.004 0 1.61-.047.608-.047.982-.117.373-.07.583-.116.21-.047.444-.047.864 0 .864.794 0 .7-.584 1.074-.584.373-1.4.56-.818.164-1.682.187-.864.047-1.424.047-.304 0-.864-.047-.537-.023-1.168-.117-.63-.093-1.284-.256-.63-.187-1.168-.467-.513-.304-.84-.724-.327-.444-.327-1.051 0-.817.584-1.541.607-.747 1.494-1.448.887-.724 1.915-1.424 1.027-.724 1.915-1.471.887-.77 1.47-1.588.608-.817.608-1.775 0-1.19-.818-1.774-.793-.607-2.288-.607m9.967.093q-.747 0-1.097-.374-.35-.397-.35-.794 0-.42.396-.677.397-.28 1.051-.42.654-.163 1.494-.21.841-.07 1.705-.07.724 0 1.611.07.887.047 1.658.28.77.21 1.284.654.514.42.514 1.167 0 .584-.444 1.215-.443.63-1.027 1.19t-1.168 1.005q-.56.42-.817.607 2.475 0 3.596 1.237t1.12 3.55q0 1.447-.536 2.521-.514 1.074-1.401 1.798-.864.7-2.008 1.05-1.121.351-2.312.351-.98 0-1.938-.163-.934-.164-1.681-.56-.747-.421-1.214-1.098-.444-.7-.444-1.728 0-1.074 1.167-1.074.35 0 .537.187.21.163.35.42.164.233.328.537.163.304.467.56.327.234.84.42.537.164 1.401.164.677 0 1.331-.14.654-.163 1.168-.514.513-.35.817-.934.327-.607.327-1.494 0-1.728-.724-2.452-.7-.724-1.985-.724-.327 0-.607.117-.28.093-.56.234-.28.116-.584.233-.304.093-.677.093t-.654-.326q-.28-.35-.28-.888 0-.373.35-.864.374-.49 1.004-1.12.654-.63 1.565-1.378.91-.77 2.031-1.658h-.56q-.304 0-.63.023h-2.872q-.841-.023-1.542-.023" aria-label="2023" style="font-size:23.35px;font-family:Sniglet;fill:#f6f3ec" transform="rotate(-5.689 2045.414 -2774.627)scale(.85275)"/></g></g><path fill="none" d="M137.473 266.547h100.054V103.962H137.473Z"/><path fill="none" d="M163.355 233.788h42.366v-32.23h-42.366Z"/><path fill="none" d="M112.647 239.095h252.76V174.7h-252.76Z"/><path fill="none" d="M11.138 237.34h252.621v-60.886H11.138Z"/></svg>