<?xml version="1.0" encoding="UTF-8" standalone="no"?>
<svg
   version="1.1"
   width="375"
   height="375"
   viewBox="0 0 375 375"
   id="svg164"
   sodipodi:docname="Vietnamese Coffee.svg"
   inkscape:version="1.4.3 (0d15f75042, 2025-12-25)"
   xmlns:inkscape="http://www.inkscape.org/namespaces/inkscape"
   xmlns:sodipodi="http://sodipodi.sourceforge.net/DTD/sodipodi-0.dtd"
   xmlns="http://www.w3.org/2000/svg"
   xmlns:svg="http://www.w3.org/2000/svg">
  <sodipodi:namedview
     id="namedview164"
     pagecolor="#505050"
     bordercolor="#ffffff"
     borderopacity="1"
     inkscape:showpageshadow="0"
     inkscape:pageopacity="0"
     inkscape:pagecheckerboard="1"
     inkscape:deskcolor="#505050"
     inkscape:zoom="1.0653334"
     inkscape:cx="582.91614"
     inkscape:cy="210.73216"
     inkscape:window-width="1920"
     inkscape:window-height="1008"
     inkscape:window-x="0"
     inkscape:window-y="0"
     inkscape:window-maximized="1"
     inkscape:current-layer="g161" />
  <defs
     id="defs50">
    <clipPath
       id="clip_1">
      <path
         transform="matrix(.24,0,0,.24,0,0)"
         d="M0 0H1562.5V1562.5H0Z"
         clip-rule="evenodd"
         id="path1" />
    </clipPath>
    <clipPath
       id="clip_2">
      <path
         transform="matrix(.24,0,0,.24,0,0)"
         d="M0 0H1562.5V1562.5H0Z"
         clip-rule="evenodd"
         id="path2" />
    </clipPath>
    <clipPath
       id="clip_3">
      <path
         transform="matrix(.24,0,0,.24,0,0)"
         d="M0 0H1562.5V1562.5H0Z"
         clip-rule="evenodd"
         id="path3" />
    </clipPath>
    <clipPath
       id="clip_4">
      <path
         transform="matrix(.24,0,0,.24,0,.96)"
         d="M0 0H1558V1559H0Z"
         clip-rule="evenodd"
         id="path4" />
    </clipPath>
    <clipPath
       id="clip_5">
      <path
         transform="matrix(.24,0,0,.24,0,.96)"
         d="M172.69348 12.996478 1545.5034 173.52095 1384.979 1546.3309 12.169006 1385.8065 172.69348 12.996478Z"
         id="path5" />
    </clipPath>
    <clipPath
       id="clip_6">
      <path
         transform="matrix(.24,0,0,.24,0,.96)"
         d="M890.8506 114.92734C909.2418 134.57718 937.77688 140.98537 962.80398 131.0861L962.93789 131.03316C986.84988 121.57495 1014.0958 130.77527 1027.379 152.79344 1041.2634 175.80837 1067.8154 187.98485 1094.3157 183.48993L1094.6259 183.43732C1119.944 179.1429 1144.6548 193.78652 1153.0455 218.05678 1161.8163 243.42629 1185.2346 260.83128 1212.0557 261.91419L1212.4832 261.93147C1238.1119 262.96626 1259.2213 282.40803 1262.3569 307.86534 1265.6349 334.47795 1284.91 356.35075 1310.8992 362.94935L1311.3508 363.06404C1336.1908 369.37086 1352.7885 392.76426 1350.5361 418.29316 1348.1812 444.9845 1362.4804 470.37693 1386.5249 482.2021L1386.9088 482.3909C1409.8977 493.69697 1421.2669 520.0294 1413.7307 544.51467 1405.8502 570.1195 1414.5516 597.9335 1435.6195 614.48196L1435.8656 614.6753C1456.0167 630.50357 1461.6613 658.6377 1449.1753 681.01406 1436.1165 704.4172 1438.837 733.4487 1456.0167 754.01828L1456.1095 754.12936C1472.5476 773.811 1472.2147 802.5292 1455.3246 821.82437 1437.6567 842.0078 1434.2671 870.9967 1446.8018 894.71188 1458.7847 917.3831 1452.4832 945.4034 1431.9476 960.76168L1431.8318 960.8484C1410.37 976.8994 1401.025 1004.5202 1408.3323 1030.3048 1415.319 1054.9581 1403.3359 1081.031 1380.0768 1091.7833L1379.7926 1091.9146C1355.4752 1103.1561 1340.5917 1128.2123 1342.3523 1154.9443 1344.0363 1180.5077 1326.8987 1203.507 1301.9215 1209.2044L1301.5044 1209.2994C1275.3804 1215.2583 1255.6087 1236.6668 1251.7422 1263.1815 1248.0441 1288.5411 1226.4972 1307.4744 1200.8723 1307.8803L1200.4059 1307.8876C1173.5958 1308.3123 1149.7946 1325.1478 1140.4653 1350.2861 1131.541 1374.333 1106.5161 1388.3801 1081.3401 1383.4743L1080.9205 1383.3925C1054.5728 1378.2583 1027.7703 1389.7914 1013.3832 1412.4535 999.6194 1434.1336 972.1964 1442.6814 948.5519 1432.6613L948.2623 1432.5386C923.5143 1422.0508 894.8695 1427.7728 876.0499 1446.9634 858.0453 1465.323 829.41189 1467.9891 808.327 1453.2697L808.2091 1453.1873C786.14089 1437.7811 756.8971 1437.4334 734.4686 1452.31 713.01248 1466.5419 684.4158 1463.198 666.82186 1444.4 648.4306 1424.7503 619.8956 1418.3419 594.8684 1428.241L594.73458 1428.2941C570.8225 1437.752 543.5768 1428.5518 530.2936 1406.5337 516.40908 1383.5189 489.8571 1371.3427 463.35713 1375.8379L463.04716 1375.8905C437.72874 1380.1853 413.01753 1365.5415 404.6269 1341.2709 395.8562 1315.9008 372.43754 1298.4954 345.6161 1297.4124L345.18898 1297.3952C319.56044 1296.3604 298.45124 1276.9187 295.31559 1251.4617 292.0376 1224.8493 272.76255 1202.9766 246.7736 1196.378L246.32112 1196.2633C221.4812 1189.9566 204.88339 1166.563 207.13564 1141.0343 209.49045 1114.3427 195.19138 1088.9502 171.14684 1077.125L170.76438 1076.9369C147.77539 1065.6306 136.40628 1039.2981 143.9421 1014.8127 151.82245 989.20779 143.12085 961.394 122.05278 944.8457L121.806049 944.65188C101.65488 928.8237 96.0103 900.68948 108.49651 878.31338 121.55577 854.91018 118.83532 825.8785 101.65559 805.30899L101.56299 805.1981C85.12481 785.51638 85.45784 756.7982 102.348018 737.5031 120.0158 717.3196 123.40552 688.3306 110.87085 664.6156 98.88786 641.9443 105.18935 613.9239 125.72479 598.5657L125.84046 598.4791C147.3023 582.42807 156.64722 554.80709 149.33956 529.0225 142.35254 504.36927 154.33565 478.29627 177.59488 467.5442L177.87967 467.41249C202.19724 456.17118 217.08095 431.1152 215.32044 404.383 213.6369 378.81953 230.77443 355.8204 255.75168 350.12294L256.16725 350.02818C282.29133 344.0691 302.0629 322.66059 305.92955 296.1459 309.62779 270.78608 331.17488 251.85306 356.7997 251.44715L357.26609 251.43976C384.07649 251.01509 407.87794 234.1793 417.2072 209.04087 426.13145 184.99373 451.1567 170.94657 476.33283 175.85243L476.7528 175.93428C503.10014 181.06839 529.90219 169.53575 544.2893 146.8741 558.05307 125.19438 585.4756 116.6468 609.11996 126.666469L609.40969 126.78923C634.15798 137.27672 662.80288 131.55449 681.62258 112.36369 699.6272 94.004039 728.2606 91.33777 749.34548 106.0575L749.4635 106.1399C771.5316 121.546077 800.7754 121.894039 823.20376 107.0173 844.6599 92.78548 873.2566 96.12933 890.8506 114.92734Z"
         id="path6" />
    </clipPath>
    <clipPath
       id="clip_7">
      <path
         transform="matrix(.24,0,0,.24,20.4,22.8)"
         d="M0 0H1388V1377H0Z"
         id="path7" />
    </clipPath>
    <clipPath
       id="clip_8">
      <path
         transform="matrix(.24,0,0,.24,0,.96)"
         d="M103.0814 103.908267H1454.5917V1455.4185H103.0814Z"
         id="path8" />
    </clipPath>
    <clipPath
       id="clip_9">
      <path
         transform="matrix(.24,0,0,.24,0,.96)"
         d="M812.1352 121.34704C832.2284 138.34247 860.6695 141.32558 883.85177 128.86917L883.9757 128.80255C906.1251 116.901149 933.6313 122.74238 949.0325 142.61806 965.1308 163.3935 992.3011 172.204 1017.5278 164.82903L1017.8231 164.74269C1041.9246 157.6967 1067.5868 169.1124 1078.4922 191.73091 1089.8915 215.37387 1114.612 229.6182 1140.7838 227.62404L1141.2009 227.59226C1166.2092 225.68675 1188.9186 242.17142 1194.8551 266.53959 1201.0609 292.01368 1222.265 311.0677 1248.2551 314.52485L1248.7068 314.5849C1273.5477 317.88923 1292.3242 338.72413 1293.0359 363.77369 1293.7799 389.96394 1310.5509 413.00129 1335.2461 421.75538L1335.6404 421.89515C1359.2514 430.2649 1373.2835 454.54804 1368.745 479.18409 1363.9992 504.9466 1375.6088 530.9715 1397.9494 544.6509L1398.2103 544.8107C1419.5786 557.8947 1428.2557 584.57778 1418.6705 607.7277 1408.6453 631.94009 1414.5846 659.8267 1433.6056 677.85299L1433.7083 677.95028C1451.9082 695.19839 1454.8462 723.1275 1440.6337 743.78518 1425.7667 765.39389 1425.7667 793.93307 1440.6337 815.5418 1454.8462 836.19949 1451.9082 864.12857 1433.7083 881.37667L1433.6056 881.474C1414.5846 899.5001 1408.6453 927.38687 1418.6705 951.5992 1428.2557 974.74917 1419.5786 1001.4321 1398.2103 1014.51626L1397.9494 1014.67599C1375.6088 1028.3554 1363.9992 1054.3803 1368.745 1080.1427 1373.2835 1104.7788 1359.2514 1129.062 1335.6404 1137.4318L1335.2461 1137.5715C1310.5509 1146.3256 1293.7799 1169.3629 1293.0359 1195.5532 1292.3242 1220.6028 1273.5477 1241.4378 1248.7068 1244.742L1248.2548 1244.8021C1222.2648 1248.2593 1201.0609 1267.313 1194.8551 1292.7869 1188.9186 1317.1549 1166.2095 1333.6394 1141.2013 1331.7339L1140.7846 1331.7022C1114.6124 1329.708 1089.8915 1343.9526 1078.4922 1367.5962 1067.5868 1390.2151 1041.9242 1401.631 1017.8226 1394.5846L1017.52749 1394.4983C992.301 1387.123 965.1308 1395.9334 949.0325 1416.7086 933.6312 1436.5841 906.1252 1442.4254 883.9758 1430.524L883.8519 1430.4575C860.66958 1418.0012 832.2284 1420.9844 812.1352 1437.9799 792.9131 1454.2385 764.76 1454.2385 745.5379 1437.9799 725.4447 1420.9844 697.0036 1418.0012 673.8212 1430.4575L673.69729 1430.524C651.54788 1442.4254 624.0418 1436.5841 608.6406 1416.7086 592.5423 1395.9334 565.37216 1387.123 540.1456 1394.4983L539.8506 1394.5846C515.74899 1401.631 490.08628 1390.2151 479.181 1367.5962 467.7817 1343.9526 443.06074 1329.708 416.8886 1331.7022L416.47184 1331.7339C391.46369 1333.6394 368.7545 1317.1549 362.81809 1292.7869 356.61228 1267.313 335.4083 1248.2593 309.41838 1244.8021L308.96586 1244.742C284.12495 1241.4378 265.34843 1220.6028 264.63667 1195.5532 263.89247 1169.3629 247.12143 1146.3256 222.42633 1137.5713L222.03351 1137.432C198.4225 1129.0621 184.39032 1104.7789 188.92847 1080.1427 193.67412 1054.3803 182.06443 1028.3555 159.7237 1014.6763L159.46207 1014.51608C138.09363 1001.4321 129.41652 974.749 139.00208 951.5992 149.02753 927.38687 143.08846 899.50009 124.06743 881.4738L123.96491 881.3767C105.76493 864.12857 102.82701 836.19949 117.039608 815.5418 131.90653 793.93307 131.90653 765.39389 117.039608 743.78518 102.82701 723.1275 105.76493 695.19839 123.96491 677.95028L124.06743 677.8531C143.08846 659.82687 149.02753 631.94 139.00208 607.7277 129.41652 584.5778 138.09363 557.8947 159.46207 544.81088L159.7237 544.6506C182.06443 530.9714 193.67412 504.9466 188.92847 479.18409 184.39032 454.5479 198.4225 430.26484 222.03351 421.8949L222.42633 421.7556C247.12143 413.0014 263.89247 389.964 264.63667 363.77369 265.34843 338.72407 284.12495 317.88923 308.96586 314.58494L309.41795 314.5248C335.4081 311.0677 356.61228 292.01368 362.81809 266.53959 368.7545 242.17142 391.4639 225.68675 416.47224 227.59226L416.88938 227.62404C443.0611 229.6182 467.7817 215.37387 479.181 191.73091 490.08638 169.1124 515.74856 157.6967 539.85 164.74269L540.14529 164.82903C565.372 172.204 592.5423 163.3935 608.6406 142.61806 624.0418 122.74238 651.548 116.901149 673.6973 128.80255L673.8213 128.86917C697.0036 141.32558 725.44479 138.34247 745.5379 121.34704 764.76 105.08836 792.9131 105.08836 812.1352 121.34704Z"
         id="path9" />
    </clipPath>
    <clipPath
       id="clip_10">
      <path
         transform="matrix(.24,0,0,.24,24.72,26.159998)"
         d="M0 0H1352V1350H0Z"
         id="path10" />
    </clipPath>
    <clipPath
       id="clip_11">
      <path
         transform="matrix(.24,0,0,.24,0,.96)"
         d="M92.355129 93.18199H1463.8634V1464.6903H92.355129Z"
         id="path11" />
    </clipPath>
    <clipPath
       id="clip_12">
      <path
         transform="matrix(.24,0,0,.24,0,.96)"
         d="M92.355129 93.181987H1465.3069V1466.1338H92.355129Z"
         id="path12" />
    </clipPath>
    <clipPath
       id="clip_13">
      <path
         transform="matrix(.24,0,0,.24,0,.96)"
         d="M812.1294 121.3468C832.2224 138.3421 860.66329 141.32518 883.84536 128.86887L883.96939 128.80226C906.1185 116.90095 933.6245 122.74213 949.0256 142.61765 965.1238 163.39292 992.2938 172.20334 1017.5203 164.82845L1017.8156 164.74211C1041.9169 157.69617 1067.579 169.11176 1078.4841 191.7301 1089.8834 215.3729 1114.6038 229.6171 1140.7753 227.62296L1141.1924 227.59116C1166.2006 225.68567 1188.9097 242.17023 1194.8462 266.53819 1201.0519 292.01206 1222.2559 311.0659 1248.2459 314.52305L1248.6975 314.58314C1273.5382 317.8874 1292.3145 338.7221 1293.0261 363.77146 1293.7702 389.96153 1310.541 412.9987 1335.236 421.7527L1335.6303 421.89247C1359.2411 430.26216 1373.2731 454.54508 1368.7348 479.1809 1363.9889 504.94328 1375.5983 530.96798 1397.9387 544.6472L1398.1997 544.80709C1419.5679 557.891 1428.245 584.5738 1418.6598 607.7236 1408.6347 631.93569 1414.5739 659.82217 1433.5947 677.8482L1433.6974 677.94558C1451.8972 695.19357 1454.8351 723.1224 1440.6227 743.7799 1425.756 765.3884 1425.756 793.92739 1440.6227 815.53598 1454.8351 836.1935 1451.8972 864.12228 1433.6974 881.37026L1433.5947 881.46768C1414.5739 899.4936 1408.6347 927.3801 1418.6598 951.5923 1428.245 974.74209 1419.5679 1001.42477 1398.1997 1014.5088L1397.9387 1014.6685C1375.5983 1028.3478 1363.9889 1054.3726 1368.7348 1080.1348 1373.2731 1104.7706 1359.2411 1129.0536 1335.6303 1137.4234L1335.236 1137.5631C1310.541 1146.317 1293.7702 1169.3543 1293.0261 1195.5443 1292.3145 1220.5936 1273.5382 1241.4285 1248.6975 1244.7327L1248.2454 1244.7927C1222.2556 1248.2499 1201.0519 1267.3035 1194.8462 1292.7771 1188.9097 1317.1449 1166.2008 1333.6293 1141.1928 1331.7239L1140.776 1331.6921C1114.6041 1329.698 1089.8834 1343.9426 1078.4841 1367.5859 1067.579 1390.2046 1041.9165 1401.6204 1017.81509 1394.574L1017.51998 1394.4878C992.2937 1387.1127 965.1238 1395.9229 949.0256 1416.6979 933.62448 1436.5733 906.1186 1442.4144 883.9694 1430.5133L883.8455 1430.4467C860.6633 1417.9905 832.2224 1420.9736 812.1294 1437.969 792.9074 1454.2276 764.7546 1454.2276 745.5326 1437.969 725.4396 1420.9736 696.9987 1417.9905 673.8165 1430.4467L673.69259 1430.5133C651.54336 1442.4144 624.03756 1436.5733 608.6365 1416.6979 592.53829 1395.9229 565.3683 1387.1127 540.142 1394.4878L539.847 1394.574C515.7455 1401.6204 490.08308 1390.2046 479.17787 1367.5859 467.7787 1343.9426 443.0579 1329.698 416.886 1331.6921L416.4692 1331.7239C391.46128 1333.6293 368.75227 1317.1449 362.81593 1292.7771 356.61015 1267.3035 335.40635 1248.2499 309.4166 1244.7927L308.9641 1244.7327C284.1234 1241.4285 265.34706 1220.5936 264.63526 1195.5443 263.89109 1169.3541 247.12018 1146.317 222.42527 1137.5629L222.03244 1137.4236C198.42163 1129.0537 184.38957 1104.7708 188.9277 1080.1348 193.6733 1054.3724 182.06369 1028.3479 159.72315 1014.6688L159.46152 1014.5086C138.09325 1001.42477 129.41623 974.7419 139.00171 951.5923 149.02707 927.3801 143.08805 899.4935 124.06718 881.46749L123.96465 881.3703C105.764827 864.12228 102.82693 836.1935 117.039409 815.53598 131.9062 793.92739 131.9062 765.3884 117.039409 743.7799 102.82693 723.1224 105.764827 695.1935 123.96465 677.9455L124.06718 677.8483C143.08805 659.82229 149.02707 631.93569 139.00171 607.7236 129.41623 584.57388 138.09325 557.891 159.46152 544.8072L159.72315 544.647C182.06369 530.96786 193.6733 504.94328 188.9277 479.1809 184.38957 454.54496 198.42163 430.2621 222.03244 421.8922L222.42527 421.75297C247.12018 412.99879 263.89109 389.96159 264.63526 363.77146 265.34706 338.72209 284.1234 317.8874 308.9641 314.58314L309.4162 314.523C335.40617 311.0659 356.61015 292.01206 362.81593 266.53819 368.75227 242.17023 391.4615 225.68567 416.4696 227.59116L416.88676 227.62296C443.05827 229.6171 467.7787 215.3729 479.17787 191.7301 490.08314 169.11176 515.7451 157.69617 539.8464 164.74211L540.1417 164.82845C565.36819 172.20334 592.53829 163.39292 608.6365 142.61765 624.0375 122.74213 651.5434 116.90095 673.6926 128.80226L673.8166 128.86887C696.9987 141.32518 725.43966 138.3421 745.5326 121.3468 764.7546 105.08826 792.9074 105.08826 812.1294 121.3468Z"
         id="path13" />
    </clipPath>
    <clipPath
       id="clip_14">
      <path
         transform="matrix(.24,0,0,.24,9.599999,10.8)"
         d="M0 0H1478V1478H0Z"
         id="path14" />
    </clipPath>
    <clipPath
       id="clip_15">
      <path
         transform="matrix(.24,0,0,.24,9.599999,10.8)"
         d="M116.91737 116.74423H1360.7556V1360.5825H116.91737Z"
         id="path15" />
    </clipPath>
    <clipPath
       id="clip_16">
      <path
         transform="matrix(.24,0,0,.24,9.599999,10.8)"
         d="M738.8365 116.74423C395.36006 116.74423 116.91737 395.18693 116.91737 738.6633 116.91737 1082.1398 395.36006 1360.5825 738.8365 1360.5825 1082.313 1360.5825 1360.7556 1082.1398 1360.7556 738.6633 1360.7556 395.18693 1082.313 116.74423 738.8365 116.74423Z"
         id="path16" />
    </clipPath>
    <clipPath
       id="clip_17">
      <path
         transform="matrix(.24,0,0,.24,37.44,38.64)"
         d="M0 0H1245V1245H0Z"
         id="path17" />
    </clipPath>
    <clipPath
       id="clip_18">
      <path
         transform="matrix(.24,0,0,.24,9.599999,10.8)"
         d="M116.91737 116.74423H1360.513V1360.3399H116.91737Z"
         id="path18" />
    </clipPath>
    <clipPath
       id="clip_19">
      <path
         transform="matrix(.24,0,0,.24,9.599999,10.8)"
         d="M116.91737 116.74423H1360.7351V1360.562H116.91737Z"
         id="path19" />
    </clipPath>
    <clipPath
       id="clip_20">
      <path
         transform="matrix(.24,0,0,.24,9.599999,10.8)"
         d="M738.82626 116.74423C395.35548 116.74423 116.91737 395.1823 116.91737 738.6531 116.91737 1082.1239 395.35548 1360.562 738.82626 1360.562 1082.297 1360.562 1360.7351 1082.1239 1360.7351 738.6531 1360.7351 395.1823 1082.297 116.74423 738.82626 116.74423Z"
         id="path20" />
    </clipPath>
    <clipPath
       id="clip_21">
      <path
         transform="matrix(.24,0,0,.24,9.599999,10.8)"
         d="M115.65671 148.09024 1329.4097 115.48305 1362.0169 1329.236 148.2639 1361.8432 115.65671 148.09024Z"
         id="path21" />
    </clipPath>
    <clipPath
       id="clip_22">
      <path
         transform="matrix(.24,0,0,.24,9.599999,10.8)"
         d="M722.5332 131.78665C387.36457 140.79088 122.95608 419.7981 131.9603 754.9667 140.96454 1090.1353 419.97178 1354.5438 755.1404 1345.5396 1090.309 1336.5353 1354.7175 1057.5281 1345.7133 722.3595 1336.709 387.19093 1057.7018 122.78242 722.5332 131.78665Z"
         id="path22" />
    </clipPath>
    <clipPath
       id="clip_23">
      <path
         transform="matrix(.24,0,0,.24,38.879999,40.079999)"
         d="M0 0H1233V1233H0Z"
         id="path23" />
    </clipPath>
    <clipPath
       id="clip_24">
      <path
         transform="matrix(.24,0,0,.24,0,0)"
         d="M0 0H1562.5V1562.5H0Z"
         id="path24" />
    </clipPath>
    <clipPath
       id="clip_25">
      <path
         transform="matrix(.24,0,0,.24,0,0)"
         d="M0 0H1562.5V1562.5H0Z"
         id="path25" />
    </clipPath>
    <clipPath
       id="clip_26">
      <path
         transform="matrix(.24,0,0,.24,0,0)"
         d="M61.354536 735.22897 1100.0236 838.0906 1084.9331 990.47018 46.264059 887.6085 61.354536 735.22897Z"
         id="path26" />
    </clipPath>
    <clipPath
       id="clip_27">
      <path
         transform="matrix(.24,0,0,.24,0,0)"
         d="M61.354536 735.22897 1100.0236 838.0906 1084.9331 990.47018 46.264059 887.6085 61.354536 735.22897Z"
         id="path27" />
    </clipPath>
    <clipPath
       id="clip_28">
      <path
         transform="matrix(.24,0,0,.24,0,0)"
         d="M0 0H1562.5V1562.5H0Z"
         id="path28" />
    </clipPath>
    <clipPath
       id="clip_29">
      <path
         transform="matrix(.24,0,0,.24,0,0)"
         d="M0 0H1562.5V1562.5H0Z"
         id="path29" />
    </clipPath>
    <clipPath
       id="clip_30">
      <path
         transform="matrix(.24,0,0,.24,0,0)"
         d="M469.3627 845.52816 1506.4513 727.794 1523.7236 879.9417 486.63508 997.6759 469.3627 845.52816Z"
         id="path30" />
    </clipPath>
    <clipPath
       id="clip_31">
      <path
         transform="matrix(.24,0,0,.24,0,0)"
         d="M469.3627 845.52816 1506.4513 727.794 1523.7236 879.9417 486.63508 997.6759 469.3627 845.52816Z"
         id="path31" />
    </clipPath>
    <clipPath
       id="clip_32">
      <path
         transform="matrix(.24,0,0,.24,0,0)"
         d="M0 0H1562.5V1562.5H0Z"
         id="path32" />
    </clipPath>
    <clipPath
       id="clip_33">
      <path
         transform="matrix(.24,0,0,.24,0,0)"
         d="M0 0H1562.5V1562.5H0Z"
         id="path33" />
    </clipPath>
    <clipPath
       id="clip_34">
      <path
         transform="matrix(.24,0,0,.24,0,0)"
         d="M395.08854 399.9154H1162.5846V1167.4114H395.08854Z"
         id="path34" />
    </clipPath>
    <clipPath
       id="clip_35">
      <path
         transform="matrix(.24,0,0,.24,0,0)"
         d="M797.7462 409.81855C809.15676 419.4699 825.30789 421.16395 838.47268 414.0902L838.543 414.05238C851.1212 407.2938 866.74148 410.61094 875.4874 421.89793 884.6294 433.6959 900.05886 438.6992 914.38467 434.5111L914.55239 434.46208C928.239 430.4608 942.81216 436.94355 949.005 449.78816 955.4785 463.21455 969.51687 471.3036 984.3793 470.17115L984.6161 470.1531C998.8179 469.07099 1011.714 478.4323 1015.0852 492.2705 1018.6094 506.73677 1030.6508 517.5571 1045.4102 519.5204L1045.6666 519.5545C1059.7733 521.43099 1070.436 533.2627 1070.8402 547.4878 1071.2627 562.3608 1080.7866 575.44326 1094.8106 580.4145L1095.0344 580.4939C1108.4426 585.2469 1116.4113 599.0368 1113.834 613.0271 1111.1389 627.65719 1117.7317 642.43618 1130.4185 650.20449L1130.5667 650.29519C1142.7013 657.72537 1147.6289 672.8781 1142.1857 686.02456 1136.4926 699.7742 1139.8654 715.61056 1150.667 725.8472L1150.7252 725.9025C1161.0607 735.6974 1162.729 751.55776 1154.6581 763.2888 1146.2155 775.56008 1146.2155 791.76687 1154.6581 804.038 1162.729 815.7691 1161.0607 831.62948 1150.7252 841.4243L1150.667 841.4796C1139.8654 851.7163 1136.4926 867.5526 1142.1857 881.30239 1147.6289 894.4487 1142.7013 909.60147 1130.5667 917.0317L1130.4185 917.1224C1117.7317 924.8907 1111.1389 939.66976 1113.834 954.2997 1116.4113 968.29006 1108.4426 982.07998 1095.0344 986.833L1094.8106 986.91238C1080.7866 991.8836 1071.2627 1004.96609 1070.8402 1019.83908 1070.436 1034.0642 1059.7733 1045.896 1045.6666 1047.7723L1045.4099 1047.8064C1030.6506 1049.7698 1018.6094 1060.59 1015.0852 1075.0562 1011.714 1088.8942 998.818 1098.2554 984.61636 1097.1734L984.37966 1097.1553C969.51699 1096.023 955.4785 1104.112 949.005 1117.5388 942.81216 1130.3836 928.2388 1136.8665 914.552 1132.865L914.3844 1132.8159C900.05886 1128.6277 884.6294 1133.6309 875.4874 1145.4287 866.7414 1156.7157 851.1212 1160.0328 838.5431 1153.2744L838.4727 1153.2366C825.30789 1146.1629 809.15676 1147.8569 797.7462 1157.5083 786.8303 1166.7413 770.8428 1166.7413 759.9269 1157.5083 748.51638 1147.8569 732.36526 1146.1629 719.20046 1153.2366L719.13 1153.2744C706.5518 1160.0328 690.93167 1156.7157 682.18569 1145.4287 673.0437 1133.6309 657.61428 1128.6277 643.2887 1132.8159L643.12118 1132.865C629.4343 1136.8665 614.86099 1130.3836 608.6681 1117.5388 602.19467 1104.112 588.15609 1096.023 573.29348 1097.1553L573.05679 1097.1734C558.8551 1098.2554 545.959 1088.8942 542.5879 1075.0562 539.0637 1060.59 527.0224 1049.7698 512.2632 1047.8064L512.0062 1047.7723C497.8996 1045.896 487.23677 1034.0642 486.83259 1019.83908 486.40995 1004.96609 476.88603 991.88357 462.86216 986.91226L462.63908 986.8331C449.23085 982.08 441.26228 968.2901 443.8394 954.2997 446.53434 939.6697 439.94145 924.89077 427.25459 917.12258L427.106 917.03158C414.97129 909.60147 410.04374 894.44869 415.48719 881.30239 421.18043 867.5526 417.80775 851.71627 407.00608 841.4795L406.94786 841.4244C396.61247 831.62948 394.94407 815.7691 403.0151 804.038 411.45774 791.76687 411.45774 775.56 403.0151 763.2888 394.94407 751.55776 396.61247 735.6974 406.94786 725.90249L407.00608 725.8473C417.80775 715.6106 421.18043 699.7742 415.48719 686.02456 410.04374 672.8782 414.97129 657.72537 427.106 650.2953L427.25459 650.2043C439.94145 642.4361 446.53434 627.65719 443.8394 613.0271 441.26228 599.03677 449.23085 585.2468 462.63908 580.4937L462.86216 580.4147C476.88603 575.4433 486.40995 562.3608 486.83259 547.4878 487.23677 533.2627 497.8996 521.43099 512.0062 519.5545L512.263 519.5204C527.0223 517.5571 539.0637 506.73677 542.5879 492.2705 545.959 478.4323 558.8552 469.07099 573.057 470.1531L573.2939 470.17115C588.15628 471.3036 602.19467 463.21455 608.6681 449.78816 614.86099 436.94355 629.4341 430.4608 643.1208 434.46208L643.28848 434.5111C657.61428 438.6992 673.0437 433.6959 682.18569 421.89793 690.93167 410.61094 706.5519 407.2938 719.13009 414.05238L719.20046 414.0902C732.36526 421.16395 748.5164 419.4699 759.9269 409.81855 770.8428 400.58555 786.8303 400.58555 797.7462 409.81855Z"
         id="path35" />
    </clipPath>
    <clipPath
       id="clip_36">
      <path
         transform="matrix(.24,0,0,.24,94.799999,96)"
         d="M0 0H768V767H0Z"
         id="path36" />
    </clipPath>
    <clipPath
       id="clip_37">
      <path
         transform="matrix(.24,0,0,.24,0,0)"
         d="M0 0H1562.5V1562.5H0Z"
         id="path37" />
    </clipPath>
    <clipPath
       id="clip_38">
      <path
         transform="matrix(.24,0,0,.24,0,0)"
         d="M0 0H1562.5V1562.5H0Z"
         id="path38" />
    </clipPath>
    <clipPath
       id="clip_39">
      <path
         transform="matrix(.24,0,0,.24,0,0)"
         d="M638.68228 433.17533 989.959 469.25727 924.18136 1109.638 572.90457 1073.556 638.68228 433.17533Z"
         id="path39" />
    </clipPath>
    <clipPath
       id="clip_40">
      <path
         transform="matrix(.24,0,0,.24,0,0)"
         d="M638.68228 433.17533 989.959 469.25727 924.18136 1109.638 572.90457 1073.556 638.68228 433.17533Z"
         id="path40" />
    </clipPath>
    <clipPath
       id="clip_41">
      <path
         transform="matrix(.24,0,0,.24,0,0)"
         d="M638.68228 433.17533 989.9591 469.25727 924.1814 1109.638 572.90457 1073.556 638.68228 433.17533Z"
         id="path41" />
    </clipPath>
    <clipPath
       id="clip_42">
      <path
         transform="matrix(.24,0,0,.24,0,0)"
         d="M0 0H1562.5V1562.5H0Z"
         id="path42" />
    </clipPath>
    <clipPath
       id="clip_43">
      <path
         transform="matrix(.24,0,0,.24,0,0)"
         d="M0 0H1562.5V1562.5H0Z"
         id="path43" />
    </clipPath>
    <clipPath
       id="clip_44">
      <path
         transform="matrix(.24,0,0,.24,0,0)"
         d="M690.9972 839.82839 856.00857 854.0724 845.5271 975.49588 680.51577 961.25186 690.9972 839.82839Z"
         id="path44" />
    </clipPath>
    <clipPath
       id="clip_45">
      <path
         transform="matrix(.24,0,0,.24,0,0)"
         d="M690.9972 839.82839 856.00857 854.0724 845.5271 975.49588 680.51577 961.25186 690.9972 839.82839Z"
         id="path45" />
    </clipPath>
    <clipPath
       id="clip_46">
      <path
         transform="matrix(.24,0,0,.24,0,0)"
         d="M0 0H1562.5V1562.5H0Z"
         clip-rule="evenodd"
         id="path46" />
    </clipPath>
    <clipPath
       id="clip_47">
      <path
         transform="matrix(.24,0,0,.24,46.32,43.2)"
         d="M0 0H1159V551H0Z"
         clip-rule="evenodd"
         id="path47" />
    </clipPath>
    <clipPath
       id="clip_48">
      <path
         transform="matrix(.24,0,0,.24,59.039999,223.2)"
         d="M0 0H1052V438H0Z"
         clip-rule="evenodd"
         id="path48" />
    </clipPath>
    <clipPath
       id="clip_49">
      <path
         transform="matrix(.24,0,0,.24,40.8,185.04)"
         d="M0 0H213V124H0Z"
         clip-rule="evenodd"
         id="path49" />
    </clipPath>
    <clipPath
       id="clip_50">
      <path
         transform="matrix(.24,0,0,.24,285.12,185.28)"
         d="M0 0H206V123H0Z"
         clip-rule="evenodd"
         id="path50" />
    </clipPath>
    <inkscape:path-effect
       effect="fillet_chamfer"
       id="path-effect4"
       is_visible="true"
       lpeversion="1"
       nodesatellites_param="F,0,0,1,0,0,0,1 @ F,0,0,1,0,4.9653405,0,1 @ F,0,0,1,0,5.7456846,0,1 @ F,0,0,1,0,0,0,1"
       radius="0"
       unit="px"
       method="auto"
       mode="F"
       chamfer_steps="1"
       flexible="false"
       use_knot_distance="true"
       apply_no_radius="true"
       apply_with_radius="true"
       only_selected="false"
       hide_knots="false" />
  </defs>
  <g
     id="g164">
    <g
       clip-path="url(#clip_3)"
       id="g79"
       inkscape:transform-center-x="25.813529"
       inkscape:transform-center-y="-14.549397">
      <g
         id="g65">
        <g
           clip-path="url(#clip_4)"
           id="g64">
          <g
             clip-path="url(#clip_5)"
             id="g56">
            <g
               clip-path="url(#clip_6)"
               id="g55">
              <g
                 id="g54">
                <g
                   clip-path="url(#clip_7)"
                   id="g53">
                  <path
                     transform="matrix(1.307438,0.15288045,-0.15288045,1.307438,39.13732,1.1585178)"
                     d="M 0,0 H 256 V 256 H 0 Z"
                     fill="#6b4623"
                     id="path53" />
                </g>
              </g>
            </g>
          </g>
          <g
             clip-path="url(#clip_8)"
             id="g60">
            <g
               clip-path="url(#clip_9)"
               id="g59">
              <g
                 id="g58">
                <g
                   clip-path="url(#clip_10)"
                   id="g57">
                  <path
                     transform="matrix(1.2871527,0,0,1.2871527,22.16523,23.323676)"
                     d="M 0,0 H 256 V 256 H 0 Z"
                     fill="#6b4623"
                     id="path56" />
                </g>
              </g>
            </g>
          </g>
          <g
             clip-path="url(#clip_11)"
             id="g63">
            <g
               clip-path="url(#clip_12)"
               id="g62">
              <g
                 clip-path="url(#clip_13)"
                 id="g61">
                <path
                   transform="matrix(0.85275128,0,0,0.85275128,22.16523,23.323676)"
                   stroke-width="3.51802"
                   stroke-linecap="butt"
                   stroke-miterlimit="4"
                   stroke-linejoin="miter"
                   fill="none"
                   stroke="#efdeb6"
                   d="m 202.57469,7.9267628 c 5.65501,4.7831892 13.65947,5.6227532 20.18389,2.1170262 l 0.0349,-0.01875 c 6.23371,-3.3495285 13.97504,-1.705574 18.30954,3.88823 4.53072,5.847034 12.17751,8.326658 19.27729,6.25105 l 0.0832,-0.0243 c 6.78308,-1.983021 14.00545,1.229805 17.07465,7.595554 3.2082,6.654073 10.16558,10.662988 17.53134,10.101758 l 0.1174,-0.0089 c 7.03833,-0.536286 13.42966,4.103154 15.10043,10.961323 1.74653,7.169418 7.71421,12.531971 15.0289,13.504951 l 0.12711,0.01691 c 6.99121,0.929959 12.27566,6.79372 12.47595,13.843669 0.20937,7.370979 4.92941,13.854611 11.87964,16.318351 l 0.11096,0.03934 c 6.64505,2.355582 10.59427,9.189812 9.31696,16.123372 -1.33569,7.25061 1.93171,14.57504 8.21927,18.42497 l 0.0734,0.045 c 6.01392,3.68235 8.45599,11.19203 5.75832,17.70735 -2.8215,6.8143 -1.14995,14.66272 4.2033,19.736 l 0.0289,0.0274 c 5.1222,4.8543 5.94906,12.71466 1.94909,18.52855 -4.18412,6.08155 -4.18412,14.1136 0,20.19515 3.99997,5.81391 3.17311,13.67425 -1.94909,18.52856 l -0.0289,0.0274 c -5.35325,5.07326 -7.0248,12.92169 -4.2033,19.73601 2.69767,6.51532 0.2556,14.02496 -5.75832,17.70736 l -0.0734,0.045 c -6.28756,3.84995 -9.55496,11.17438 -8.21927,18.42496 1.27731,6.93359 -2.67191,13.76782 -9.31696,16.12341 l -0.11096,0.0393 c -6.95023,2.46371 -11.67027,8.94736 -11.87964,16.31831 -0.20029,7.04994 -5.48474,12.91374 -12.47595,13.84368 l -0.12723,0.0169 c -7.31461,0.97297 -13.28225,6.33549 -15.02878,13.50483 -1.67077,6.85813 -8.06201,11.4975 -15.10031,10.96125 l -0.11731,-0.009 c -7.36587,-0.56124 -14.32335,3.44776 -17.53155,10.10202 -3.0692,6.36584 -10.29166,9.57873 -17.07483,7.59558 l -0.083,-0.0243 c -7.09973,-2.07569 -14.7465,0.40387 -19.27722,6.25082 -4.33451,5.59378 -12.07581,7.23773 -18.30952,3.88824 l -0.0349,-0.0187 c -6.52444,-3.50567 -14.52892,-2.6661 -20.18393,2.1171 -5.40988,4.57584 -13.33325,4.57584 -18.74313,0 -5.65501,-4.7832 -13.65947,-5.62277 -20.18391,-2.1171 l -0.0349,0.0187 c -6.23372,3.34949 -13.97503,1.70554 -18.30953,-3.88824 -4.53072,-5.84695 -12.17749,-8.32651 -19.27721,-6.25082 l -0.083,0.0243 c -6.78317,1.98315 -14.00566,-1.22974 -17.07484,-7.59558 C 105.65994,352.0165 98.70247,348.0075 91.3366,348.56874 l -0.1173,0.009 c -7.03828,0.53625 -13.42955,-4.10312 -15.10029,-10.96125 -1.74656,-7.16934 -7.714191,-12.53186 -15.0288,-13.50483 l -0.127352,-0.0169 C 53.97164,323.16474 48.687185,317.30094 48.48686,310.251 48.277418,302.88 43.557386,296.3964 36.607198,293.9326 l -0.110554,-0.0392 c -6.645075,-2.35561 -10.594288,-9.18987 -9.31707,-16.12346 1.335613,-7.25061 -1.931817,-14.57498 -8.219384,-18.42487 l -0.07363,-0.0451 c -6.013928,-3.68234 -8.456006,-11.19203 -5.75825,-17.7073 2.821559,-6.81432 1.150067,-14.66277 -4.203203,-19.73605 l -0.028853,-0.0273 C 3.7740513,216.97495 2.947204,209.11461 6.947192,203.3007 c 4.18414,-6.08155 4.18414,-14.11361 0,-20.19515 C 2.947204,177.29166 3.7740513,169.43129 8.896249,164.577 l 0.028853,-0.0274 c 5.35327,-5.07329 7.024762,-12.92175 4.203203,-19.73604 -2.697756,-6.5153 -0.255678,-14.025 5.75825,-17.70731 l 0.07363,-0.0451 c 6.287567,-3.84989 9.554997,-11.17428 8.219384,-18.42489 -1.277218,-6.93359 2.671995,-13.767812 9.31707,-16.123441 l 0.110554,-0.0392 C 43.557386,90.00987 48.277418,83.52623 48.48686,76.155239 48.687185,69.10529 53.97164,63.241537 60.962858,62.311578 l 0.127239,-0.01692 C 68.40476,61.32168 74.37245,55.959127 76.11901,48.789709 77.78975,41.93154 84.181079,37.2921 91.21941,37.828386 l 0.11741,0.0089 c 7.365759,0.56123 14.32312,-3.447685 17.53133,-10.101758 3.06921,-6.365749 10.29157,-9.578575 17.07467,-7.595554 l 0.0831,0.0243 c 7.0998,2.075608 14.74658,-0.404016 19.2773,-6.25105 4.3345,-5.593804 12.07582,-7.2377585 18.30954,-3.88823 l 0.0349,0.01875 c 6.52443,3.505727 14.5289,2.666163 20.1839,-2.1170262 5.40988,-4.575838 13.33325,-4.575838 18.74313,0 z"
                   id="path60" />
              </g>
            </g>
          </g>
        </g>
      </g>
      <g
         id="g78">
        <g
           clip-path="url(#clip_14)"
           id="g77">
          <g
             clip-path="url(#clip_15)"
             id="g69">
            <g
               clip-path="url(#clip_16)"
               id="g68">
              <g
                 id="g67">
                <g
                   clip-path="url(#clip_17)"
                   id="g66">
                  <path
                     transform="matrix(1.1660984,0,0,1.1660984,37.660169,38.818616)"
                     d="M 0,0 H 256 V 256 H 0 Z"
                     fill="#c23737"
                     id="path65" />
                </g>
              </g>
            </g>
          </g>
          <g
             clip-path="url(#clip_18)"
             id="g72">
            <g
               clip-path="url(#clip_19)"
               id="g71">
              <g
                 clip-path="url(#clip_20)"
                 id="g70">
                <path
                   transform="matrix(0.85275128,0,0,0.85275128,37.660169,38.818616)"
                   d="m 159.90238,8.59062 c -2.51788,0.225796 -5.02697,0.508056 -7.52726,0.846781 l -2.12527,-15.6878055 c 2.73679,-0.3707625 5.48295,-0.6796999 8.23853,-0.9268113 z m -14.98506,2.029568 c -2.47921,0.45101 -4.94581,0.957886 -7.39983,1.520628 l -3.53845,-15.4306015 c 2.68791,-0.6163768 5.38952,-1.1715455 8.10481,-1.6655064 z m -14.7282,3.377874 c -2.42403,0.673494 -4.83138,1.401768 -7.22205,2.184825 L 118.03925,1.138258 c 2.619,-0.85784114 5.25629,-1.6556766 7.91187,-2.3935066 z m -14.35584,4.703141 c -2.35132,0.890886 -4.68174,1.834967 -6.99125,2.832245 l -6.27597,-14.53397 c 2.52973,-1.0923724 5.08245,-2.126509 7.65815,-3.102408 z m -13.86886,5.989799 c -2.26104,1.101035 -4.49674,2.253108 -6.70708,3.456227 L 87.68883,14.242496 c 2.420449,-1.317478 4.86864,-2.579058 7.34459,-3.784741 z M 88.693668,31.915358 C 86.539447,33.217859 84.41505,34.568777 82.32047,35.9681 L 73.526149,22.804368 c 2.292791,-1.53175 4.618261,-3.010529 6.976411,-4.436335 z M 76.12721,40.311017 c -2.02969,1.492723 -4.025141,3.030682 -5.98635,4.613877 l -9.944,-12.318314 c 2.146193,-1.73252 4.32983,-3.415522 6.55091,-5.049004 z m -11.76169,9.49469 c -1.8882,1.669973 -3.73808,3.381703 -5.549635,5.135183 L 47.805425,43.565755 C 49.7875,41.647226 51.811517,39.77436 53.87748,37.947164 Z M 53.50328,60.319608 c -1.73115,1.83334 -3.42003,3.704451 -5.06664,5.613322 L 36.449178,55.592489 c 1.801652,-2.088623 3.649536,-4.135889 5.543637,-6.141793 z m -9.87424,11.446989 c -1.559352,1.981373 -3.07291,3.996333 -4.540664,6.044892 L 26.219471,68.5911 c 1.606229,-2.24182 3.262593,-4.4469 4.969084,-6.61523 z M 34.8251,84.05456 c -1.374014,2.113 -2.699114,4.25516 -3.975294,6.42649 L 17.20149,82.45935 c 1.39706,-2.37699 2.84764,-4.722011 4.351737,-7.03506 z m -7.658393,13.03116 c -1.176347,2.22675 -2.30122,4.47822 -3.374623,6.75439 L 9.473286,97.08762 c 1.175496,-2.492661 2.407335,-4.958222 3.695517,-7.39668 z m -6.44594,13.67118 c -0.967991,2.32116 -1.882571,4.66265 -2.743739,7.02447 L 3.1037589,112.35828 c 0.9433571,-2.58724 1.9452081,-5.15216 3.0055538,-7.69478 z m -5.175366,14.19868 c -0.751606,2.3963 -1.44844,4.80864 -2.0905,7.23703 l -15.3051832,-4.04666 c 0.7033703,-2.66027 1.46676087,-5.30302 2.29017164,-7.92825 z m -3.858623,14.60068 c -0.530617,2.45534 -1.005538,4.92267 -1.424764,7.40199 l -15.609539,-2.6394 c 0.459101,-2.71516 0.979236,-5.41736 1.5604051,-8.10661 z m -2.516821,14.89 c -0.306573,2.49721 -0.557002,5.00246 -0.751287,7.51574 l -15.78402,-1.22015 c 0.2125965,-2.75013 0.4866505,-5.49168 0.822163,-8.22464 z m -1.16492,15.06047 c -0.059654,1.8391 -0.089481,3.6806 -0.089481,5.52452 l 0.013391,2.15117 -15.8308107,0.0974 -0.013692,-2.24861 c 0,-2.01503 0.032602,-4.02762 0.097804,-6.03776 z m 0.186407,15.21228 c 0.143115,2.50572 0.341814,5.00409 0.596096,7.49509 l -15.7492669,1.6077 c -0.2782268,-2.72558 -0.4956207,-5.45893 -0.6521811,-8.20005 z m 1.538568,15.03144 c 0.368552,2.48677 0.79287,4.96243 1.272952,7.42701 l -15.5390455,3.02692 c -0.5257392,-2.69896 -0.9903945,-5.40998 -1.3939672,-8.13304 z m 2.889583,14.82382 c 0.593373,2.44609 1.241965,4.87693 1.945777,7.29257 l -15.1991277,4.42837 c -0.7710504,-2.64641 -1.4815727,-5.30935 -2.1315666,-7.98886 z m 4.224852,14.49875 c 0.814119,2.38368 1.682254,4.74795 2.604402,7.09282 l -14.7327882,5.79388 c -1.010172,-2.56868 -1.9611863,-5.15868 -2.8530432,-7.76997 z m 5.527601,14.05647 c 1.028042,2.30096 2.108192,4.57806 3.240452,6.8313 l -14.145588,7.10819 c -1.240076,-2.46781 -2.423048,-4.96166 -3.5489145,-7.48158 z m 6.783127,13.50021 c 1.23286,2.19908 2.515293,4.36979 3.847298,6.51216 l -13.444359,8.359 c -1.458274,-2.34542 -2.862271,-4.72192 -4.211998,-7.12946 z m 7.979302,12.83494 c 1.426647,2.0791 2.899841,4.12546 4.41959,6.1391 l -12.636163,9.53686 c -1.663301,-2.20382 -3.275612,-4.44345 -4.836931,-6.71881 z m 9.106273,12.06659 c 1.607926,1.94217 3.25896,3.84747 4.95311,5.71587 l -11.72783,10.63404 c -1.8535,-2.04415 -3.660036,-4.1289 -5.419615,-6.25427 z m 10.1562,11.20117 c 1.775655,1.78964 3.59039,3.53827 5.444204,5.24588 l -10.725747,11.64398 c -2.028437,-1.86847 -4.013947,-3.78166 -5.956539,-5.73953 z m 11.120509,10.24326 c 1.928611,1.62243 3.892371,3.20038 5.891261,4.73379 l -9.63588,12.56079 c -2.187672,-1.67825 -4.336552,-3.4049 -6.44665,-5.18004 z m 11.99392,9.20054 c 2.066731,1.44225 4.164139,2.83663 6.292201,4.1831 l -8.46477,13.37808 c -2.32886,-1.47355 -4.62455,-2.99978 -6.887063,-4.57862 z m 12.77124,8.0803 c 2.188381,1.24974 4.403141,2.44883 6.644271,3.5973 l -7.2199,14.08893 c -2.45374,-1.25743 -4.87877,-2.57037 -7.2751,-3.93884 z m 13.445871,6.89 c 2.29338,1.0466 4.60865,2.0402 6.94581,2.9808 l -5.91052,14.6864 c -2.55981,-1.0302 -5.09576,-2.1185 -7.60784,-3.2649 z m 14.01226,5.6395 c 2.3807,0.83434 4.77928,1.61397 7.19574,2.33886 l -4.54872,15.16357 c -2.64692,-0.79403 -5.27457,-1.6481 -7.88295,-2.56223 z m 14.46526,4.34048 c 2.45134,0.61535 4.91619,1.17456 7.3945,1.67761 l -3.14926,15.51471 c -2.71471,-0.55106 -5.41458,-1.1636 -8.09964,-1.8376 z m 14.80168,3.00741 c 2.49641,0.3902 5.00237,0.72379 7.51783,1.00071 l -1.73264,15.73605 c -2.75371,-0.3032 -5.49699,-0.66837 -8.22989,-1.09552 z m 15.02108,1.65691 c 2.51771,0.1635 5.04098,0.27073 7.56982,0.32164 l -0.3186,15.82786 c -2.76552,-0.0556 -5.52459,-0.17286 -8.2772,-0.35164 z m 15.20065,0.3045 c 2.52707,-0.0623 5.04733,-0.18074 7.56078,-0.35533 l 1.09715,15.79303 c -2.74903,0.19098 -5.50496,0.32053 -8.26783,0.3886 z m 15.06878,-1.04625 c 2.51246,-0.28827 5.01476,-0.63299 7.50693,-1.03418 l 2.51602,15.62989 c -2.72926,0.43934 -5.46875,0.81674 -8.21847,1.1322 z m 14.90999,-2.39825 c 2.47594,-0.5144 4.93782,-1.08475 7.38564,-1.7112 l 3.92483,15.33687 c -2.68214,0.68637 -5.37892,1.31122 -8.09034,1.87451 z m 14.64177,-3.74491 c 2.41424,-0.73623 4.81072,-1.52731 7.18941,-2.37326 l 5.3046,14.91596 c -2.60552,0.9266 -5.23093,1.79327 -7.87621,2.59994 z m 14.24066,-5.06311 c 2.33382,-0.95168 4.64557,-1.9563 6.93526,-3.01391 l 6.63852,14.37201 c -2.5077,1.15832 -5.03978,2.25869 -7.59624,3.30112 z m 13.71968,-6.33664 c 2.23671,-1.15911 4.4467,-2.36868 6.6299,-3.62874 l 7.91345,13.71139 c -2.39045,1.37961 -4.81021,2.70404 -7.25928,3.9732 z m 13.08983,-7.55456 c 2.12257,-1.35658 4.21397,-2.76071 6.2742,-4.2124 l 9.11877,12.9411 c -2.25534,1.58917 -4.5445,3.1261 -6.86752,4.61078 z m 12.35587,-8.70633 c 1.99227,-1.54269 3.94906,-3.12965 5.87035,-4.76085 l 10.24591,12.06838 c -2.10246,1.78492 -4.24362,3.52145 -6.42356,5.2095 z m 11.52367,-9.7836 c 1.8465,-1.7164 3.65326,-3.47315 5.42029,-5.27029 l 11.28844,11.0993 c -1.93346,1.9664 -3.91026,3.88852 -5.93041,5.76633 z m 10.59876,-10.77935 c 1.68561,-1.87592 3.32787,-3.78852 4.92685,-5.73777 l 12.23992,10.04034 c -1.7497,2.133 -3.5467,4.2258 -5.39101,6.27838 z m 9.58682,-11.68671 c 1.51095,-2.02099 2.97504,-4.07425 4.3923,-6.15992 l 13.09405,8.89771 c -1.5513,2.28292 -3.1537,4.53018 -4.80715,6.74176 z m 8.49469,-12.50022 c 1.32236,-2.14853 2.59515,-4.32559 3.81845,-6.53113 l 13.84424,7.67865 c -1.33893,2.41404 -2.73243,4.79746 -4.18045,7.15021 z m 7.32956,-13.214 c 1.12216,-2.25878 2.19226,-4.54158 3.21024,-6.84837 l 14.48352,6.3916 c -1.1146,2.5257 -2.28656,5.0258 -3.5159,7.50033 z m 6.1002,-13.82225 c 0.91185,-2.35003 1.7695,-4.71929 2.573,-7.1078 l 15.00484,5.04776 c -0.88024,2.61656 -1.81979,5.2121 -2.81874,7.78661 z m 4.8176,-14.31993 c 0.69316,-2.42009 1.331,-4.85531 1.91353,-7.30571 l 15.40185,3.66144 c -0.63824,2.68477 -1.33698,5.35253 -2.09619,8.00328 z m 3.495,-14.70361 c 0.46928,-2.46884 0.88264,-4.94832 1.24009,-7.43843 l 15.67047,2.24948 c -0.39146,2.72701 -0.84408,5.44206 -1.35788,8.14516 z m 2.1476,-14.97252 c 0.24328,-2.49391 0.43087,-4.99489 0.5628,-7.50294 l 15.80926,0.83163 c -0.14431,2.74345 -0.34956,5.47951 -0.61569,8.20815 z m 0.79168,-15.06613 0.005,-1.39647 c -2e-5,-2.07861 -0.0387,-4.16414 -0.11604,-6.25656 l 15.82031,-0.58469 c 0.0845,2.28731 0.12677,4.58824 0.12673,6.90283 l -0.005,1.39647 z m -0.55771,-15.18863 c -0.20578,-2.51488 -0.46783,-5.02155 -0.78617,-7.52002 l 15.70417,-2.00082 c 0.34842,2.73457 0.63519,5.47783 0.86038,8.22976 z m -1.91144,-14.99709 c -0.43075,-2.47889 -0.91735,-4.94598 -1.4598,-7.40126 l 15.45837,-3.41519 c 0.59396,2.68857 1.12689,5.3906 1.59879,8.10607 z m -3.26055,-14.75213 c -0.65358,-2.42687 -1.36188,-4.83743 -2.12498,-7.2317 l 15.08356,-4.80733 c 0.836,2.62303 1.61197,5.2638 2.32791,7.92233 z m -4.58844,-14.39124 c -0.87156,-2.35673 -1.79644,-4.69302 -2.7746,-7.00888 l 14.58356,-6.1599 c 1.07153,2.53683 2.08465,5.09607 3.03936,7.67772 z m -5.879,-13.91494 c -1.08328,-2.27021 -2.21808,-4.5158 -3.40436,-6.73678 l 13.96405,-7.45854 c 1.29874,2.43156 2.54144,4.890728 3.72807,7.37751 z M 318.8257,89.82603 c -1.28565,-2.16486 -2.62021,-4.30055 -4.00367,-6.40707 l 13.23255,-8.69046 c 1.51419,2.30556 2.97509,4.64349 4.38278,7.01379 z m -8.2961,-12.63202 c -1.47704,-2.04187 -2.99953,-4.04973 -4.5675,-6.02358 l 12.396,-9.846977 c 1.71595,2.160147 3.38208,4.357427 4.9984,6.591837 z m -9.40193,-11.83602 c -1.65507,-1.901221 -3.35233,-3.764593 -5.0918,-5.590113 l 11.46118,-10.920883 c 1.90305,1.997206 3.7601,4.036016 5.57115,6.116426 z M 290.699,54.413225 c -1.81944,-1.74527 -3.67711,-3.448675 -5.573,-5.110211 L 295.56028,37.39712 c 2.07412,1.81777 4.10669,3.681548 6.09766,5.59133 z M 279.32929,44.4489 c -1.96853,-1.574436 -3.97113,-3.1035 -6.00784,-4.587181 l 9.32145,-12.795885 c 2.22848,1.623368 4.41998,3.29666 6.5745,5.019876 z m -12.21945,-8.901074 c -2.10124,-1.390046 -4.23211,-2.73154 -6.3927,-4.024491 l 8.12934,-13.58448 c 2.36526,1.41543 4.6979,2.883941 6.99798,4.405534 z M 254.13799,27.78603 c -2.21633,-1.193308 -4.45767,-2.335384 -6.72405,-3.426231 l 6.86591,-14.264764 c 2.48188,1.194571 4.93629,2.445205 7.3632,3.7519 z m -13.6184,-6.553327 c -2.31312,-0.986248 -4.64683,-1.919228 -7.00115,-2.798937 l 5.54122,-14.829663 c 2.579,0.9636658 5.13534,1.985644 7.66904,3.0659349 z m -14.14976,-5.285645 c -2.39279,-0.771571 -4.80202,-1.488357 -7.22766,-2.150358 l 4.16815,-15.2725473 c 2.65721,0.7252004 5.29656,1.51045185 7.918,2.35575446 z m -14.56897,-3.97509 c -2.45456,-0.550995 -4.92145,-1.046181 -7.40068,-1.485559 l 2.7626,-15.588204 c 2.71522,0.4812003 5.41706,1.023551 8.10552,1.6270506 z M 196.93135,9.336716 C 194.432,9.009751 191.92424,8.739139 189.40805,8.524879 l 1.3432,-15.774025 c 2.75353,0.234469 5.49808,0.530637 8.23363,0.888504 z m -15.052,-1.283528 c -2.2785,-0.091755 -4.5612,-0.1376323 -6.8481,-0.1376323 -2.54182,0 -5.07832,0.056672 -7.60949,0.1700153 l -0.7082,-15.815263 c 2.76713,-0.123909 5.53969,-0.1858637 8.31769,-0.1858637 2.49932,0 4.99434,0.050152 7.48509,0.1504537 z"
                   fill="#f6f3ec"
                   id="path69"
                   style="display:inline" />
              </g>
            </g>
          </g>
          <g
             clip-path="url(#clip_21)"
             id="g76">
            <g
               clip-path="url(#clip_22)"
               id="g75">
              <g
                 id="g74">
                <g
                   clip-path="url(#clip_23)"
                   id="g73">
                  <path
                     transform="matrix(1.1378933,-0.03056924,0.03056924,1.1378933,37.35761,46.341657)"
                     d="M 0,0 H 256 V 256 H 0 Z"
                     fill="#c23737"
                     id="path72" />
                </g>
              </g>
            </g>
          </g>
        </g>
      </g>
    </g>
    <g
       clip-path="url(#clip_24)"
       id="g83">
      <g
         clip-path="url(#clip_25)"
         id="g82">
        <g
           clip-path="url(#clip_26)"
           id="g81">
          <g
             clip-path="url(#clip_27)"
             id="g80">
            <path
               transform="matrix(.52217248,.051711848,-.051711848,.52217248,14.72337,176.47229)"
               d="M476.92 69.34H0L15.59 31.729996 0 0H476.92L456.54 31.73 476.92 69.34Z"
               fill="#8d6640"
               id="path79" />
          </g>
        </g>
      </g>
    </g>
    <g
       clip-path="url(#clip_28)"
       id="g87">
      <g
         clip-path="url(#clip_29)"
         id="g86">
        <g
           clip-path="url(#clip_30)"
           id="g85">
          <g
             clip-path="url(#clip_31)"
             id="g84">
            <path
               transform="matrix(.52137789,-.059188755,.059188755,.52137789,112.64902,202.94408)"
               d="M476.92 69.34H0L15.59 31.729996 0 0H476.92L456.54 31.73 476.92 69.34Z"
               fill="#8d6640"
               id="path83" />
          </g>
        </g>
      </g>
    </g>
    <g
       clip-path="url(#clip_32)"
       id="g93">
      <g
         clip-path="url(#clip_33)"
         id="g92">
        <g
           clip-path="url(#clip_34)"
           id="g91">
          <g
             clip-path="url(#clip_35)"
             id="g90">
            <g
               id="g89">
              <g
                 clip-path="url(#clip_36)"
                 id="g88">
                <path
                   transform="matrix(.7309486,0,0,.7309486,93.359348,94.5178)"
                   d="M0 0H256V256H0Z"
                   fill="#6b4623"
                   id="path87" />
              </g>
            </g>
          </g>
        </g>
      </g>
    </g>
    <g
       id="g1"
       transform="matrix(2.1032828,0.27491155,-0.27491155,2.1032828,111.94283,-70.18833)">
      <ellipse
         style="fill:#bdffff;fill-opacity:1;stroke:#000000;stroke-width:0;paint-order:stroke fill markers"
         id="path8-3"
         cx="52.174126"
         cy="103.82257"
         rx="18.267515"
         ry="17.347569" />
      <rect
         style="fill:#5ee5e6;fill-opacity:1;stroke:#000000;stroke-width:0;paint-order:stroke fill markers"
         id="rect15"
         width="2.2341566"
         height="35.220821"
         x="51.122753"
         y="77.538376" />
      <path
         id="path14-0"
         style="fill:#e5ddd9;fill-opacity:0.798055;stroke:#000000;stroke-width:0;paint-order:stroke fill markers"
         d="m 52.899878,94.451417 c -3.284444,-5.1e-5 -6.207623,1.889141 -7.28039,4.705164 -0.642739,-0.236437 -1.322218,-0.357383 -2.007053,-0.357275 -3.200194,-2.29e-4 -5.796053,2.586884 -5.811018,5.783934 h 29.191252 c -0.07767,-3.14192 -2.649061,-5.665256 -5.809409,-5.66531 -0.355141,-8.1e-5 -0.709535,0.03241 -1.058742,0.09695 -1.118256,-2.742684 -4.000995,-4.56359 -7.22464,-4.563504 z" />
      <path
         d="m 15.901772,99.748596 2.891584,36.316374 a 5.3935358,5.3935358 42.814633 0 0 5.359419,4.96542 l 30.686501,0.0973 a 6.1789902,6.1789902 137.2627 0 0 6.180834,-5.71096 l 2.719279,-35.799718 z"
         style="fill:#ffd088;fill-opacity:1;stroke:#000000;stroke-width:0;paint-order:stroke fill markers"
         id="path4-6"
         sodipodi:nodetypes="ccccc"
         inkscape:path-effect="#path-effect4"
         inkscape:original-d="m 15.901772,99.748596 3.285687,41.266054 41.397473,0.13126 3.154457,-41.528898 z"
         transform="matrix(0.74450754,0,0,1,22.330298,8.2795215)" />
      <rect
         style="fill:#efa11a;fill-opacity:1;stroke:#000000;stroke-width:0;paint-order:stroke fill markers"
         id="rect14"
         width="42.821487"
         height="6.7118092"
         x="30.31992"
         y="104.42622"
         rx="3.037267"
         ry="5.9491029" />
      <rect
         style="fill:#ef1c1a;fill-opacity:1;stroke:#000000;stroke-width:0;paint-order:stroke fill markers"
         id="rect16"
         width="25.232828"
         height="16.16478"
         x="39.032024"
         y="121.30156"
         rx="2.7637689"
         ry="5.4202938" />
      <path
         sodipodi:type="star"
         style="fill:#fbff0d;fill-opacity:1;stroke:#000000;stroke-width:0;paint-order:stroke fill markers"
         id="path10-7"
         inkscape:flatsided="false"
         sodipodi:sides="5"
         sodipodi:cx="20.501673"
         sodipodi:cy="80.03537"
         sodipodi:r1="6.1557784"
         sodipodi:r2="2.2160802"
         sodipodi:arg1="1.2895641"
         sodipodi:arg2="1.9178826"
         inkscape:rounded="0.02"
         inkscape:randomized="2.7755576e-17"
         d="m 22.210145,85.949313 c -0.08749,0.02527 -2.376658,-3.799036 -2.462292,-3.830013 -0.08563,-0.03098 -4.291656,1.443828 -4.342728,1.368433 -0.05107,-0.0754 2.878671,-3.434304 2.881669,-3.525319 0.003,-0.09101 -2.699356,-3.635439 -2.643434,-3.70731 0.05592,-0.07187 4.155775,1.67652 4.243263,1.651246 0.08749,-0.02527 2.623361,-3.690653 2.708995,-3.659676 0.08563,0.03098 -0.31026,4.47045 -0.259188,4.545845 0.05107,0.0754 4.320682,1.354491 4.317684,1.445506 -0.003,0.09102 -4.347526,1.08637 -4.403449,1.15824 -0.05592,0.07187 0.04697,4.527774 -0.04052,4.553048 z"
         transform="matrix(0.86907767,-0.29317082,0.30617073,0.83217697,9.2711308,68.836655)" />
    </g>
    <g
       clip-path="url(#clip_46)"
       id="g161"
       inkscape:transform-center-x="25.280784"
       inkscape:transform-center-y="-12.217496"
       transform="translate(-1.40801,-0.46933667)">
      <g
         id="g141">
        <g
           clip-path="url(#clip_47)"
           id="g140"
           style="display:inline">
          <path
             d="m 15.83769,41 c 0.47993,0 0.82897,-0.26178 1.00349,-0.69808 L 28.097721,10.458999 c -4.84293,0.4363 -8.638741,3.4904 -10.732981,10.296681 L 13.78708,32.36126 7.1116902,12.029679 c -0.17452,-0.52356 -0.47993,-0.69808 -0.95986,-0.69808 H 0.95986002 c -0.61082001,0 -0.91623002,0.39267 -0.69808001,1.00349 L 10.77661,40.30192 C 10.95113,40.73822 11.30017,41 11.7801,41 Z"
             id="text107"
             style="font-weight:bold;font-size:43.63px;font-family:Batangas;fill:#f6f3ec"
             transform="matrix(0.19514375,-0.86896136,0.86896136,0.19514375,46.423467,164.80094)"
             aria-label="V" />
          <path
             d="m 5.0610801,17.963359 c 2.3560201,0 4.7993001,-1.17801 4.7993001,-3.53403 0,-2.31239 -2.44328,-3.53403 -4.7993001,-3.53403 -2.39965,0 -4.79930009,1.22164 -4.79930009,3.53403 0,2.35602 2.39965009,3.53403 4.79930009,3.53403 z M 7.7661402,41 c 0.56719,0 0.8726,-0.30541 0.8726,-0.8726 V 29.61257 c 0,-4.49389 -2.31239,-7.4171 -6.5445001,-8.2897 V 40.1274 c 0,0.56719 0.30541,0.8726 0.8726,0.8726 z"
             id="text109"
             style="font-weight:bold;font-size:43.63px;font-family:Batangas;fill:#f6f3ec"
             transform="matrix(0.3202809,-0.8310204,0.8310204,0.3202809,53.423936,137.4045)"
             aria-label="i" />
          <path
             d="m 12.39092,21.06109 c -6.4572399,0 -11.21291,4.05759 -11.21291,10.34031 0,6.36998 4.5811501,10.29668 11.21291,10.29668 4.7993,0 8.595111,-2.09424 10.122161,-6.45724 0.21815,-0.61082 -0.13089,-1.00349 -0.74171,-1.00349 H 16.92844 c -0.47993,0 -0.74171,0.26178 -0.95986,0.74171 -0.52356,1.17801 -1.78883,2.05061 -3.70855,2.05061 -2.4432798,0 -3.9703298,-1.7452 -4.1448498,-4.40663 H 22.164041 c 0.56719,0 0.8726,-0.30541 0.8726,-0.8726 V 30.9651 c 0,-6.36998 -4.799301,-9.90401 -10.645721,-9.90401 z m -4.1884798,8.02792 c 0.370855,-2.09424 1.548865,-3.57766 3.9703298,-3.57766 2.31239,0 3.79581,1.48342 3.9267,3.57766 z"
             id="text111"
             style="font-weight:bold;font-size:43.63px;font-family:Batangas;fill:#f6f3ec"
             transform="matrix(0.42774336,-0.7811597,0.7811597,0.42774336,57.71975,125.69664)"
             aria-label="e" />
          <path
             d="m 10.73298,21.75917 v -8.289701 c -4.2321098,0.8726 -6.5444999,3.79581 -6.5444999,8.289701 H 1.39616 c -0.56718998,0 -0.87259999,0.30541 -0.87259999,0.8726 v 3.31588 c 0,0.56719 0.30541001,0.8726 0.87259999,0.8726 H 4.1884801 V 40.1274 c 0,0.56719 0.30541,0.8726 0.8726,0.8726 H 9.8603802 C 10.42757,41 10.73298,40.69459 10.73298,40.1274 V 26.82025 h 2.83595 c 0.56719,0 0.8726,-0.30541 0.8726,-0.8726 v -3.31588 c 0,-0.56719 -0.30541,-0.8726 -0.8726,-0.8726 z"
             id="text113"
             style="font-weight:bold;font-size:43.63px;font-family:Batangas;fill:#f6f3ec"
             transform="matrix(0.53988096,-0.70831027,0.70831027,0.53988096,70.29777,103.91844)"
             aria-label="t" />
          <path
             d="m 14.48516,21.06109 c -2.53054,0 -4.8865598,1.112565 -6.8717248,4.035775 C 6.5445002,23.15533 4.6684101,21.84643 2.0942401,21.32287 V 40.1274 c 0,0.56719 0.30541,0.8726 0.8726,0.8726 h 4.7993001 c 0.56719,0 0.8726,-0.30541 0.8726,-0.8726 v -9.969455 c 0.26178,-2.39965 1.7670148,-3.861255 3.6212898,-3.861255 2.05061,0 2.92321,1.26527 2.92321,3.53403 V 40.1274 c 0,0.56719 0.30541,0.8726 0.8726,0.8726 h 4.799301 c 0.56719,0 0.8726,-0.30541 0.8726,-0.8726 V 29.83072 c 0,-5.2356 -2.094241,-8.76963 -7.242581,-8.76963 z"
             id="text115"
             style="font-weight:bold;font-size:43.63px;font-family:Batangas;fill:#f6f3ec"
             transform="matrix(0.63809296,-0.62129887,0.62129887,0.63809296,80.46373,90.538349)"
             aria-label="n" />
          <path
             d="m 18.564565,24.878715 c -1.70157,-2.377835 -4.40663,-3.817625 -7.700695,-3.817625 -5.6718999,0 -9.5986,4.23211 -9.5986,10.29668 0,6.1082 3.9267001,10.34031 9.5986,10.34031 3.294065,0 5.999125,-1.43979 7.700695,-3.83944 1.068935,2.13787 2.901396,3.31588 5.431936,3.57766 V 21.32287 c -2.53054,0.26178 -4.363001,1.43979 -5.431936,3.555845 z M 12.87085,36.46248 c -2.66143,0 -4.5811498,-2.09424 -4.5811498,-5.06108 0,-2.96684 1.9197198,-5.06108 4.5811498,-5.06108 2.66143,0 4.58115,2.09424 4.58115,5.06108 0,2.96684 -1.91972,5.06108 -4.58115,5.06108 z"
             id="text117"
             style="font-weight:bold;font-size:43.63px;font-family:Batangas;fill:#f6f3ec"
             transform="matrix(0.7440572,-0.48944236,0.48944236,0.7440572,98.931598,73.002628)"
             aria-label="a" />
          <path
             d="m 26.919711,21.06109 c -2.901395,0 -5.01745,0.807155 -6.849911,3.032285 -1.243455,-2.421465 -3.599475,-3.032285 -5.71553,-3.032285 -2.552355,0 -5.1919698,1.287085 -7.0898748,3.4904 C 6.1736452,22.89355 4.4284451,21.8028 2.0942401,21.32287 V 40.1274 c 0,0.56719 0.30541,0.8726 0.8726,0.8726 h 4.7993001 c 0.56719,0 0.8726,-0.30541 0.8726,-0.8726 V 29.91798 c 0.239965,-2.246945 1.3743448,-3.62129 3.3595098,-3.62129 2.1815,0 2.92321,1.48342 2.92321,4.23211 v 9.5986 c 0,0.56719 0.30541,0.8726 0.8726,0.8726 h 4.799301 c 0.56719,0 0.8726,-0.30541 0.8726,-0.8726 v -9.5986 c 0,-2.74869 1.00349,-4.23211 3.35951,-4.23211 2.35602,0 2.96684,1.48342 2.96684,4.23211 v 9.5986 c 0,0.56719 0.30541,0.8726 0.8726,0.8726 h 4.7993 c 0.56719,0 0.8726,-0.30541 0.8726,-0.8726 V 28.3473 c 0,-4.10122 -2.39965,-7.28621 -7.4171,-7.28621 z"
             id="text119"
             style="font-weight:bold;font-size:43.63px;font-family:Batangas;fill:#f6f3ec"
             transform="matrix(0.8386708,-0.29967673,0.29967673,0.8386708,123.22153,57.198347)"
             aria-label="m" />
          <path
             d="m 12.39092,21.06109 c -6.4572399,0 -11.21291,4.05759 -11.21291,10.34031 0,6.36998 4.5811501,10.29668 11.21291,10.29668 4.7993,0 8.595111,-2.09424 10.122161,-6.45724 0.21815,-0.61082 -0.13089,-1.00349 -0.74171,-1.00349 H 16.92844 c -0.47993,0 -0.74171,0.26178 -0.95986,0.74171 -0.52356,1.17801 -1.78883,2.05061 -3.70855,2.05061 -2.4432798,0 -3.9703298,-1.7452 -4.1448498,-4.40663 H 22.164041 c 0.56719,0 0.8726,-0.30541 0.8726,-0.8726 V 30.9651 c 0,-6.36998 -4.799301,-9.90401 -10.645721,-9.90401 z m -4.1884798,8.02792 c 0.370855,-2.09424 1.548865,-3.57766 3.9703298,-3.57766 2.31239,0 3.79581,1.48342 3.9267,3.57766 z"
             id="text121"
             style="font-weight:bold;font-size:43.63px;font-family:Batangas;fill:#f6f3ec"
             transform="matrix(0.88506719,-0.09915106,0.09915106,0.88506719,159.09337,45.70149)"
             aria-label="e" />
          <path
             d="m 11.60558,41.69808 c 6.15183,0 9.729491,-2.57417 9.729491,-7.02443 0,-7.94066 -12.8708508,-4.93019 -12.8708508,-8.2897 0,-0.65445 0.65445,-1.26527 2.1814998,-1.26527 1.87609,0 2.79232,0.61082 3.31588,1.7452 0.21815,0.47993 0.52356,0.74171 1.00349,0.74171 h 4.66841 c 0.61082,0 0.916231,-0.34904 0.78534,-0.95986 -0.95986,-3.75218 -4.31937,-5.58464 -9.42408,-5.58464 -5.9336799,0 -9.11867,2.48691 -9.11867,6.19546 0,7.76614 12.87085,4.45026 12.87085,8.02792 0,1.09075 -0.95986,1.87609 -3.01047,1.87609 -1.17801,0 -3.5776598,-0.4363 -4.1012198,-2.48691 -0.13089,-0.52356 -0.39267,-0.82897 -0.91623,-0.82897 H 1.96335 c -0.56719,0 -0.91623,0.34904 -0.82897,0.91623 0.82897,4.84293 4.9301901,6.93717 10.4712,6.93717 z"
             id="text123"
             style="font-weight:bold;font-size:43.63px;font-family:Batangas;fill:#f6f3ec"
             transform="matrix(0.8885571,0.06034205,-0.06034205,0.8885571,184.83243,43.268095)"
             aria-label="s" />
          <path
             d="m 12.39092,21.06109 c -6.4572399,0 -11.21291,4.05759 -11.21291,10.34031 0,6.36998 4.5811501,10.29668 11.21291,10.29668 4.7993,0 8.595111,-2.09424 10.122161,-6.45724 0.21815,-0.61082 -0.13089,-1.00349 -0.74171,-1.00349 H 16.92844 c -0.47993,0 -0.74171,0.26178 -0.95986,0.74171 -0.52356,1.17801 -1.78883,2.05061 -3.70855,2.05061 -2.4432798,0 -3.9703298,-1.7452 -4.1448498,-4.40663 H 22.164041 c 0.56719,0 0.8726,-0.30541 0.8726,-0.8726 V 30.9651 c 0,-6.36998 -4.799301,-9.90401 -10.645721,-9.90401 z m -4.1884798,8.02792 c 0.370855,-2.09424 1.548865,-3.57766 3.9703298,-3.57766 2.31239,0 3.79581,1.48342 3.9267,3.57766 z"
             id="text125"
             style="font-weight:bold;font-size:43.63px;font-family:Batangas;fill:#f6f3ec"
             transform="matrix(0.86353626,0.21789898,-0.21789898,0.86353626,209.064,45.222658)"
             aria-label="e" />
          <path
             d="m 16.31762,41.34904 c 6.413611,0 12.129141,-3.53403 13.743451,-9.51134 0.17452,-0.61082 -0.17452,-0.95986 -0.78534,-0.95986 h -5.19197 c -0.47993,0 -0.78534,0.21815 -1.00349,0.69808 -1.00349,2.48691 -3.664921,3.83944 -6.762651,3.83944 -4.7993,0 -8.6823698,-3.40314 -8.6823698,-9.33682 0,-5.890051 3.8830698,-9.293191 8.6823698,-9.293191 3.0541,0 5.715531,1.35253 6.762651,3.795811 0.21815,0.47993 0.52356,0.69808 1.00349,0.69808 h 5.14834 c 0.61082,0 0.95986,-0.34904 0.78534,-0.959861 -1.65794,-5.89005 -7.15532,-9.46771 -13.656191,-9.46771 -8.2896998,0 -15.2705,5.84642 -15.2705,15.226871 0,9.24956 6.8062802,15.2705 15.22687,15.2705 z"
             id="text129"
             style="font-weight:bold;font-size:43.63px;font-family:Batangas;fill:#f6f3ec"
             transform="matrix(0.761073,0.46253953,-0.46253953,0.761073,246.07852,56.74328)"
             aria-label="C" />
          <path
             d="m 12.2164,41.69808 c 6.84991,0 10.951131,-4.23211 10.951131,-10.29668 0,-6.02094 -4.144851,-10.34031 -10.951131,-10.34031 -6.8499099,0 -10.99476,4.31937 -10.99476,10.34031 0,6.02094 4.1012201,10.29668 10.99476,10.29668 z m 0,-5.10471 c -2.9232098,0 -4.4938898,-2.26876 -4.4938898,-5.14834 0,-2.92321 1.61431,-5.27923 4.4938898,-5.27923 2.87958,0 4.45026,2.31239 4.45026,5.27923 0,2.92321 -1.57068,5.14834 -4.45026,5.14834 z"
             id="text131"
             style="font-weight:bold;font-size:43.63px;font-family:Batangas;fill:#f6f3ec"
             transform="matrix(0.646342,0.61271277,-0.61271277,0.646342,273.5655,74.439388)"
             aria-label="o" />
          <path
             d="m 13.65619,8.2774992 c -3.35951,0 -9.2495599,2.1814998 -9.2495599,10.7329798 V 21.75917 H 1.61431 c -0.56719,0 -0.87259998,0.30541 -0.87259998,0.8726 v 3.31588 c 0,0.56719 0.30540998,0.8726 0.87259998,0.8726 H 4.4066301 V 40.1274 c 0,0.56719 0.30541,0.8726 0.8726,0.8726 H 10.07853 c 0.56719,0 0.8726,-0.30541 0.8726,-0.8726 V 26.82025 h 3.0541 c 0.56719,0 0.8726,-0.30541 0.8726,-0.8726 v -3.31588 c 0,-0.56719 -0.30541,-0.8726 -0.8726,-0.8726 h -3.0541 v -2.748691 c 0,-3.88307 1.39616,-4.75567 3.62129,-4.75567 0.56719,0 0.8726,-0.30541 0.8726,-0.8726 V 9.1500992 c 0,-0.56719 -0.30541,-0.8726 -0.8726,-0.8726 z"
             id="text133"
             style="font-weight:bold;font-size:43.63px;font-family:Batangas;fill:#f6f3ec"
             transform="matrix(0.54637297,0.7033146,-0.7033146,0.54637297,291.51933,92.26036)"
             aria-label="f" />
          <path
             d="m 13.65619,8.2774992 c -3.35951,0 -9.2495599,2.1814998 -9.2495599,10.7329798 V 21.75917 H 1.61431 c -0.56719,0 -0.87259998,0.30541 -0.87259998,0.8726 v 3.31588 c 0,0.56719 0.30540998,0.8726 0.87259998,0.8726 H 4.4066301 V 40.1274 c 0,0.56719 0.30541,0.8726 0.8726,0.8726 H 10.07853 c 0.56719,0 0.8726,-0.30541 0.8726,-0.8726 V 26.82025 h 3.0541 c 0.56719,0 0.8726,-0.30541 0.8726,-0.8726 v -3.31588 c 0,-0.56719 -0.30541,-0.8726 -0.8726,-0.8726 h -3.0541 v -2.748691 c 0,-3.88307 1.39616,-4.75567 3.62129,-4.75567 0.56719,0 0.8726,-0.30541 0.8726,-0.8726 V 9.1500992 c 0,-0.56719 -0.30541,-0.8726 -0.8726,-0.8726 z"
             id="text135"
             style="font-weight:bold;font-size:43.63px;font-family:Batangas;fill:#f6f3ec"
             transform="matrix(0.4611174,0.7619354,-0.7619354,0.4611174,301.35704,105.18149)"
             aria-label="f" />
          <path
             d="m 12.39092,21.06109 c -6.4572399,0 -11.21291,4.05759 -11.21291,10.34031 0,6.36998 4.5811501,10.29668 11.21291,10.29668 4.7993,0 8.595111,-2.09424 10.122161,-6.45724 0.21815,-0.61082 -0.13089,-1.00349 -0.74171,-1.00349 H 16.92844 c -0.47993,0 -0.74171,0.26178 -0.95986,0.74171 -0.52356,1.17801 -1.78883,2.05061 -3.70855,2.05061 -2.4432798,0 -3.9703298,-1.7452 -4.1448498,-4.40663 H 22.164041 c 0.56719,0 0.8726,-0.30541 0.8726,-0.8726 V 30.9651 c 0,-6.36998 -4.799301,-9.90401 -10.645721,-9.90401 z m -4.1884798,8.02792 c 0.370855,-2.09424 1.548865,-3.57766 3.9703298,-3.57766 2.31239,0 3.79581,1.48342 3.9267,3.57766 z"
             id="text137"
             style="font-weight:bold;font-size:43.63px;font-family:Batangas;fill:#f6f3ec"
             transform="matrix(0.34113518,0.8226795,-0.8226795,0.34113518,310.2386,119.77802)"
             aria-label="e" />
          <path
             d="m 12.39092,21.06109 c -6.4572399,0 -11.21291,4.05759 -11.21291,10.34031 0,6.36998 4.5811501,10.29668 11.21291,10.29668 4.7993,0 8.595111,-2.09424 10.122161,-6.45724 0.21815,-0.61082 -0.13089,-1.00349 -0.74171,-1.00349 H 16.92844 c -0.47993,0 -0.74171,0.26178 -0.95986,0.74171 -0.52356,1.17801 -1.78883,2.05061 -3.70855,2.05061 -2.4432798,0 -3.9703298,-1.7452 -4.1448498,-4.40663 H 22.164041 c 0.56719,0 0.8726,-0.30541 0.8726,-0.8726 V 30.9651 c 0,-6.36998 -4.799301,-9.90401 -10.645721,-9.90401 z m -4.1884798,8.02792 c 0.370855,-2.09424 1.548865,-3.57766 3.9703298,-3.57766 2.31239,0 3.79581,1.48342 3.9267,3.57766 z"
             id="text139"
             style="font-weight:bold;font-size:43.63px;font-family:Batangas;fill:#f6f3ec"
             transform="matrix(0.18308339,0.8715821,-0.8715821,0.18308339,319.82847,143.96549)"
             aria-label="e" />
        </g>
      </g>
      <g
         id="g156">
        <g
           clip-path="url(#clip_48)"
           id="g155">
          <path
             d="m 10.76868,41 c 11.544391,0 16.791841,-6.75324 16.791841,-15.5142 0,-8.760961 -5.29308,-15.5142007 -16.791841,-15.5142007 H 3.3766201 c -0.59319,0 -0.9126,0.3194097 -0.9126,0.9125997 V 40.0874 c 0,0.59319 0.31941,0.9126 0.9126,0.9126 z M 9.3085202,16.177279 H 11.4075 c 6.66198,0 9.30852,4.152331 9.30852,9.308521 0,5.15619 -2.69217,9.30852 -9.30852,9.30852 H 9.3085202 Z"
             id="text141"
             style="font-weight:bold;font-size:45.63px;font-family:Batangas;fill:#f6f3ec"
             transform="matrix(0.39706654,0.7546674,-0.7546674,0.39706654,99.08764,223.27439)"
             aria-label="D" />
          <path
             d="m 12.95892,20.14709 c -6.7532399,0 -11.72691,4.24359 -11.72691,10.81431 0,6.66198 4.7911501,10.76868 11.72691,10.76868 5.0193,0 8.989111,-2.19024 10.586161,-6.75324 0.22815,-0.63882 -0.13689,-1.04949 -0.77571,-1.04949 H 17.70444 c -0.50193,0 -0.77571,0.27378 -1.00386,0.77571 -0.54756,1.23201 -1.87083,2.14461 -3.87855,2.14461 -2.55528,0 -4.1523298,-1.8252 -4.3348498,-4.60863 H 23.180041 c 0.59319,0 0.9126,-0.31941 0.9126,-0.9126 V 30.5051 c 0,-6.66198 -5.019301,-10.35801 -11.133721,-10.35801 z m -4.3804798,8.39592 c 0.387855,-2.19024 1.6198648,-3.74166 4.1523298,-3.74166 2.41839,0 3.96981,1.55142 4.1067,3.74166 z"
             id="text142"
             style="font-weight:bold;font-size:45.63px;font-family:Batangas;fill:#f6f3ec"
             transform="matrix(0.54066899,0.65944048,-0.65944048,0.54066899,108.07555,241.05391)"
             aria-label="e" />
          <path
             d="m 8.1221402,41 c 0.59319,0 0.9126,-0.31941 0.9126,-0.9126 V 15.447199 c 0,-4.69989 -2.41839,-7.7570998 -6.8445001,-8.6696998 V 40.0874 c 0,0.59319 0.31941,0.9126 0.9126,0.9126 z"
             id="text143"
             style="font-weight:bold;font-size:45.63px;font-family:Batangas;fill:#f6f3ec"
             transform="matrix(0.6256486,0.5794381,-0.5794381,0.6256486,119.94278,255.21973)"
             aria-label="l" />
          <path
             d="m 5.2930801,16.907359 c 2.4640201,0 5.0192999,-1.23201 5.0192999,-3.69603 0,-2.41839 -2.5552798,-3.6960297 -5.0192999,-3.6960297 -2.50965,0 -5.01930009,1.2776397 -5.01930009,3.6960297 0,2.46402 2.50965009,3.69603 5.01930009,3.69603 z M 8.1221402,41 c 0.59319,0 0.9126,-0.31941 0.9126,-0.9126 V 29.09057 c 0,-4.69989 -2.41839,-7.7571 -6.8445001,-8.6697 V 40.0874 c 0,0.59319 0.31941,0.9126 0.9126,0.9126 z"
             id="text144"
             style="font-weight:bold;font-size:45.63px;font-family:Batangas;fill:#f6f3ec"
             transform="matrix(0.67151877,0.5255923,-0.5255923,0.67151877,125.52545,260.496)"
             aria-label="i" />
          <path
             d="m 15.14916,41 c 0.50193,0 0.86697,-0.27378 1.04949,-0.73008 l 7.528951,-19.84905 c -4.699891,0 -7.711471,2.32713 -9.399781,7.43769 L 11.8638,35.25062 7.3008002,21.60725 c -0.18252,-0.50193 -0.50193,-0.73008 -1.0038601,-0.73008 H 1.32327 c -0.68444999,0 -0.95822999,0.41067 -0.73007999,1.04949 L 7.5745802,40.26992 C 7.7571002,40.72622 8.1221402,41 8.6240702,41 Z"
             id="text145"
             style="font-weight:bold;font-size:45.63px;font-family:Batangas;fill:#f6f3ec"
             transform="matrix(0.73435476,0.43348349,-0.43348349,0.73435476,130.16779,264.84495)"
             aria-label="v" />
          <path
             d="m 12.95892,20.14709 c -6.7532399,0 -11.72691,4.24359 -11.72691,10.81431 0,6.66198 4.7911501,10.76868 11.72691,10.76868 5.0193,0 8.989111,-2.19024 10.586161,-6.75324 0.22815,-0.63882 -0.13689,-1.04949 -0.77571,-1.04949 H 17.70444 c -0.50193,0 -0.77571,0.27378 -1.00386,0.77571 -0.54756,1.23201 -1.87083,2.14461 -3.87855,2.14461 -2.55528,0 -4.1523298,-1.8252 -4.3348498,-4.60863 H 23.180041 c 0.59319,0 0.9126,-0.31941 0.9126,-0.9126 V 30.5051 c 0,-6.66198 -5.019301,-10.35801 -11.133721,-10.35801 z m -4.3804798,8.39592 c 0.387855,-2.19024 1.6198648,-3.74166 4.1523298,-3.74166 2.41839,0 3.96981,1.55142 4.1067,3.74166 z"
             id="text146"
             style="font-weight:bold;font-size:45.63px;font-family:Batangas;fill:#f6f3ec"
             transform="matrix(0.8015173,0.29112659,-0.29112659,0.8015173,143.99246,273.5206)"
             aria-label="e" />
          <path
             d="m 15.60546,20.60339 c -0.4563,-0.09126 -1.00386,-0.18252 -1.50579,-0.18252 -2.41839,0 -4.6770748,1.09512 -6.1144198,4.01544 -1.09512,-2.076165 -3.0572101,-3.445065 -5.7950101,-4.01544 V 40.0874 c 0,0.59319 0.31941,0.9126 0.9126,0.9126 h 5.0193001 c 0.59319,0 0.9126,-0.31941 0.9126,-0.9126 v -9.21726 c 0.27378,-2.78343 1.6883098,-4.24359 4.1523298,-4.24359 0.63882,0 1.32327,0.09126 2.09898,0.27378 0.63882,0.18252 1.04949,-0.09126 1.04949,-0.73008 v -4.51737 c 0,-0.50193 -0.22815,-0.9126 -0.73008,-1.04949 z"
             id="text147"
             style="font-weight:bold;font-size:45.63px;font-family:Batangas;fill:#f6f3ec"
             transform="matrix(0.8374677,0.1607252,-0.1607252,0.8374677,160.90206,279.67424)"
             aria-label="r" />
          <path
             d="m 12.95892,20.14709 c -6.7532399,0 -11.72691,4.24359 -11.72691,10.81431 0,6.66198 4.7911501,10.76868 11.72691,10.76868 5.0193,0 8.989111,-2.19024 10.586161,-6.75324 0.22815,-0.63882 -0.13689,-1.04949 -0.77571,-1.04949 H 17.70444 c -0.50193,0 -0.77571,0.27378 -1.00386,0.77571 -0.54756,1.23201 -1.87083,2.14461 -3.87855,2.14461 -2.55528,0 -4.1523298,-1.8252 -4.3348498,-4.60863 H 23.180041 c 0.59319,0 0.9126,-0.31941 0.9126,-0.9126 V 30.5051 c 0,-6.66198 -5.019301,-10.35801 -11.133721,-10.35801 z m -4.3804798,8.39592 c 0.387855,-2.19024 1.6198648,-3.74166 4.1523298,-3.74166 2.41839,0 3.96981,1.55142 4.1067,3.74166 z"
             id="text148"
             style="font-weight:bold;font-size:45.63px;font-family:Batangas;fill:#f6f3ec"
             transform="matrix(0.85234579,0.02629465,-0.02629465,0.85234579,171.55622,282.3017)"
             aria-label="e" />
          <path
             d="m 18.252,22.79363 c -1.73394,-1.68831 -4.1067,-2.64654 -6.89013,-2.64654 -5.9318999,0 -10.0386,4.42611 -10.0386,10.76868 0,6.3882 4.1067001,10.81431 10.0386,10.81431 3.33099,0 6.091605,-1.391715 7.871175,-3.764475 1.09512,2.2815 3.080026,3.490695 5.863456,3.490695 V 15.447199 c 0,-4.69989 -2.41839,-7.7570998 -6.844501,-8.6696998 z m -4.79115,13.46085 c -2.78343,0 -4.7911498,-2.19024 -4.7911498,-5.29308 0,-3.10284 2.0077198,-5.29308 4.7911498,-5.29308 2.78343,0 4.79115,2.19024 4.79115,5.29308 0,3.10284 -2.00772,5.29308 -4.79115,5.29308 z"
             id="text149"
             style="font-weight:bold;font-size:45.63px;font-family:Batangas;fill:#f6f3ec"
             transform="matrix(0.8410145,-0.1409941,0.1409941,0.8410145,188.7138,283.35597)"
             aria-label="d" />
          <path
             d="m 3.1941001,9.9715993 c -0.59319,0 -0.9126,0.3194097 -0.9126,0.9125997 v 4.38048 c 0,0.59319 0.31941,0.9126 0.9126,0.9126 H 7.2779852 C 4.2892201,17.340844 2.2815001,20.489315 2.2815001,25.25765 V 40.0874 c 0,0.59319 0.31941,0.9126 0.9126,0.9126 h 5.0193001 c 0.59319,0 0.9126,-0.31941 0.9126,-0.9126 V 23.683415 C 10.22112,26.30714 13.05018,28.08671 17.3394,28.08671 h 1.55142 c 0.59319,0 0.9126,-0.31941 0.9126,-0.9126 v -4.38048 c 0,-0.59319 -0.31941,-0.9126 -0.9126,-0.9126 H 9.1260002 V 16.177279 H 19.34712 c 0.59319,0 0.9126,-0.31941 0.9126,-0.9126 v -4.38048 c 0,-0.59319 -0.31941,-0.9125997 -0.9126,-0.9125997 z"
             id="text151"
             style="font-weight:bold;font-size:45.63px;font-family:Batangas;fill:#f6f3ec"
             transform="matrix(0.7727984,-0.36050967,0.36050967,0.7727984,215.33693,278.01258)"
             aria-label="F" />
          <path
             d="m 15.60546,20.60339 c -0.4563,-0.09126 -1.00386,-0.18252 -1.50579,-0.18252 -2.41839,0 -4.6770748,1.09512 -6.1144198,4.01544 -1.09512,-2.076165 -3.0572101,-3.445065 -5.7950101,-4.01544 V 40.0874 c 0,0.59319 0.31941,0.9126 0.9126,0.9126 h 5.0193001 c 0.59319,0 0.9126,-0.31941 0.9126,-0.9126 v -9.21726 c 0.27378,-2.78343 1.6883098,-4.24359 4.1523298,-4.24359 0.63882,0 1.32327,0.09126 2.09898,0.27378 0.63882,0.18252 1.04949,-0.09126 1.04949,-0.73008 v -4.51737 c 0,-0.50193 -0.22815,-0.9126 -0.73008,-1.04949 z"
             id="text152"
             style="font-weight:bold;font-size:45.63px;font-family:Batangas;fill:#f6f3ec"
             transform="matrix(0.713242,-0.46740837,0.46740837,0.713242,228.87337,271.82136)"
             aria-label="r" />
          <path
             d="m 12.95892,20.14709 c -6.7532399,0 -11.72691,4.24359 -11.72691,10.81431 0,6.66198 4.7911501,10.76868 11.72691,10.76868 5.0193,0 8.989111,-2.19024 10.586161,-6.75324 0.22815,-0.63882 -0.13689,-1.04949 -0.77571,-1.04949 H 17.70444 c -0.50193,0 -0.77571,0.27378 -1.00386,0.77571 -0.54756,1.23201 -1.87083,2.14461 -3.87855,2.14461 -2.55528,0 -4.1523298,-1.8252 -4.3348498,-4.60863 H 23.180041 c 0.59319,0 0.9126,-0.31941 0.9126,-0.9126 V 30.5051 c 0,-6.66198 -5.019301,-10.35801 -11.133721,-10.35801 z m -4.3804798,8.39592 c 0.387855,-2.19024 1.6198648,-3.74166 4.1523298,-3.74166 2.41839,0 3.96981,1.55142 4.1067,3.74166 z"
             id="text153"
             style="font-weight:bold;font-size:45.63px;font-family:Batangas;fill:#f6f3ec"
             transform="matrix(0.6303707,-0.5742974,0.5742974,0.6303707,238.35222,266.2906)"
             aria-label="e" />
          <path
             d="m 12.13758,41.73008 c 6.43383,0 10.175491,-2.69217 10.175491,-7.34643 0,-8.30466 -13.4608508,-5.15619 -13.4608508,-8.6697 0,-0.68445 0.68445,-1.32327 2.2814998,-1.32327 1.96209,0 2.92032,0.63882 3.46788,1.8252 0.22815,0.50193 0.54756,0.77571 1.04949,0.77571 h 4.88241 c 0.63882,0 0.958231,-0.36504 0.82134,-1.00386 -1.00386,-3.92418 -4.51737,-5.84064 -9.85608,-5.84064 -6.2056799,0 -9.53667,2.60091 -9.53667,6.47946 0,8.12214 13.46085,4.65426 13.46085,8.39592 0,1.14075 -1.00386,1.96209 -3.14847,1.96209 -1.23201,0 -3.7416598,-0.4563 -4.2892198,-2.60091 -0.13689,-0.54756 -0.41067,-0.86697 -0.95823,-0.86697 H 2.05335 c -0.59319,0 -0.95823,0.36504 -0.86697,0.95823 0.86697,5.06493 5.1561901,7.25517 10.9512,7.25517 z"
             id="text154"
             style="font-weight:bold;font-size:45.63px;font-family:Batangas;fill:#f6f3ec"
             transform="matrix(0.5153474,-0.67941287,0.67941287,0.5153474,251.4799,254.75379)"
             aria-label="s" />
          <path
             d="m 15.19479,20.42087 c -2.64654,0 -4.79115,1.18638 -6.1600498,2.897505 v -7.871176 c 0,-4.69989 -2.41839,-7.7570998 -6.8445001,-8.6696998 V 40.0874 c 0,0.59319 0.31941,0.9126 0.9126,0.9126 h 5.0193001 c 0.59319,0 0.9126,-0.31941 0.9126,-0.9126 v -9.126 c 0,-2.7378 1.6883098,-5.0193 3.8329198,-5.0193 2.14461,0 3.05721,1.27764 3.05721,3.6504 v 10.4949 c 0,0.59319 0.31941,0.9126 0.9126,0.9126 h 5.019301 c 0.59319,0 0.9126,-0.31941 0.9126,-0.9126 V 29.5925 c 0,-5.4756 -2.190241,-9.17163 -7.574581,-9.17163 z"
             id="text155"
             style="font-weight:bold;font-size:45.63px;font-family:Batangas;fill:#f6f3ec"
             transform="matrix(0.38532309,-0.76073047,0.76073047,0.38532309,261.4728,242.26194)"
             aria-label="h" />
        </g>
      </g>
      <g
         id="g158">
        <g
           clip-path="url(#clip_49)"
           id="g157">
          <path
             d="m 20.4734,6.5148997 q 0.6538,0 1.4944,0.11675 0.86395,0.0934 1.61115,0.3736 0.7472,0.25685 1.2609,0.7005001 0.5137,0.4203 0.5137,1.05075 0,0.3736 -0.21015,0.63045 -0.21015,0.25685 -0.67715,0.25685 -0.35025,0 -0.72385,-0.1401 -0.35025,-0.1401 -0.81725,-0.2802 -0.44365,-0.16345 -1.05075,-0.30355 -0.58375,-0.1401 -1.37765,-0.1401 -1.5411,0 -2.2883,0.5604 -0.72385,0.53705 -0.72385,1.4944002 0,0.6538 0.3269,1.09745 0.3269,0.44365 0.86395,0.77055 0.5604,0.30355 1.23755,0.5137 0.7005,0.21015 1.42435,0.39695 0.81725,0.21015 1.61115,0.5137 0.81725,0.30355 1.4477,0.7939 0.63045,0.49035 1.00405,1.23755 0.39695,0.7472 0.39695,1.89135 0,1.19085 -0.44365,2.1482 -0.44365,0.934 -1.2142,1.61115 -0.77055,0.6538 -1.84465,1.0274 -1.0741,0.35025 -2.335,0.35025 -0.7005,0 -1.6345,-0.1401 -0.934,-0.11675 -1.7746,-0.4203 -0.8406,-0.3269 -1.42435,-0.8406 -0.58375,-0.53705 -0.58375,-1.3076 0,-0.467 0.2335,-0.7472 0.25685,-0.2802 0.7472,-0.2802 0.39695,0 0.6538,0.16345 0.25685,0.1401 0.44365,0.3269 0.7005,0.6071 1.5878,0.81725 0.8873,0.21015 1.8213,0.21015 0.53705,0 1.1208,-0.07005 0.6071,-0.0934 1.09745,-0.35025 0.49035,-0.25685 0.81725,-0.72385 0.3269,-0.49035 0.3269,-1.3076 0,-0.7472 -0.30355,-1.2142 -0.2802,-0.49035 -0.77055,-0.81725 -0.49035,-0.3269 -1.1675,-0.53705 -0.6538,-0.21015 -1.42435,-0.4203 -0.86395,-0.2335 -1.70455,-0.5137 -0.8406,-0.2802 -1.4944,-0.7472 -0.6538,-0.49035 -1.0741,-1.2142 -0.39695,-0.7472 -0.39695,-1.89135 0,-1.14415 0.4203,-2.0081002 0.4203,-0.86395 1.14415,-1.4477 0.72385,-0.5837501 1.70455,-0.8873001 1.00405,-0.30355 2.1482,-0.30355 z M 28.54889,21.5523 q -0.0467,-0.86395 -0.0934,-1.9614 -0.02335,-1.1208 -0.02335,-2.45175 0,-1.65785 0.02335,-2.82535 0.02335,-1.19085 0.11675,-1.93805 0.11675,-0.77055 0.35025,-1.1208 0.2335,-0.3736 0.6538,-0.3736 0.39695,0 0.7005,0.2802 0.30355,0.2802 0.35025,1.2142 0.1401,2.45175 0.1401,4.74005 0,1.1675 -0.0467,2.1949 -0.0467,1.00405 -0.0934,2.21825 -0.02335,0.5604 -0.11675,0.86395 -0.07005,0.30355 -0.21015,0.467 -0.1401,0.16345 -0.3269,0.1868 -0.16345,0.0467 -0.39695,0.0467 -0.4203,0 -0.7005,-0.2802 -0.2802,-0.30355 -0.3269,-1.2609 z M 29.59964,6.6549997 q 0.53705,0 0.9807,0.4203 0.467,0.4203 0.467,1.0040501 0,0.5604 -0.467,0.9807 -0.467,0.39695 -1.05075,0.39695 -0.49035,0 -0.934,-0.39695 -0.4203,-0.4203 -0.4203,-1.0274 0,-0.5604001 0.4203,-0.9573501 0.44365,-0.4203 1.00405,-0.4203 z M 39.148386,13.0529 q -0.86395,0 -1.56445,0.2802 -0.67715,0.2802 -1.5411,0.8406 0,0.49035 0,1.4477 0,0.934 -0.02335,2.0548 -0.02335,1.09745 -0.0467,2.17155 -0.02335,1.0741 -0.0934,1.79795 -0.0467,0.467 -0.11675,0.7472 -0.0467,0.25685 -0.16345,0.39695 -0.0934,0.1401 -0.2802,0.1868 Q 35.155536,23 34.875336,23 q -0.2802,0 -0.467,-0.02335 -0.16345,-0.0467 -0.2802,-0.16345 -0.11675,-0.1401 -0.1868,-0.39695 -0.07005,-0.25685 -0.11675,-0.7005 -0.0467,-0.4203 -0.0934,-1.1208 -0.02335,-0.7005 -0.0467,-1.51775 -0.02335,-0.8406 -0.0467,-1.6812 0,-0.86395 0,-1.5878 0,-1.19085 0.02335,-1.93805 0.0467,-0.7472 0.1401,-1.33095 0.1401,-0.9807 0.3736,-1.23755 0.2335,-0.25685 0.63045,-0.25685 0.58375,0 0.86395,0.3269 0.30355,0.3269 0.3736,1.0741 0.86395,-0.7472 1.84465,-1.19085 1.00405,-0.44365 2.0548,-0.44365 1.00405,0 1.8213,0.467 0.8406,0.467 1.37765,1.51775 0.3269,0.63045 0.49035,1.401 0.16345,0.7472 0.2335,1.5878 0.02335,0.3736 0.0467,0.7472 0.02335,0.35025 0.02335,0.77055 0.02335,0.39695 0.02335,0.91065 0,0.5137 0,1.2142 0,0.7472 -0.02335,1.401 -0.02335,0.6538 -0.1401,1.14415 -0.0934,0.467 -0.35025,0.7472 -0.25685,0.25685 -0.7005,0.25685 -1.0741,0 -1.1208,-1.0274 0,-0.07005 0,-0.58375 0,-0.53705 -0.02335,-1.23755 0,-0.7005 -0.02335,-1.42435 0,-0.72385 -0.02335,-1.19085 -0.02335,-0.3736 -0.07005,-0.7939 -0.02335,-0.44365 -0.0934,-0.8873 -0.0467,-0.44365 -0.1401,-0.8406 -0.0934,-0.4203 -0.2335,-0.7472 -0.3269,-0.77055 -0.81725,-0.9807 -0.49035,-0.21015 -1.05075,-0.21015 z m 12.839052,-1.9614 q 0.67715,0 1.3543,0.11675 0.7005,0.11675 1.2609,0.3269 0.5604,0.21015 0.91065,0.5137 0.350251,0.30355 0.350251,0.7005 0,1.0274 -1.167501,1.0274 -0.2802,0 -0.53705,-0.07005 -0.2335,-0.0934 -0.5604,-0.16345 -0.3269,-0.0934 -0.81725,-0.16345 -0.49035,-0.0934 -1.2142,-0.0934 -1.5411,0 -2.3817,1.05075 -0.8406,1.05075 -0.8406,2.73195 0,1.84465 0.8406,2.96545 0.86395,1.1208 2.4284,1.1208 0.9807,0 1.5878,-0.16345 0.6071,-0.16345 0.9807,-0.3736 0.39695,-0.21015 0.63045,-0.3736 0.25685,-0.16345 0.5604,-0.16345 0.420301,0 0.653801,0.1868 0.25685,0.16345 0.25685,0.7005 0,0.5604 -0.44365,0.9807 -0.420301,0.4203 -1.074101,0.7005 -0.6538,0.2802 -1.42435,0.4203 -0.7472,0.1401 -1.37765,0.1401 -2.82535,0 -4.4365,-1.56445 -1.61115,-1.56445 -1.61115,-4.4365 0,-1.23755 0.3736,-2.335 0.39695,-1.1208 1.1675,-1.9614 0.77055,-0.8406 1.89135,-1.33095 1.14415,-0.49035 2.63855,-0.49035 z m 11.671918,7.6121 q -0.81725,0 -1.7279,-0.11675 -0.8873,-0.1401 -1.93805,-0.5604 0.21015,1.42435 1.1675,2.1482 0.9807,0.72385 2.802,0.72385 0.6538,0 1.1675,-0.07005 0.53705,-0.0934 0.934,-0.1868 0.39695,-0.11675 0.7005,-0.1868 0.30355,-0.0934 0.5604,-0.0934 0.3269,0 0.63045,0.21015 0.30355,0.1868 0.30355,0.6538 0,0.58375 -0.49035,0.95735 -0.467,0.3736 -1.1675,0.6071 -0.67715,0.21015 -1.4477,0.2802 -0.77055,0.0934 -1.3543,0.0934 -1.37765,0 -2.54515,-0.3736 -1.14415,-0.3736 -1.98475,-1.1208 -0.8406,-0.77055 -1.3076,-1.89135 -0.467,-1.1208 -0.467,-2.6152 0,-1.4477 0.44365,-2.5685 0.467,-1.1208 1.2609,-1.89135 0.7939,-0.77055 1.868,-1.1675 1.09745,-0.39695 2.35835,-0.39695 0.9807,0 1.89135,0.25685 0.934,0.25685 1.6345,0.77055 0.72385,0.5137 1.14415,1.3076 0.44365,0.77055 0.44365,1.8213 0,0.934 -0.35025,1.5878 -0.35025,0.6538 -1.00405,1.05075 -0.63045,0.39695 -1.5411,0.58375 -0.8873,0.1868 -1.98475,0.1868 z m -0.16345,-5.4172 q -0.63045,0 -1.2142,0.16345 -0.58375,0.1401 -1.0741,0.49035 -0.467,0.3269 -0.7939,0.8873 -0.3269,0.53705 -0.44365,1.3543 0.8873,0.39695 1.7279,0.5604 0.8406,0.1401 1.7746,0.1401 1.37765,0 2.03145,-0.3269 0.67715,-0.35025 0.67715,-1.23755 0,-0.81725 -0.63045,-1.42435 -0.6071,-0.6071 -2.0548,-0.6071 z"
             id="text156"
             style="font-size:23.35px;font-family:Sniglet;fill:#f6f3ec"
             transform="matrix(0.84814199,0.08854304,-0.08854304,0.84814199,32.562677,183.14157)"
             aria-label="Since" />
        </g>
      </g>
      <g
         id="g160">
        <g
           clip-path="url(#clip_50)"
           id="g159">
          <path
             d="m 6.2578001,8.8965998 q -0.8406,0 -1.401,0.1868 -0.5604,0.16345 -0.934,0.44365 -0.3736,0.2802 -0.6071,0.5837502 -0.21015,0.30355 -0.4203001,0.58375 -0.1868,0.2802 -0.4203,0.467 -0.21015,0.16345 -0.53705,0.16345 -0.5604,0 -0.7939,-0.2802 -0.21014998,-0.30355 -0.21014998,-0.7939 0,-1.0274002 0.77054998,-1.9147002 0.2335,-0.2802 0.63045,-0.58375 0.4203,-0.3269001 0.9807001,-0.5837501 0.58375,-0.25685 1.33095,-0.4203 0.77055,-0.1868 1.7279,-0.1868 2.54515,0 3.9461499,1.2375501 1.401,1.23755 1.401,3.4791502 0,0.44365 -0.0934,0.9807 -0.07005,0.53705 -0.30355,1.1208 -0.21015,0.58375 -0.6071,1.2142 -0.39695,0.63045 -1.0507498,1.28425 -0.5837501,0.58375 -1.2375501,1.0741 -0.6538,0.49035 -1.3543,0.9807 -0.7005,0.49035 -1.47105,1.05075 -0.7472,0.53705 -1.51775,1.23755 0.7472,0.39695 1.61115,0.5137 0.86395,0.11675 1.93805,0.11675 1.00405,0 1.6111501,-0.0467 0.6071,-0.0467 0.9806998,-0.11675 0.3736,-0.07005 0.58375,-0.11675 0.21015,-0.0467 0.44365,-0.0467 0.86395,0 0.86395,0.7939 0,0.7005 -0.58375,1.0741 -0.58375,0.3736 -1.401,0.5604 -0.8172498,0.16345 -1.6811999,0.1868 -0.86395,0.0467 -1.42435,0.0467 -0.30355,0 -0.86395,-0.0467 -0.53705,-0.02335 -1.1675,-0.11675 -0.63045,-0.0934 -1.28425,-0.25685 -0.63045,-0.1868 -1.1675001,-0.467 -0.5137,-0.30355 -0.8406,-0.72385 -0.3269,-0.44365 -0.3269,-1.05075 0,-0.81725 0.58375,-1.5411 0.6071,-0.7472 1.4944001,-1.4477 0.8873,-0.72385 1.9147,-1.42435 1.0274,-0.72385 1.9147,-1.47105 0.8873,-0.77055 1.47105,-1.5878 0.6071001,-0.81725 0.6071001,-1.7746 0,-1.19085 -0.8172501,-1.7746002 -0.7939,-0.6071 -2.2883,-0.6071 z M 14.216623,15.0143 q 0,-1.42435 0.25685,-2.91875 0.2802,-1.4944 0.9807,-2.7086002 0.7005,-1.2142 1.89135,-1.9847501 1.2142,-0.77055 3.0822,-0.77055 1.47105,0 2.49845,0.44365 1.05075,0.44365 1.7279,1.1675001 0.67715,0.72385 1.05075,1.65785 0.373601,0.9106502 0.560401,1.9147002 0.1868,1.00405 0.21015,1.98475 0.0467,0.9807 0.0467,1.79795 0,1.6345 -0.39695,3.01215 -0.373601,1.3543 -1.167501,2.335 -0.77055,0.9807 -1.9614,1.5411 -1.1675,0.53705 -2.7553,0.53705 -1.65785,0 -2.82535,-0.63045 -1.14415,-0.6538 -1.868,-1.7279 -0.7005,-1.09745 -1.0274,-2.54515 -0.30355,-1.47105 -0.30355,-3.10555 z m 2.335,-0.0467 q 0,1.14415 0.1868,2.1949 0.21015,1.0274 0.6538,1.8213 0.44365,0.77055 1.14415,1.23755 0.72385,0.467 1.75125,0.467 0.9807,0 1.70455,-0.39695 0.7472,-0.39695 1.23755,-1.09745 0.49035,-0.72385 0.72385,-1.70455 0.2335,-0.9807 0.2335,-2.12485 0,-0.86395 -0.07005,-1.9614 -0.07005,-1.1208 -0.44365,-2.1015 -0.35025,-0.9807 -1.1208,-1.6578502 -0.77055,-0.67715 -2.1482,-0.67715 -1.1675,0 -1.9147,0.5604 -0.72385,0.5604002 -1.1675,1.4477002 -0.44365,0.86395 -0.6071,1.93805 -0.16345,1.05075 -0.16345,2.0548 z M 33.710116,8.8965998 q -0.8406,0 -1.401,0.1868 -0.5604,0.16345 -0.934,0.44365 -0.3736,0.2802 -0.6071,0.5837502 -0.21015,0.30355 -0.4203,0.58375 -0.1868,0.2802 -0.4203,0.467 -0.21015,0.16345 -0.53705,0.16345 -0.5604,0 -0.7939,-0.2802 -0.21015,-0.30355 -0.21015,-0.7939 0,-1.0274002 0.77055,-1.9147002 0.2335,-0.2802 0.63045,-0.58375 0.4203,-0.3269001 0.9807,-0.5837501 0.58375,-0.25685 1.33095,-0.4203 0.77055,-0.1868 1.7279,-0.1868 2.54515,0 3.94615,1.2375501 1.401,1.23755 1.401,3.4791502 0,0.44365 -0.0934,0.9807 -0.07005,0.53705 -0.30355,1.1208 -0.21015,0.58375 -0.6071,1.2142 -0.39695,0.63045 -1.05075,1.28425 -0.58375,0.58375 -1.23755,1.0741 -0.6538,0.49035 -1.3543,0.9807 -0.7005,0.49035 -1.47105,1.05075 -0.7472,0.53705 -1.51775,1.23755 0.7472,0.39695 1.61115,0.5137 0.86395,0.11675 1.93805,0.11675 1.00405,0 1.61115,-0.0467 0.6071,-0.0467 0.9807,-0.11675 0.3736,-0.07005 0.58375,-0.11675 0.21015,-0.0467 0.44365,-0.0467 0.86395,0 0.86395,0.7939 0,0.7005 -0.58375,1.0741 -0.58375,0.3736 -1.401,0.5604 -0.81725,0.16345 -1.6812,0.1868 -0.86395,0.0467 -1.42435,0.0467 -0.30355,0 -0.86395,-0.0467 -0.53705,-0.02335 -1.1675,-0.11675 -0.63045,-0.0934 -1.28425,-0.25685 -0.63045,-0.1868 -1.1675,-0.467 -0.5137,-0.30355 -0.8406,-0.72385 -0.3269,-0.44365 -0.3269,-1.05075 0,-0.81725 0.58375,-1.5411 0.6071,-0.7472 1.4944,-1.4477 0.8873,-0.72385 1.9147,-1.42435 1.0274,-0.72385 1.9147,-1.47105 0.8873,-0.77055 1.47105,-1.5878 0.6071,-0.81725 0.6071,-1.7746 0,-1.19085 -0.81725,-1.7746002 -0.7939,-0.6071 -2.2883,-0.6071 z m 9.966924,0.0934 q -0.7472,0 -1.09745,-0.3736 -0.35025,-0.39695 -0.35025,-0.7939 0,-0.4203001 0.39695,-0.6771501 0.39695,-0.2802 1.05075,-0.4203 0.6538,-0.16345 1.4944,-0.21015 0.8406,-0.07005 1.70455,-0.07005 0.72385,0 1.61115,0.07005 0.8873,0.0467 1.65785,0.2802 0.77055,0.21015 1.28425,0.6538 0.5137,0.4203001 0.5137,1.1675001 0,0.58375 -0.44365,1.2142 -0.44365,0.6304502 -1.0274,1.1908502 -0.58375,0.5604 -1.1675,1.00405 -0.5604,0.4203 -0.81725,0.6071 2.4751,0 3.5959,1.23755 1.1208,1.23755 1.1208,3.5492 0,1.4477 -0.53705,2.5218 -0.5137,1.0741 -1.401,1.79795 -0.86395,0.7005 -2.0081,1.05075 -1.1208,0.35025 -2.31165,0.35025 -0.9807,0 -1.93805,-0.16345 -0.934,-0.16345 -1.6812,-0.5604 -0.7472,-0.4203 -1.2142,-1.09745 -0.44365,-0.7005 -0.44365,-1.7279 0,-1.0741 1.1675,-1.0741 0.35025,0 0.53705,0.1868 0.21015,0.16345 0.35025,0.4203 0.16345,0.2335 0.3269,0.53705 0.16345,0.30355 0.467,0.5604 0.3269,0.2335 0.8406,0.4203 0.53705,0.16345 1.401,0.16345 0.67715,0 1.33095,-0.1401 0.6538,-0.16345 1.1675,-0.5137 0.5137,-0.35025 0.81725,-0.934 0.3269,-0.6071 0.3269,-1.4944 0,-1.7279 -0.72385,-2.45175 -0.7005,-0.72385 -1.98475,-0.72385 -0.3269,0 -0.6071,0.11675 -0.2802,0.0934 -0.5604,0.2335 -0.2802,0.11675 -0.58375,0.2335 -0.30355,0.0934 -0.67715,0.0934 -0.3736,0 -0.6538,-0.3269 -0.2802,-0.35025 -0.2802,-0.8873 0,-0.3736 0.35025,-0.86395 0.3736,-0.49035 1.00405,-1.1208 0.6538,-0.63045 1.56445,-1.37765 0.91065,-0.7705502 2.03145,-1.6578502 -0.2335,0 -0.5604,0 -0.30355,0 -0.63045,0.02335 -0.30355,0 -0.6071,0 -0.30355,0 -0.5137,0 -0.8873,0 -1.75125,0 -0.8406,-0.02335 -1.5411,-0.02335 z"
             id="text158"
             style="font-size:23.35px;font-family:Sniglet;fill:#f6f3ec"
             transform="matrix(0.84854927,-0.08455094,0.08455094,0.84854927,285.18266,189.13654)"
             aria-label="2023" />
        </g>
      </g>
    </g>
  </g>
</svg>
