<?xml version="1.0" encoding="UTF-8" standalone="no"?>
<svg
   version="1.1"
   width="375"
   height="375"
   viewBox="0 0 375 375"
   id="svg164"
   sodipodi:docname="Vietnamese Coffee.svg"
   inkscape:version="1.4.3 (0d15f75042, 2025-12-25)"
   xmlns:inkscape="http://www.inkscape.org/namespaces/inkscape"
   xmlns:sodipodi="http://sodipodi.sourceforge.net/DTD/sodipodi-0.dtd"
   xmlns="http://www.w3.org/2000/svg"
   xmlns:svg="http://www.w3.org/2000/svg">
  <sodipodi:namedview
     id="namedview164"
     pagecolor="#505050"
     bordercolor="#ffffff"
     borderopacity="1"
     inkscape:showpageshadow="0"
     inkscape:pageopacity="0"
     inkscape:pagecheckerboard="1"
     inkscape:deskcolor="#505050"
     inkscape:zoom="2.1306667"
     inkscape:cx="187.26533"
     inkscape:cy="187.5"
     inkscape:window-width="1920"
     inkscape:window-height="1008"
     inkscape:window-x="0"
     inkscape:window-y="0"
     inkscape:window-maximized="1"
     inkscape:current-layer="g164" />
  <defs
     id="defs50">
    <clipPath
       id="clip_1">
      <path
         transform="matrix(.24,0,0,.24,0,0)"
         d="M0 0H1562.5V1562.5H0Z"
         clip-rule="evenodd"
         id="path1" />
    </clipPath>
    <clipPath
       id="clip_2">
      <path
         transform="matrix(.24,0,0,.24,0,0)"
         d="M0 0H1562.5V1562.5H0Z"
         clip-rule="evenodd"
         id="path2" />
    </clipPath>
    <clipPath
       id="clip_3">
      <path
         transform="matrix(.24,0,0,.24,0,0)"
         d="M0 0H1562.5V1562.5H0Z"
         clip-rule="evenodd"
         id="path3" />
    </clipPath>
    <clipPath
       id="clip_4">
      <path
         transform="matrix(.24,0,0,.24,0,.96)"
         d="M0 0H1558V1559H0Z"
         clip-rule="evenodd"
         id="path4" />
    </clipPath>
    <clipPath
       id="clip_5">
      <path
         transform="matrix(.24,0,0,.24,0,.96)"
         d="M172.69348 12.996478 1545.5034 173.52095 1384.979 1546.3309 12.169006 1385.8065 172.69348 12.996478Z"
         id="path5" />
    </clipPath>
    <clipPath
       id="clip_6">
      <path
         transform="matrix(.24,0,0,.24,0,.96)"
         d="M890.8506 114.92734C909.2418 134.57718 937.77688 140.98537 962.80398 131.0861L962.93789 131.03316C986.84988 121.57495 1014.0958 130.77527 1027.379 152.79344 1041.2634 175.80837 1067.8154 187.98485 1094.3157 183.48993L1094.6259 183.43732C1119.944 179.1429 1144.6548 193.78652 1153.0455 218.05678 1161.8163 243.42629 1185.2346 260.83128 1212.0557 261.91419L1212.4832 261.93147C1238.1119 262.96626 1259.2213 282.40803 1262.3569 307.86534 1265.6349 334.47795 1284.91 356.35075 1310.8992 362.94935L1311.3508 363.06404C1336.1908 369.37086 1352.7885 392.76426 1350.5361 418.29316 1348.1812 444.9845 1362.4804 470.37693 1386.5249 482.2021L1386.9088 482.3909C1409.8977 493.69697 1421.2669 520.0294 1413.7307 544.51467 1405.8502 570.1195 1414.5516 597.9335 1435.6195 614.48196L1435.8656 614.6753C1456.0167 630.50357 1461.6613 658.6377 1449.1753 681.01406 1436.1165 704.4172 1438.837 733.4487 1456.0167 754.01828L1456.1095 754.12936C1472.5476 773.811 1472.2147 802.5292 1455.3246 821.82437 1437.6567 842.0078 1434.2671 870.9967 1446.8018 894.71188 1458.7847 917.3831 1452.4832 945.4034 1431.9476 960.76168L1431.8318 960.8484C1410.37 976.8994 1401.025 1004.5202 1408.3323 1030.3048 1415.319 1054.9581 1403.3359 1081.031 1380.0768 1091.7833L1379.7926 1091.9146C1355.4752 1103.1561 1340.5917 1128.2123 1342.3523 1154.9443 1344.0363 1180.5077 1326.8987 1203.507 1301.9215 1209.2044L1301.5044 1209.2994C1275.3804 1215.2583 1255.6087 1236.6668 1251.7422 1263.1815 1248.0441 1288.5411 1226.4972 1307.4744 1200.8723 1307.8803L1200.4059 1307.8876C1173.5958 1308.3123 1149.7946 1325.1478 1140.4653 1350.2861 1131.541 1374.333 1106.5161 1388.3801 1081.3401 1383.4743L1080.9205 1383.3925C1054.5728 1378.2583 1027.7703 1389.7914 1013.3832 1412.4535 999.6194 1434.1336 972.1964 1442.6814 948.5519 1432.6613L948.2623 1432.5386C923.5143 1422.0508 894.8695 1427.7728 876.0499 1446.9634 858.0453 1465.323 829.41189 1467.9891 808.327 1453.2697L808.2091 1453.1873C786.14089 1437.7811 756.8971 1437.4334 734.4686 1452.31 713.01248 1466.5419 684.4158 1463.198 666.82186 1444.4 648.4306 1424.7503 619.8956 1418.3419 594.8684 1428.241L594.73458 1428.2941C570.8225 1437.752 543.5768 1428.5518 530.2936 1406.5337 516.40908 1383.5189 489.8571 1371.3427 463.35713 1375.8379L463.04716 1375.8905C437.72874 1380.1853 413.01753 1365.5415 404.6269 1341.2709 395.8562 1315.9008 372.43754 1298.4954 345.6161 1297.4124L345.18898 1297.3952C319.56044 1296.3604 298.45124 1276.9187 295.31559 1251.4617 292.0376 1224.8493 272.76255 1202.9766 246.7736 1196.378L246.32112 1196.2633C221.4812 1189.9566 204.88339 1166.563 207.13564 1141.0343 209.49045 1114.3427 195.19138 1088.9502 171.14684 1077.125L170.76438 1076.9369C147.77539 1065.6306 136.40628 1039.2981 143.9421 1014.8127 151.82245 989.20779 143.12085 961.394 122.05278 944.8457L121.806049 944.65188C101.65488 928.8237 96.0103 900.68948 108.49651 878.31338 121.55577 854.91018 118.83532 825.8785 101.65559 805.30899L101.56299 805.1981C85.12481 785.51638 85.45784 756.7982 102.348018 737.5031 120.0158 717.3196 123.40552 688.3306 110.87085 664.6156 98.88786 641.9443 105.18935 613.9239 125.72479 598.5657L125.84046 598.4791C147.3023 582.42807 156.64722 554.80709 149.33956 529.0225 142.35254 504.36927 154.33565 478.29627 177.59488 467.5442L177.87967 467.41249C202.19724 456.17118 217.08095 431.1152 215.32044 404.383 213.6369 378.81953 230.77443 355.8204 255.75168 350.12294L256.16725 350.02818C282.29133 344.0691 302.0629 322.66059 305.92955 296.1459 309.62779 270.78608 331.17488 251.85306 356.7997 251.44715L357.26609 251.43976C384.07649 251.01509 407.87794 234.1793 417.2072 209.04087 426.13145 184.99373 451.1567 170.94657 476.33283 175.85243L476.7528 175.93428C503.10014 181.06839 529.90219 169.53575 544.2893 146.8741 558.05307 125.19438 585.4756 116.6468 609.11996 126.666469L609.40969 126.78923C634.15798 137.27672 662.80288 131.55449 681.62258 112.36369 699.6272 94.004039 728.2606 91.33777 749.34548 106.0575L749.4635 106.1399C771.5316 121.546077 800.7754 121.894039 823.20376 107.0173 844.6599 92.78548 873.2566 96.12933 890.8506 114.92734Z"
         id="path6" />
    </clipPath>
    <clipPath
       id="clip_7">
      <path
         transform="matrix(.24,0,0,.24,20.4,22.8)"
         d="M0 0H1388V1377H0Z"
         id="path7" />
    </clipPath>
    <clipPath
       id="clip_8">
      <path
         transform="matrix(.24,0,0,.24,0,.96)"
         d="M103.0814 103.908267H1454.5917V1455.4185H103.0814Z"
         id="path8" />
    </clipPath>
    <clipPath
       id="clip_9">
      <path
         transform="matrix(.24,0,0,.24,0,.96)"
         d="M812.1352 121.34704C832.2284 138.34247 860.6695 141.32558 883.85177 128.86917L883.9757 128.80255C906.1251 116.901149 933.6313 122.74238 949.0325 142.61806 965.1308 163.3935 992.3011 172.204 1017.5278 164.82903L1017.8231 164.74269C1041.9246 157.6967 1067.5868 169.1124 1078.4922 191.73091 1089.8915 215.37387 1114.612 229.6182 1140.7838 227.62404L1141.2009 227.59226C1166.2092 225.68675 1188.9186 242.17142 1194.8551 266.53959 1201.0609 292.01368 1222.265 311.0677 1248.2551 314.52485L1248.7068 314.5849C1273.5477 317.88923 1292.3242 338.72413 1293.0359 363.77369 1293.7799 389.96394 1310.5509 413.00129 1335.2461 421.75538L1335.6404 421.89515C1359.2514 430.2649 1373.2835 454.54804 1368.745 479.18409 1363.9992 504.9466 1375.6088 530.9715 1397.9494 544.6509L1398.2103 544.8107C1419.5786 557.8947 1428.2557 584.57778 1418.6705 607.7277 1408.6453 631.94009 1414.5846 659.8267 1433.6056 677.85299L1433.7083 677.95028C1451.9082 695.19839 1454.8462 723.1275 1440.6337 743.78518 1425.7667 765.39389 1425.7667 793.93307 1440.6337 815.5418 1454.8462 836.19949 1451.9082 864.12857 1433.7083 881.37667L1433.6056 881.474C1414.5846 899.5001 1408.6453 927.38687 1418.6705 951.5992 1428.2557 974.74917 1419.5786 1001.4321 1398.2103 1014.51626L1397.9494 1014.67599C1375.6088 1028.3554 1363.9992 1054.3803 1368.745 1080.1427 1373.2835 1104.7788 1359.2514 1129.062 1335.6404 1137.4318L1335.2461 1137.5715C1310.5509 1146.3256 1293.7799 1169.3629 1293.0359 1195.5532 1292.3242 1220.6028 1273.5477 1241.4378 1248.7068 1244.742L1248.2548 1244.8021C1222.2648 1248.2593 1201.0609 1267.313 1194.8551 1292.7869 1188.9186 1317.1549 1166.2095 1333.6394 1141.2013 1331.7339L1140.7846 1331.7022C1114.6124 1329.708 1089.8915 1343.9526 1078.4922 1367.5962 1067.5868 1390.2151 1041.9242 1401.631 1017.8226 1394.5846L1017.52749 1394.4983C992.301 1387.123 965.1308 1395.9334 949.0325 1416.7086 933.6312 1436.5841 906.1252 1442.4254 883.9758 1430.524L883.8519 1430.4575C860.66958 1418.0012 832.2284 1420.9844 812.1352 1437.9799 792.9131 1454.2385 764.76 1454.2385 745.5379 1437.9799 725.4447 1420.9844 697.0036 1418.0012 673.8212 1430.4575L673.69729 1430.524C651.54788 1442.4254 624.0418 1436.5841 608.6406 1416.7086 592.5423 1395.9334 565.37216 1387.123 540.1456 1394.4983L539.8506 1394.5846C515.74899 1401.631 490.08628 1390.2151 479.181 1367.5962 467.7817 1343.9526 443.06074 1329.708 416.8886 1331.7022L416.47184 1331.7339C391.46369 1333.6394 368.7545 1317.1549 362.81809 1292.7869 356.61228 1267.313 335.4083 1248.2593 309.41838 1244.8021L308.96586 1244.742C284.12495 1241.4378 265.34843 1220.6028 264.63667 1195.5532 263.89247 1169.3629 247.12143 1146.3256 222.42633 1137.5713L222.03351 1137.432C198.4225 1129.0621 184.39032 1104.7789 188.92847 1080.1427 193.67412 1054.3803 182.06443 1028.3555 159.7237 1014.6763L159.46207 1014.51608C138.09363 1001.4321 129.41652 974.749 139.00208 951.5992 149.02753 927.38687 143.08846 899.50009 124.06743 881.4738L123.96491 881.3767C105.76493 864.12857 102.82701 836.19949 117.039608 815.5418 131.90653 793.93307 131.90653 765.39389 117.039608 743.78518 102.82701 723.1275 105.76493 695.19839 123.96491 677.95028L124.06743 677.8531C143.08846 659.82687 149.02753 631.94 139.00208 607.7277 129.41652 584.5778 138.09363 557.8947 159.46207 544.81088L159.7237 544.6506C182.06443 530.9714 193.67412 504.9466 188.92847 479.18409 184.39032 454.5479 198.4225 430.26484 222.03351 421.8949L222.42633 421.7556C247.12143 413.0014 263.89247 389.964 264.63667 363.77369 265.34843 338.72407 284.12495 317.88923 308.96586 314.58494L309.41795 314.5248C335.4081 311.0677 356.61228 292.01368 362.81809 266.53959 368.7545 242.17142 391.4639 225.68675 416.47224 227.59226L416.88938 227.62404C443.0611 229.6182 467.7817 215.37387 479.181 191.73091 490.08638 169.1124 515.74856 157.6967 539.85 164.74269L540.14529 164.82903C565.372 172.204 592.5423 163.3935 608.6406 142.61806 624.0418 122.74238 651.548 116.901149 673.6973 128.80255L673.8213 128.86917C697.0036 141.32558 725.44479 138.34247 745.5379 121.34704 764.76 105.08836 792.9131 105.08836 812.1352 121.34704Z"
         id="path9" />
    </clipPath>
    <clipPath
       id="clip_10">
      <path
         transform="matrix(.24,0,0,.24,24.72,26.159998)"
         d="M0 0H1352V1350H0Z"
         id="path10" />
    </clipPath>
    <clipPath
       id="clip_11">
      <path
         transform="matrix(.24,0,0,.24,0,.96)"
         d="M92.355129 93.18199H1463.8634V1464.6903H92.355129Z"
         id="path11" />
    </clipPath>
    <clipPath
       id="clip_12">
      <path
         transform="matrix(.24,0,0,.24,0,.96)"
         d="M92.355129 93.181987H1465.3069V1466.1338H92.355129Z"
         id="path12" />
    </clipPath>
    <clipPath
       id="clip_13">
      <path
         transform="matrix(.24,0,0,.24,0,.96)"
         d="M812.1294 121.3468C832.2224 138.3421 860.66329 141.32518 883.84536 128.86887L883.96939 128.80226C906.1185 116.90095 933.6245 122.74213 949.0256 142.61765 965.1238 163.39292 992.2938 172.20334 1017.5203 164.82845L1017.8156 164.74211C1041.9169 157.69617 1067.579 169.11176 1078.4841 191.7301 1089.8834 215.3729 1114.6038 229.6171 1140.7753 227.62296L1141.1924 227.59116C1166.2006 225.68567 1188.9097 242.17023 1194.8462 266.53819 1201.0519 292.01206 1222.2559 311.0659 1248.2459 314.52305L1248.6975 314.58314C1273.5382 317.8874 1292.3145 338.7221 1293.0261 363.77146 1293.7702 389.96153 1310.541 412.9987 1335.236 421.7527L1335.6303 421.89247C1359.2411 430.26216 1373.2731 454.54508 1368.7348 479.1809 1363.9889 504.94328 1375.5983 530.96798 1397.9387 544.6472L1398.1997 544.80709C1419.5679 557.891 1428.245 584.5738 1418.6598 607.7236 1408.6347 631.93569 1414.5739 659.82217 1433.5947 677.8482L1433.6974 677.94558C1451.8972 695.19357 1454.8351 723.1224 1440.6227 743.7799 1425.756 765.3884 1425.756 793.92739 1440.6227 815.53598 1454.8351 836.1935 1451.8972 864.12228 1433.6974 881.37026L1433.5947 881.46768C1414.5739 899.4936 1408.6347 927.3801 1418.6598 951.5923 1428.245 974.74209 1419.5679 1001.42477 1398.1997 1014.5088L1397.9387 1014.6685C1375.5983 1028.3478 1363.9889 1054.3726 1368.7348 1080.1348 1373.2731 1104.7706 1359.2411 1129.0536 1335.6303 1137.4234L1335.236 1137.5631C1310.541 1146.317 1293.7702 1169.3543 1293.0261 1195.5443 1292.3145 1220.5936 1273.5382 1241.4285 1248.6975 1244.7327L1248.2454 1244.7927C1222.2556 1248.2499 1201.0519 1267.3035 1194.8462 1292.7771 1188.9097 1317.1449 1166.2008 1333.6293 1141.1928 1331.7239L1140.776 1331.6921C1114.6041 1329.698 1089.8834 1343.9426 1078.4841 1367.5859 1067.579 1390.2046 1041.9165 1401.6204 1017.81509 1394.574L1017.51998 1394.4878C992.2937 1387.1127 965.1238 1395.9229 949.0256 1416.6979 933.62448 1436.5733 906.1186 1442.4144 883.9694 1430.5133L883.8455 1430.4467C860.6633 1417.9905 832.2224 1420.9736 812.1294 1437.969 792.9074 1454.2276 764.7546 1454.2276 745.5326 1437.969 725.4396 1420.9736 696.9987 1417.9905 673.8165 1430.4467L673.69259 1430.5133C651.54336 1442.4144 624.03756 1436.5733 608.6365 1416.6979 592.53829 1395.9229 565.3683 1387.1127 540.142 1394.4878L539.847 1394.574C515.7455 1401.6204 490.08308 1390.2046 479.17787 1367.5859 467.7787 1343.9426 443.0579 1329.698 416.886 1331.6921L416.4692 1331.7239C391.46128 1333.6293 368.75227 1317.1449 362.81593 1292.7771 356.61015 1267.3035 335.40635 1248.2499 309.4166 1244.7927L308.9641 1244.7327C284.1234 1241.4285 265.34706 1220.5936 264.63526 1195.5443 263.89109 1169.3541 247.12018 1146.317 222.42527 1137.5629L222.03244 1137.4236C198.42163 1129.0537 184.38957 1104.7708 188.9277 1080.1348 193.6733 1054.3724 182.06369 1028.3479 159.72315 1014.6688L159.46152 1014.5086C138.09325 1001.42477 129.41623 974.7419 139.00171 951.5923 149.02707 927.3801 143.08805 899.4935 124.06718 881.46749L123.96465 881.3703C105.764827 864.12228 102.82693 836.1935 117.039409 815.53598 131.9062 793.92739 131.9062 765.3884 117.039409 743.7799 102.82693 723.1224 105.764827 695.1935 123.96465 677.9455L124.06718 677.8483C143.08805 659.82229 149.02707 631.93569 139.00171 607.7236 129.41623 584.57388 138.09325 557.891 159.46152 544.8072L159.72315 544.647C182.06369 530.96786 193.6733 504.94328 188.9277 479.1809 184.38957 454.54496 198.42163 430.2621 222.03244 421.8922L222.42527 421.75297C247.12018 412.99879 263.89109 389.96159 264.63526 363.77146 265.34706 338.72209 284.1234 317.8874 308.9641 314.58314L309.4162 314.523C335.40617 311.0659 356.61015 292.01206 362.81593 266.53819 368.75227 242.17023 391.4615 225.68567 416.4696 227.59116L416.88676 227.62296C443.05827 229.6171 467.7787 215.3729 479.17787 191.7301 490.08314 169.11176 515.7451 157.69617 539.8464 164.74211L540.1417 164.82845C565.36819 172.20334 592.53829 163.39292 608.6365 142.61765 624.0375 122.74213 651.5434 116.90095 673.6926 128.80226L673.8166 128.86887C696.9987 141.32518 725.43966 138.3421 745.5326 121.3468 764.7546 105.08826 792.9074 105.08826 812.1294 121.3468Z"
         id="path13" />
    </clipPath>
    <clipPath
       id="clip_14">
      <path
         transform="matrix(.24,0,0,.24,9.599999,10.8)"
         d="M0 0H1478V1478H0Z"
         id="path14" />
    </clipPath>
    <clipPath
       id="clip_15">
      <path
         transform="matrix(.24,0,0,.24,9.599999,10.8)"
         d="M116.91737 116.74423H1360.7556V1360.5825H116.91737Z"
         id="path15" />
    </clipPath>
    <clipPath
       id="clip_16">
      <path
         transform="matrix(.24,0,0,.24,9.599999,10.8)"
         d="M738.8365 116.74423C395.36006 116.74423 116.91737 395.18693 116.91737 738.6633 116.91737 1082.1398 395.36006 1360.5825 738.8365 1360.5825 1082.313 1360.5825 1360.7556 1082.1398 1360.7556 738.6633 1360.7556 395.18693 1082.313 116.74423 738.8365 116.74423Z"
         id="path16" />
    </clipPath>
    <clipPath
       id="clip_17">
      <path
         transform="matrix(.24,0,0,.24,37.44,38.64)"
         d="M0 0H1245V1245H0Z"
         id="path17" />
    </clipPath>
    <clipPath
       id="clip_18">
      <path
         transform="matrix(.24,0,0,.24,9.599999,10.8)"
         d="M116.91737 116.74423H1360.513V1360.3399H116.91737Z"
         id="path18" />
    </clipPath>
    <clipPath
       id="clip_19">
      <path
         transform="matrix(.24,0,0,.24,9.599999,10.8)"
         d="M116.91737 116.74423H1360.7351V1360.562H116.91737Z"
         id="path19" />
    </clipPath>
    <clipPath
       id="clip_20">
      <path
         transform="matrix(.24,0,0,.24,9.599999,10.8)"
         d="M738.82626 116.74423C395.35548 116.74423 116.91737 395.1823 116.91737 738.6531 116.91737 1082.1239 395.35548 1360.562 738.82626 1360.562 1082.297 1360.562 1360.7351 1082.1239 1360.7351 738.6531 1360.7351 395.1823 1082.297 116.74423 738.82626 116.74423Z"
         id="path20" />
    </clipPath>
    <clipPath
       id="clip_21">
      <path
         transform="matrix(.24,0,0,.24,9.599999,10.8)"
         d="M115.65671 148.09024 1329.4097 115.48305 1362.0169 1329.236 148.2639 1361.8432 115.65671 148.09024Z"
         id="path21" />
    </clipPath>
    <clipPath
       id="clip_22">
      <path
         transform="matrix(.24,0,0,.24,9.599999,10.8)"
         d="M722.5332 131.78665C387.36457 140.79088 122.95608 419.7981 131.9603 754.9667 140.96454 1090.1353 419.97178 1354.5438 755.1404 1345.5396 1090.309 1336.5353 1354.7175 1057.5281 1345.7133 722.3595 1336.709 387.19093 1057.7018 122.78242 722.5332 131.78665Z"
         id="path22" />
    </clipPath>
    <clipPath
       id="clip_23">
      <path
         transform="matrix(.24,0,0,.24,38.879999,40.079999)"
         d="M0 0H1233V1233H0Z"
         id="path23" />
    </clipPath>
    <clipPath
       id="clip_24">
      <path
         transform="matrix(.24,0,0,.24,0,0)"
         d="M0 0H1562.5V1562.5H0Z"
         id="path24" />
    </clipPath>
    <clipPath
       id="clip_25">
      <path
         transform="matrix(.24,0,0,.24,0,0)"
         d="M0 0H1562.5V1562.5H0Z"
         id="path25" />
    </clipPath>
    <clipPath
       id="clip_26">
      <path
         transform="matrix(.24,0,0,.24,0,0)"
         d="M61.354536 735.22897 1100.0236 838.0906 1084.9331 990.47018 46.264059 887.6085 61.354536 735.22897Z"
         id="path26" />
    </clipPath>
    <clipPath
       id="clip_27">
      <path
         transform="matrix(.24,0,0,.24,0,0)"
         d="M61.354536 735.22897 1100.0236 838.0906 1084.9331 990.47018 46.264059 887.6085 61.354536 735.22897Z"
         id="path27" />
    </clipPath>
    <clipPath
       id="clip_28">
      <path
         transform="matrix(.24,0,0,.24,0,0)"
         d="M0 0H1562.5V1562.5H0Z"
         id="path28" />
    </clipPath>
    <clipPath
       id="clip_29">
      <path
         transform="matrix(.24,0,0,.24,0,0)"
         d="M0 0H1562.5V1562.5H0Z"
         id="path29" />
    </clipPath>
    <clipPath
       id="clip_30">
      <path
         transform="matrix(.24,0,0,.24,0,0)"
         d="M469.3627 845.52816 1506.4513 727.794 1523.7236 879.9417 486.63508 997.6759 469.3627 845.52816Z"
         id="path30" />
    </clipPath>
    <clipPath
       id="clip_31">
      <path
         transform="matrix(.24,0,0,.24,0,0)"
         d="M469.3627 845.52816 1506.4513 727.794 1523.7236 879.9417 486.63508 997.6759 469.3627 845.52816Z"
         id="path31" />
    </clipPath>
    <clipPath
       id="clip_32">
      <path
         transform="matrix(.24,0,0,.24,0,0)"
         d="M0 0H1562.5V1562.5H0Z"
         id="path32" />
    </clipPath>
    <clipPath
       id="clip_33">
      <path
         transform="matrix(.24,0,0,.24,0,0)"
         d="M0 0H1562.5V1562.5H0Z"
         id="path33" />
    </clipPath>
    <clipPath
       id="clip_34">
      <path
         transform="matrix(.24,0,0,.24,0,0)"
         d="M395.08854 399.9154H1162.5846V1167.4114H395.08854Z"
         id="path34" />
    </clipPath>
    <clipPath
       id="clip_35">
      <path
         transform="matrix(.24,0,0,.24,0,0)"
         d="M797.7462 409.81855C809.15676 419.4699 825.30789 421.16395 838.47268 414.0902L838.543 414.05238C851.1212 407.2938 866.74148 410.61094 875.4874 421.89793 884.6294 433.6959 900.05886 438.6992 914.38467 434.5111L914.55239 434.46208C928.239 430.4608 942.81216 436.94355 949.005 449.78816 955.4785 463.21455 969.51687 471.3036 984.3793 470.17115L984.6161 470.1531C998.8179 469.07099 1011.714 478.4323 1015.0852 492.2705 1018.6094 506.73677 1030.6508 517.5571 1045.4102 519.5204L1045.6666 519.5545C1059.7733 521.43099 1070.436 533.2627 1070.8402 547.4878 1071.2627 562.3608 1080.7866 575.44326 1094.8106 580.4145L1095.0344 580.4939C1108.4426 585.2469 1116.4113 599.0368 1113.834 613.0271 1111.1389 627.65719 1117.7317 642.43618 1130.4185 650.20449L1130.5667 650.29519C1142.7013 657.72537 1147.6289 672.8781 1142.1857 686.02456 1136.4926 699.7742 1139.8654 715.61056 1150.667 725.8472L1150.7252 725.9025C1161.0607 735.6974 1162.729 751.55776 1154.6581 763.2888 1146.2155 775.56008 1146.2155 791.76687 1154.6581 804.038 1162.729 815.7691 1161.0607 831.62948 1150.7252 841.4243L1150.667 841.4796C1139.8654 851.7163 1136.4926 867.5526 1142.1857 881.30239 1147.6289 894.4487 1142.7013 909.60147 1130.5667 917.0317L1130.4185 917.1224C1117.7317 924.8907 1111.1389 939.66976 1113.834 954.2997 1116.4113 968.29006 1108.4426 982.07998 1095.0344 986.833L1094.8106 986.91238C1080.7866 991.8836 1071.2627 1004.96609 1070.8402 1019.83908 1070.436 1034.0642 1059.7733 1045.896 1045.6666 1047.7723L1045.4099 1047.8064C1030.6506 1049.7698 1018.6094 1060.59 1015.0852 1075.0562 1011.714 1088.8942 998.818 1098.2554 984.61636 1097.1734L984.37966 1097.1553C969.51699 1096.023 955.4785 1104.112 949.005 1117.5388 942.81216 1130.3836 928.2388 1136.8665 914.552 1132.865L914.3844 1132.8159C900.05886 1128.6277 884.6294 1133.6309 875.4874 1145.4287 866.7414 1156.7157 851.1212 1160.0328 838.5431 1153.2744L838.4727 1153.2366C825.30789 1146.1629 809.15676 1147.8569 797.7462 1157.5083 786.8303 1166.7413 770.8428 1166.7413 759.9269 1157.5083 748.51638 1147.8569 732.36526 1146.1629 719.20046 1153.2366L719.13 1153.2744C706.5518 1160.0328 690.93167 1156.7157 682.18569 1145.4287 673.0437 1133.6309 657.61428 1128.6277 643.2887 1132.8159L643.12118 1132.865C629.4343 1136.8665 614.86099 1130.3836 608.6681 1117.5388 602.19467 1104.112 588.15609 1096.023 573.29348 1097.1553L573.05679 1097.1734C558.8551 1098.2554 545.959 1088.8942 542.5879 1075.0562 539.0637 1060.59 527.0224 1049.7698 512.2632 1047.8064L512.0062 1047.7723C497.8996 1045.896 487.23677 1034.0642 486.83259 1019.83908 486.40995 1004.96609 476.88603 991.88357 462.86216 986.91226L462.63908 986.8331C449.23085 982.08 441.26228 968.2901 443.8394 954.2997 446.53434 939.6697 439.94145 924.89077 427.25459 917.12258L427.106 917.03158C414.97129 909.60147 410.04374 894.44869 415.48719 881.30239 421.18043 867.5526 417.80775 851.71627 407.00608 841.4795L406.94786 841.4244C396.61247 831.62948 394.94407 815.7691 403.0151 804.038 411.45774 791.76687 411.45774 775.56 403.0151 763.2888 394.94407 751.55776 396.61247 735.6974 406.94786 725.90249L407.00608 725.8473C417.80775 715.6106 421.18043 699.7742 415.48719 686.02456 410.04374 672.8782 414.97129 657.72537 427.106 650.2953L427.25459 650.2043C439.94145 642.4361 446.53434 627.65719 443.8394 613.0271 441.26228 599.03677 449.23085 585.2468 462.63908 580.4937L462.86216 580.4147C476.88603 575.4433 486.40995 562.3608 486.83259 547.4878 487.23677 533.2627 497.8996 521.43099 512.0062 519.5545L512.263 519.5204C527.0223 517.5571 539.0637 506.73677 542.5879 492.2705 545.959 478.4323 558.8552 469.07099 573.057 470.1531L573.2939 470.17115C588.15628 471.3036 602.19467 463.21455 608.6681 449.78816 614.86099 436.94355 629.4341 430.4608 643.1208 434.46208L643.28848 434.5111C657.61428 438.6992 673.0437 433.6959 682.18569 421.89793 690.93167 410.61094 706.5519 407.2938 719.13009 414.05238L719.20046 414.0902C732.36526 421.16395 748.5164 419.4699 759.9269 409.81855 770.8428 400.58555 786.8303 400.58555 797.7462 409.81855Z"
         id="path35" />
    </clipPath>
    <clipPath
       id="clip_36">
      <path
         transform="matrix(.24,0,0,.24,94.799999,96)"
         d="M0 0H768V767H0Z"
         id="path36" />
    </clipPath>
    <clipPath
       id="clip_37">
      <path
         transform="matrix(.24,0,0,.24,0,0)"
         d="M0 0H1562.5V1562.5H0Z"
         id="path37" />
    </clipPath>
    <clipPath
       id="clip_38">
      <path
         transform="matrix(.24,0,0,.24,0,0)"
         d="M0 0H1562.5V1562.5H0Z"
         id="path38" />
    </clipPath>
    <clipPath
       id="clip_39">
      <path
         transform="matrix(.24,0,0,.24,0,0)"
         d="M638.68228 433.17533 989.959 469.25727 924.18136 1109.638 572.90457 1073.556 638.68228 433.17533Z"
         id="path39" />
    </clipPath>
    <clipPath
       id="clip_40">
      <path
         transform="matrix(.24,0,0,.24,0,0)"
         d="M638.68228 433.17533 989.959 469.25727 924.18136 1109.638 572.90457 1073.556 638.68228 433.17533Z"
         id="path40" />
    </clipPath>
    <clipPath
       id="clip_41">
      <path
         transform="matrix(.24,0,0,.24,0,0)"
         d="M638.68228 433.17533 989.9591 469.25727 924.1814 1109.638 572.90457 1073.556 638.68228 433.17533Z"
         id="path41" />
    </clipPath>
    <clipPath
       id="clip_42">
      <path
         transform="matrix(.24,0,0,.24,0,0)"
         d="M0 0H1562.5V1562.5H0Z"
         id="path42" />
    </clipPath>
    <clipPath
       id="clip_43">
      <path
         transform="matrix(.24,0,0,.24,0,0)"
         d="M0 0H1562.5V1562.5H0Z"
         id="path43" />
    </clipPath>
    <clipPath
       id="clip_44">
      <path
         transform="matrix(.24,0,0,.24,0,0)"
         d="M690.9972 839.82839 856.00857 854.0724 845.5271 975.49588 680.51577 961.25186 690.9972 839.82839Z"
         id="path44" />
    </clipPath>
    <clipPath
       id="clip_45">
      <path
         transform="matrix(.24,0,0,.24,0,0)"
         d="M690.9972 839.82839 856.00857 854.0724 845.5271 975.49588 680.51577 961.25186 690.9972 839.82839Z"
         id="path45" />
    </clipPath>
    <clipPath
       id="clip_46">
      <path
         transform="matrix(.24,0,0,.24,0,0)"
         d="M0 0H1562.5V1562.5H0Z"
         clip-rule="evenodd"
         id="path46" />
    </clipPath>
    <clipPath
       id="clip_47">
      <path
         transform="matrix(.24,0,0,.24,46.32,43.2)"
         d="M0 0H1159V551H0Z"
         clip-rule="evenodd"
         id="path47" />
    </clipPath>
    <clipPath
       id="clip_48">
      <path
         transform="matrix(.24,0,0,.24,59.039999,223.2)"
         d="M0 0H1052V438H0Z"
         clip-rule="evenodd"
         id="path48" />
    </clipPath>
    <clipPath
       id="clip_49">
      <path
         transform="matrix(.24,0,0,.24,40.8,185.04)"
         d="M0 0H213V124H0Z"
         clip-rule="evenodd"
         id="path49" />
    </clipPath>
    <clipPath
       id="clip_50">
      <path
         transform="matrix(.24,0,0,.24,285.12,185.28)"
         d="M0 0H206V123H0Z"
         clip-rule="evenodd"
         id="path50" />
    </clipPath>
    <inkscape:path-effect
       effect="fillet_chamfer"
       id="path-effect4"
       is_visible="true"
       lpeversion="1"
       nodesatellites_param="F,0,0,1,0,0,0,1 @ F,0,0,1,0,4.9653405,0,1 @ F,0,0,1,0,5.7456846,0,1 @ F,0,0,1,0,0,0,1"
       radius="0"
       unit="px"
       method="auto"
       mode="F"
       chamfer_steps="1"
       flexible="false"
       use_knot_distance="true"
       apply_no_radius="true"
       apply_with_radius="true"
       only_selected="false"
       hide_knots="false" />
  </defs>
  <g
     id="g164">
    <g
       clip-path="url(#clip_3)"
       id="g79">
      <g
         id="g65">
        <g
           clip-path="url(#clip_4)"
           id="g64">
          <g
             clip-path="url(#clip_5)"
             id="g56">
            <g
               clip-path="url(#clip_6)"
               id="g55">
              <g
                 id="g54">
                <g
                   clip-path="url(#clip_7)"
                   id="g53">
                  <path
                     transform="matrix(1.307438,.15288045,-.15288045,1.307438,39.13732,1.1585178)"
                     d="M0 0H256V256H0Z"
                     fill="#6b4623"
                     id="path53" />
                </g>
              </g>
            </g>
          </g>
          <g
             clip-path="url(#clip_8)"
             id="g60">
            <g
               clip-path="url(#clip_9)"
               id="g59">
              <g
                 id="g58">
                <g
                   clip-path="url(#clip_10)"
                   id="g57">
                  <path
                     transform="matrix(1.2871527,0,0,1.2871527,22.16523,23.323676)"
                     d="M0 0H256V256H0Z"
                     fill="#6b4623"
                     id="path56" />
                </g>
              </g>
            </g>
          </g>
          <g
             clip-path="url(#clip_11)"
             id="g63">
            <g
               clip-path="url(#clip_12)"
               id="g62">
              <g
                 clip-path="url(#clip_13)"
                 id="g61">
                <path
                   transform="matrix(.85275128,0,0,.85275128,22.16523,23.323676)"
                   stroke-width="3.5180245"
                   stroke-linecap="butt"
                   stroke-miterlimit="4"
                   stroke-linejoin="miter"
                   fill="none"
                   stroke="#efdeb6"
                   d="M202.57469 7.9267628C208.2297 12.709952 216.23416 13.549516 222.75858 10.043789L222.79347 10.02504C229.02718 6.6755115 236.76851 8.319466 241.10301 13.91327 245.63373 19.760304 253.28052 22.239928 260.3803 20.16432L260.46345 20.140023C267.24653 18.157002 274.4689 21.369828 277.5381 27.735577 280.7463 34.38965 287.70368 38.398565 295.06944 37.837335L295.18684 37.828386C302.22517 37.2921 308.6165 41.93154 310.28727 48.789709 312.0338 55.959127 318.00148 61.32168 325.31617 62.29466L325.44328 62.31157C332.43449 63.241529 337.71894 69.10529 337.91923 76.155239 338.1286 83.526218 342.84864 90.00985 349.79887 92.47359L349.90983 92.512928C356.55488 94.86851 360.5041 101.70274 359.22679 108.6363 357.8911 115.88691 361.1585 123.211338 367.44606 127.061267L367.51948 127.10625C373.5334 130.7886 375.97547 138.29828 373.2778 144.8136 370.4563 151.6279 372.12785 159.47632 377.4811 164.5496L377.51 164.577C382.6322 169.4313 383.45906 177.29166 379.45909 183.10555 375.27497 189.1871 375.27497 197.21915 379.45909 203.3007 383.45906 209.11461 382.6322 216.97495 377.51 221.82926L377.4811 221.85666C372.12785 226.92992 370.4563 234.77835 373.2778 241.59267 375.97547 248.10799 373.5334 255.61763 367.51948 259.30003L367.44606 259.34498C361.1585 263.19493 357.8911 270.51936 359.22679 277.76994 360.5041 284.70353 356.55488 291.53776 349.90983 293.89335L349.79887 293.93269C342.84864 296.3964 338.1286 302.88005 337.91923 310.251 337.71894 317.30094 332.43449 323.16474 325.44328 324.09468L325.31605 324.1116C318.00144 325.08457 312.0338 330.44709 310.28727 337.61643 308.6165 344.47456 302.22526 349.11393 295.18696 348.57768L295.06965 348.56874C287.70378 348.0075 280.7463 352.0165 277.5381 358.67076 274.4689 365.0366 267.24644 368.24949 260.46327 366.26634L260.38023 366.24208C253.2805 364.16639 245.63373 366.64595 241.10301 372.4929 236.7685 378.08668 229.0272 379.73063 222.79349 376.38114L222.75862 376.3624C216.23418 372.85673 208.2297 373.6963 202.57469 378.4795 197.16481 383.05534 189.24144 383.05534 183.83156 378.4795 178.17655 373.6963 170.17209 372.85673 163.64765 376.3624L163.61277 376.38114C157.37905 379.73063 149.63774 378.08668 145.30324 372.4929 140.77252 366.64595 133.12575 364.16639 126.02603 366.24208L125.94299 366.26634C119.15982 368.24949 111.93733 365.0366 108.86815 358.67076 105.65994 352.0165 98.70247 348.0075 91.3366 348.56874L91.2193 348.57768C84.18102 349.11393 77.78975 344.47456 76.11901 337.61643 74.37245 330.44709 68.404819 325.08457 61.09021 324.1116L60.962858 324.09468C53.97164 323.16474 48.687185 317.30094 48.48686 310.251 48.277418 302.88 43.557386 296.3964 36.607198 293.9326L36.496644 293.8934C29.851569 291.53779 25.902356 284.70353 27.179574 277.76994 28.515187 270.51933 25.247757 263.19496 18.96019 259.34507L18.886555 259.29997C12.872627 255.61763 10.430549 248.10794 13.1283049 241.59267 15.949864 234.77835 14.278372 226.9299 8.925102 221.85662L8.896249 221.82927C3.7740513 216.97495 2.947204 209.11461 6.947192 203.3007 11.131332 197.21915 11.131332 189.18709 6.947192 183.10555 2.947204 177.29166 3.7740513 169.43129 8.896249 164.577L8.925102 164.54964C14.278372 159.47635 15.949864 151.62789 13.1283049 144.8136 10.430549 138.2983 12.872627 130.7886 18.886555 127.106288L18.96019 127.06119C25.247757 123.2113 28.515187 115.88691 27.179574 108.6363 25.902356 101.702709 29.851569 94.868488 36.496644 92.512859L36.607198 92.47366C43.557386 90.00987 48.277418 83.52623 48.48686 76.155239 48.687185 69.10529 53.97164 63.241537 60.962858 62.311578L61.090097 62.294656C68.40476 61.32168 74.37245 55.959127 76.11901 48.789709 77.78975 41.93154 84.181079 37.2921 91.21941 37.828386L91.33682 37.837335C98.702579 38.398565 105.65994 34.38965 108.86815 27.735577 111.937358 21.369828 119.15972 18.157002 125.94282 20.140023L126.02594 20.16432C133.12574 22.239928 140.77252 19.760304 145.30324 13.91327 149.63774 8.319466 157.37906 6.6755115 163.61278 10.02504L163.64766 10.043789C170.17209 13.549516 178.17656 12.709952 183.83156 7.9267628 189.24144 3.3509248 197.16481 3.3509248 202.57469 7.9267628Z"
                   id="path60" />
              </g>
            </g>
          </g>
        </g>
      </g>
      <g
         id="g78">
        <g
           clip-path="url(#clip_14)"
           id="g77">
          <g
             clip-path="url(#clip_15)"
             id="g69">
            <g
               clip-path="url(#clip_16)"
               id="g68">
              <g
                 id="g67">
                <g
                   clip-path="url(#clip_17)"
                   id="g66">
                  <path
                     transform="matrix(1.1660984,0,0,1.1660984,37.660169,38.818616)"
                     d="M0 0H256V256H0Z"
                     fill="#c23737"
                     id="path65" />
                </g>
              </g>
            </g>
          </g>
          <g
             clip-path="url(#clip_18)"
             id="g72">
            <g
               clip-path="url(#clip_19)"
               id="g71">
              <g
                 clip-path="url(#clip_20)"
                 id="g70">
                <path
                   transform="matrix(.85275128,0,0,.85275128,37.660169,38.818616)"
                   d="M159.90238 8.59062C157.3845 8.816416 154.87541 9.098676 152.37512 9.437401L150.24985-6.2504045C152.98664-6.621167 155.7328-6.9301044 158.48838-7.1772158L159.90238 8.59062ZM144.91732 10.620188C142.43811 11.071198 139.97151 11.578074 137.51749 12.140816L133.97904-3.2897855C136.66695-3.9061623 139.36856-4.461331 142.08385-4.9552919L144.91732 10.620188ZM130.18912 13.998062C127.76509 14.6715559 125.35774 15.39983 122.967067 16.182887L118.03925 1.138258C120.65825 .28041686 123.29554-.5174186 125.95112-1.2552486L130.18912 13.998062ZM115.83328 18.701203C113.48196 19.592089 111.151538 20.53617 108.842029 21.533448L102.566059 6.999478C105.09579 5.9071056 107.648509 4.872969 110.22421 3.89707L115.83328 18.701203ZM101.96442 24.691002C99.70338 25.792037 97.46768 26.94411 95.25734 28.147229L87.68883 14.242496C90.109279 12.925018 92.55747 11.663438 95.03342 10.457755L101.96442 24.691002ZM88.693668 31.915358C86.539447 33.217859 84.41505 34.568777 82.32047 35.9681L73.526149 22.804368C75.81894 21.272618 78.14441 19.793839 80.50256 18.368033L88.693668 31.915358ZM76.12721 40.311017C74.09752 41.80374 72.102069 43.341699 70.14086 44.924894L60.19686 32.60658C62.343053 30.87406 64.52669 29.191058 66.74777 27.557576L76.12721 40.311017ZM64.36552 49.805707C62.47732 51.47568 60.62744 53.18741 58.815885 54.94089L47.805425 43.565755C49.7875 41.647226 51.811517 39.77436 53.87748 37.947164L64.36552 49.805707ZM53.50328 60.319608C51.77213 62.152948 50.08325 64.024059 48.43664 65.93293L36.449178 55.592489C38.25083 53.503866 40.098714 51.4566 41.992815 49.450696L53.50328 60.319608ZM43.62904 71.766597C42.069688 73.74797 40.55613 75.76293 39.088376 77.811489L26.219471 68.5911C27.8257 66.34928 29.482064 64.1442 31.188555 61.97587L43.62904 71.766597ZM34.8251 84.05456C33.451086 86.16756 32.125986 88.30972 30.849806 90.48105L17.20149 82.45935C18.59855 80.08236 20.04913 77.737339 21.553227 75.42429L34.8251 84.05456ZM27.166707 97.08572C25.99036 99.31247 24.865487 101.563938 23.792084 103.84011L9.473286 97.08762C10.648782 94.594959 11.880621 92.129398 13.168803 89.69094L27.166707 97.08572ZM20.720767 110.7569C19.752776 113.07806 18.838196 115.41955 17.977028 117.78137L3.1037589 112.35828C4.047116 109.77104 5.048967 107.206119 6.1093127 104.6635L20.720767 110.7569ZM15.545401 124.95558C14.793795 127.35188 14.096961 129.76422 13.454901 132.19261L-1.8502822 128.14595C-1.1469119 125.48568-.38352133 122.842929 .43988944 120.2177L15.545401 124.95558ZM11.686778 139.55626C11.156161 142.0116 10.68124 144.47893 10.262014 146.95825L-5.347525 144.31885C-4.888424 141.60369-4.368289 138.90149-3.7871199 136.21224L11.686778 139.55626ZM9.169957 154.44626C8.863384 156.94347 8.612955 159.44872 8.41867 161.962L-7.36535 160.74185C-7.1527535 157.99172-6.8786995 155.25017-6.543187 152.51721L9.169957 154.44626ZM8.005037 169.50673C7.9453828 171.34583 7.9155557 173.18733 7.9155557 175.03125L7.9289467 177.18242-7.901864 177.27986-7.9155557 175.03125C-7.9155557 173.01622-7.882954 171.00363-7.8177516 168.99349L8.005037 169.50673ZM8.191444 184.71901C8.334559 187.22473 8.533258 189.7231 8.78754 192.2141L-6.9617269 193.8218C-7.2399537 191.09622-7.4573476 188.36287-7.613908 185.62175L8.191444 184.71901ZM9.730012 199.75045C10.098564 202.23722 10.5228819 204.71288 11.002964 207.17746L-4.5360815 210.20438C-5.0618207 207.50542-5.526476 204.7944-5.9300487 202.07134L9.730012 199.75045ZM12.619595 214.57427C13.212968 217.02036 13.86156 219.4512 14.5653719 221.86684L-.6337557 226.29521C-1.4048061 223.6488-2.1153284 220.98586-2.7653223 218.30635L12.619595 214.57427ZM16.844447 229.07302C17.658566 231.4567 18.526701 233.82097 19.448849 236.16584L4.7160608 241.95972C3.7058888 239.39104 2.7548745 236.80104 1.8630176 234.18975L16.844447 229.07302ZM22.372048 243.12949C23.40009 245.43045 24.48024 247.70755 25.6125 249.96079L11.466912 257.06898C10.226836 254.60117 9.043864 252.10732 7.9179975 249.5874L22.372048 243.12949ZM29.155175 256.6297C30.388035 258.82878 31.670468 260.99949 33.002473 263.14186L19.558114 271.50086C18.09984 269.15544 16.695843 266.77894 15.346116 264.3714L29.155175 256.6297ZM37.134477 269.46464C38.561124 271.54374 40.034318 273.5901 41.554067 275.60374L28.917904 285.1406C27.254603 282.93678 25.642292 280.69715 24.080973 278.42179L37.134477 269.46464ZM46.24075 281.53123C47.848676 283.4734 49.49971 285.3787 51.19386 287.2471L39.46603 297.88114C37.61253 295.83699 35.805994 293.75224 34.046415 291.62687L46.24075 281.53123ZM56.39695 292.7324C58.172605 294.52204 59.98734 296.27067 61.841154 297.97828L51.115407 309.62226C49.08697 307.75379 47.10146 305.8406 45.158868 303.88273L56.39695 292.7324ZM67.517459 302.97566C69.44607 304.59809 71.40983 306.17604 73.40872 307.70945L63.77284 320.27024C61.585168 318.59199 59.436288 316.86534 57.32619 315.0902L67.517459 302.97566ZM79.511379 312.1762C81.57811 313.61845 83.675518 315.01283 85.80358 316.3593L77.33881 329.73738C75.00995 328.26383 72.71426 326.7376 70.451747 325.15876L79.511379 312.1762ZM92.282619 320.2565C94.471 321.50624 96.68576 322.70533 98.92689 323.8538L91.70699 337.94273C89.25325 336.6853 86.82822 335.37236 84.43189 334.00389L92.282619 320.2565ZM105.72849 327.1465C108.02187 328.1931 110.33714 329.1867 112.6743 330.1273L106.76378 344.8137C104.203968 343.7835 101.668018 342.6952 99.15594 341.5488L105.72849 327.1465ZM119.74075 332.786C122.12145 333.62034 124.52003 334.39997 126.93649 335.12486L122.38777 350.28843C119.74085 349.4944 117.1132 348.64033 114.50482 347.7262L119.74075 332.786ZM134.20601 337.12648C136.65735 337.74183 139.1222 338.30104 141.60051 338.80409L138.45125 354.3188C135.73654 353.76774 133.03667 353.1552 130.35161 352.4812L134.20601 337.12648ZM149.00769 340.13389C151.5041 340.52409 154.01006 340.85768 156.52552 341.1346L154.79288 356.87065C152.03917 356.56745 149.29589 356.20228 146.56299 355.77513L149.00769 340.13389ZM164.02877 341.7908C166.54648 341.9543 169.06975 342.06153 171.59859 342.11244L171.27999 357.9403C168.51447 357.88465 165.7554 357.76744 163.00279 357.58866L164.02877 341.7908ZM179.22942 342.0953C181.75649 342.03303 184.27675 341.91456 186.7902 341.73997L187.88735 357.533C185.13832 357.72398 182.38239 357.85353 179.61952 357.9216L179.22942 342.0953ZM194.2982 341.04905C196.81066 340.76078 199.31296 340.41606 201.80513 340.01487L204.32115 355.64476C201.59189 356.0841 198.8524 356.4615 196.10268 356.77696L194.2982 341.04905ZM209.20819 338.6508C211.68413 338.1364 214.14601 337.56605 216.59383 336.9396L220.51866 352.27647C217.83652 352.96284 215.13974 353.58769 212.42832 354.15098L209.20819 338.6508ZM223.84996 334.90589C226.2642 334.16966 228.66068 333.37858 231.03937 332.53263L236.34397 347.44859C233.73845 348.37519 231.11304 349.24186 228.46776 350.04853L223.84996 334.90589ZM238.09062 329.84278C240.42444 328.8911 242.73619 327.88648 245.02588 326.82887L251.6644 341.20088C249.1567 342.3592 246.62462 343.45957 244.06816 344.502L238.09062 329.84278ZM251.8103 323.50614C254.04701 322.34703 256.257 321.13746 258.4402 319.8774L266.35365 333.58879C263.9632 334.9684 261.54344 336.29283 259.09437 337.56199L251.8103 323.50614ZM264.90013 315.95158C267.0227 314.595 269.1141 313.19087 271.17433 311.73918L280.2931 324.68028C278.03776 326.26945 275.7486 327.80638 273.42558 329.29106L264.90013 315.95158ZM277.256 307.24525C279.24827 305.70256 281.20506 304.1156 283.12635 302.4844L293.37226 314.55278C291.2698 316.3377 289.12864 318.07423 286.9487 319.76228L277.256 307.24525ZM288.77967 297.46165C290.62617 295.74525 292.43293 293.9885 294.19996 292.19136L305.4884 303.29066C303.55494 305.25706 301.57814 307.17918 299.55799 309.05699L288.77967 297.46165ZM299.37843 286.6823C301.06404 284.80638 302.7063 282.89378 304.30528 280.94453L316.5452 290.98487C314.7955 293.11787 312.9985 295.21067 311.15419 297.26325L299.37843 286.6823ZM308.96525 274.99559C310.4762 272.9746 311.94029 270.92134 313.35755 268.83567L326.4516 277.73338C324.9003 280.0163 323.2979 282.26356 321.64445 284.47514L308.96525 274.99559ZM317.45994 262.49537C318.7823 260.34684 320.05509 258.16978 321.27839 255.96424L335.12263 263.64289C333.7837 266.05693 332.3902 268.44035 330.94218 270.7931L317.45994 262.49537ZM324.7895 249.28137C325.91166 247.02259 326.98176 244.73979 327.99974 242.433L342.48326 248.8246C341.36866 251.3503 340.1967 253.8504 338.96736 256.32493L324.7895 249.28137ZM330.8897 235.45912C331.80155 233.10909 332.6592 230.73983 333.4627 228.35132L348.46754 233.39908C347.5873 236.01564 346.64775 238.61118 345.6488 241.18569L330.8897 235.45912ZM335.7073 221.13919C336.40046 218.7191 337.0383 216.28388 337.62083 213.83348L353.02268 217.49492C352.38444 220.17969 351.6857 222.84745 350.92649 225.4982L335.7073 221.13919ZM339.2023 206.43558C339.67158 203.96674 340.08494 201.48726 340.44239 198.99715L356.11286 201.24663C355.7214 203.97364 355.26878 206.68869 354.75498 209.39179L339.2023 206.43558ZM341.3499 191.46306C341.59318 188.96915 341.78077 186.46817 341.9127 183.96012L357.72196 184.79175C357.57765 187.5352 357.3724 190.27126 357.10627 192.9999L341.3499 191.46306ZM342.14158 176.39693 342.147 175.00046C342.14698 172.92185 342.10829 170.83632 342.03096 168.7439L357.85127 168.15921C357.9358 170.44652 357.97804 172.74745 357.978 175.06204L357.97257 176.45851 342.14158 176.39693ZM341.58387 161.2083C341.37809 158.69342 341.11604 156.18675 340.7977 153.68828L356.50187 151.68746C356.85029 154.42203 357.13706 157.16529 357.36225 159.91722L341.58387 161.2083ZM339.67243 146.21121C339.24168 143.73232 338.75508 141.26523 338.21263 138.80995L353.671 135.39476C354.26496 138.08333 354.79789 140.78536 355.26979 143.50083L339.67243 146.21121ZM336.41188 131.45908C335.7583 129.03221 335.05 126.62165 334.2869 124.22738L349.37046 119.42005C350.20646 122.043079 350.98243 124.683849 351.69837 127.34238L336.41188 131.45908ZM331.82344 117.06784C330.95188 114.71111 330.027 112.37482 329.04884 110.05896L343.6324 103.89906C344.70393 106.43589 345.71705 108.99513 346.67176 111.57678L331.82344 117.06784ZM325.94444 103.1529C324.86116 100.88269 323.72636 98.6371 322.54008 96.41612L336.50413 88.95758C337.80287 91.38914 339.04557 93.848308 340.2322 96.33509L325.94444 103.1529ZM318.8257 89.82603C317.54005 87.66117 316.20549 85.52548 314.82203 83.41896L328.05458 74.7285C329.56877 77.03406 331.02967 79.37199 332.43736 81.74229L318.8257 89.82603ZM310.5296 77.19401C309.05256 75.15214 307.53007 73.14428 305.9621 71.17043L318.3581 61.323453C320.07405 63.4836 321.74018 65.68088 323.3565 67.91529L310.5296 77.19401ZM301.12767 65.35799C299.4726 63.456769 297.77534 61.593397 296.03587 59.767877L307.49705 48.846994C309.4001 50.8442 311.25715 52.88301 313.0682 54.96342L301.12767 65.35799ZM290.699 54.413225C288.87956 52.667955 287.02189 50.96455 285.126 49.303014L295.56028 37.39712C297.6344 39.21489 299.66697 41.078668 301.65794 42.98845L290.699 54.413225ZM279.32929 44.4489C277.36076 42.874464 275.35816 41.3454 273.32145 39.861719L282.6429 27.065834C284.87138 28.689202 287.06288 30.362494 289.2174 32.08571L279.32929 44.4489ZM267.10984 35.547826C265.0086 34.15778 262.87773 32.816286 260.71714 31.523335L268.84648 17.938855C271.21174 19.354285 273.54438 20.822796 275.84446 22.344389L267.10984 35.547826ZM254.13799 27.78603C251.92166 26.592722 249.68032 25.450646 247.41394 24.359799L254.27985 10.095035C256.76173 11.289606 259.21614 12.54024 261.64305 13.846935L254.13799 27.78603ZM240.51959 21.232703C238.20647 20.246455 235.87276 19.313475 233.51844 18.433766L239.05966 3.604103C241.63866 4.5677688 244.195 5.589747 246.7287 6.6700379L240.51959 21.232703ZM226.36983 15.947058C223.97704 15.175487 221.56781 14.458701 219.14217 13.7967L223.31032-1.4758473C225.96753-.7506469 228.60688 .03460455 231.22832 .87990716L226.36983 15.947058ZM211.80086 11.971968C209.3463 11.420973 206.87941 10.925787 204.40018 10.486409L207.16278-5.101795C209.878-4.6205947 212.57984-4.078244 215.2683-3.4747444L211.80086 11.971968ZM196.93135 9.336716C194.432 9.009751 191.92424 8.739139 189.40805 8.524879L190.75125-7.249146C193.50478-7.014677 196.24933-6.718509 198.98488-6.360642L196.93135 9.336716ZM181.87935 8.053188C179.60085 7.961433 177.31815 7.9155557 175.03125 7.9155557 172.48943 7.9155557 169.95293 7.9722278 167.42176 8.085571L166.71356-7.729692C169.48069-7.853601 172.25325-7.9155557 175.03125-7.9155557 177.53057-7.9155557 180.02559-7.865404 182.51634-7.765102L181.87935 8.053188Z"
                   fill="#f6f3ec"
                   id="path69" />
              </g>
            </g>
          </g>
          <g
             clip-path="url(#clip_21)"
             id="g76">
            <g
               clip-path="url(#clip_22)"
               id="g75">
              <g
                 id="g74">
                <g
                   clip-path="url(#clip_23)"
                   id="g73">
                  <path
                     transform="matrix(1.1378933,-.030569243,.030569243,1.1378933,37.35761,46.341657)"
                     d="M0 0H256V256H0Z"
                     fill="#c23737"
                     id="path72" />
                </g>
              </g>
            </g>
          </g>
        </g>
      </g>
    </g>
    <g
       clip-path="url(#clip_24)"
       id="g83">
      <g
         clip-path="url(#clip_25)"
         id="g82">
        <g
           clip-path="url(#clip_26)"
           id="g81">
          <g
             clip-path="url(#clip_27)"
             id="g80">
            <path
               transform="matrix(.52217248,.051711848,-.051711848,.52217248,14.72337,176.47229)"
               d="M476.92 69.34H0L15.59 31.729996 0 0H476.92L456.54 31.73 476.92 69.34Z"
               fill="#8d6640"
               id="path79" />
          </g>
        </g>
      </g>
    </g>
    <g
       clip-path="url(#clip_28)"
       id="g87">
      <g
         clip-path="url(#clip_29)"
         id="g86">
        <g
           clip-path="url(#clip_30)"
           id="g85">
          <g
             clip-path="url(#clip_31)"
             id="g84">
            <path
               transform="matrix(.52137789,-.059188755,.059188755,.52137789,112.64902,202.94408)"
               d="M476.92 69.34H0L15.59 31.729996 0 0H476.92L456.54 31.73 476.92 69.34Z"
               fill="#8d6640"
               id="path83" />
          </g>
        </g>
      </g>
    </g>
    <g
       clip-path="url(#clip_32)"
       id="g93">
      <g
         clip-path="url(#clip_33)"
         id="g92">
        <g
           clip-path="url(#clip_34)"
           id="g91">
          <g
             clip-path="url(#clip_35)"
             id="g90">
            <g
               id="g89">
              <g
                 clip-path="url(#clip_36)"
                 id="g88">
                <path
                   transform="matrix(.7309486,0,0,.7309486,93.359348,94.5178)"
                   d="M0 0H256V256H0Z"
                   fill="#6b4623"
                   id="path87" />
              </g>
            </g>
          </g>
        </g>
      </g>
    </g>
    <g
       id="g1"
       transform="matrix(2.1607736,0.28242594,-0.28242594,2.1607736,110.07281,-75.968906)">
      <ellipse
         style="fill:#bdffff;fill-opacity:1;stroke:#000000;stroke-width:0;paint-order:stroke fill markers"
         id="path8-3"
         cx="52.174126"
         cy="103.82257"
         rx="18.267515"
         ry="17.347569" />
      <rect
         style="fill:#5ee5e6;fill-opacity:1;stroke:#000000;stroke-width:0;paint-order:stroke fill markers"
         id="rect15"
         width="2.2341566"
         height="35.220821"
         x="51.122753"
         y="77.538376" />
      <path
         id="path14-0"
         style="fill:#e5ddd9;fill-opacity:0.798055;stroke:#000000;stroke-width:0;paint-order:stroke fill markers"
         d="m 52.899878,94.451417 c -3.284444,-5.1e-5 -6.207623,1.889141 -7.28039,4.705164 -0.642739,-0.236437 -1.322218,-0.357383 -2.007053,-0.357275 -3.200194,-2.29e-4 -5.796053,2.586884 -5.811018,5.783934 h 29.191252 c -0.07767,-3.14192 -2.649061,-5.665256 -5.809409,-5.66531 -0.355141,-8.1e-5 -0.709535,0.03241 -1.058742,0.09695 -1.118256,-2.742684 -4.000995,-4.56359 -7.22464,-4.563504 z" />
      <path
         d="m 15.901772,99.748596 2.891584,36.316374 a 5.3935358,5.3935358 42.814633 0 0 5.359419,4.96542 l 30.686501,0.0973 a 6.1789902,6.1789902 137.2627 0 0 6.180834,-5.71096 l 2.719279,-35.799718 z"
         style="fill:#ffd088;fill-opacity:1;stroke:#000000;stroke-width:0;paint-order:stroke fill markers"
         id="path4-6"
         sodipodi:nodetypes="ccccc"
         inkscape:path-effect="#path-effect4"
         inkscape:original-d="m 15.901772,99.748596 3.285687,41.266054 41.397473,0.13126 3.154457,-41.528898 z"
         transform="matrix(0.74450754,0,0,1,22.330298,8.2795215)" />
      <rect
         style="fill:#efa11a;fill-opacity:1;stroke:#000000;stroke-width:0;paint-order:stroke fill markers"
         id="rect14"
         width="42.821487"
         height="6.7118092"
         x="30.31992"
         y="104.42622"
         rx="3.037267"
         ry="5.9491029" />
      <rect
         style="fill:#ef1c1a;fill-opacity:1;stroke:#000000;stroke-width:0;paint-order:stroke fill markers"
         id="rect16"
         width="25.232828"
         height="16.16478"
         x="39.032024"
         y="121.30156"
         rx="2.7637689"
         ry="5.4202938" />
      <path
         sodipodi:type="star"
         style="fill:#fbff0d;fill-opacity:1;stroke:#000000;stroke-width:0;paint-order:stroke fill markers"
         id="path10-7"
         inkscape:flatsided="false"
         sodipodi:sides="5"
         sodipodi:cx="20.501673"
         sodipodi:cy="80.03537"
         sodipodi:r1="6.1557784"
         sodipodi:r2="2.2160802"
         sodipodi:arg1="1.2895641"
         sodipodi:arg2="1.9178826"
         inkscape:rounded="0.02"
         inkscape:randomized="2.7755576e-17"
         d="m 22.210145,85.949313 c -0.08749,0.02527 -2.376658,-3.799036 -2.462292,-3.830013 -0.08563,-0.03098 -4.291656,1.443828 -4.342728,1.368433 -0.05107,-0.0754 2.878671,-3.434304 2.881669,-3.525319 0.003,-0.09101 -2.699356,-3.635439 -2.643434,-3.70731 0.05592,-0.07187 4.155775,1.67652 4.243263,1.651246 0.08749,-0.02527 2.623361,-3.690653 2.708995,-3.659676 0.08563,0.03098 -0.31026,4.47045 -0.259188,4.545845 0.05107,0.0754 4.320682,1.354491 4.317684,1.445506 -0.003,0.09102 -4.347526,1.08637 -4.403449,1.15824 -0.05592,0.07187 0.04697,4.527774 -0.04052,4.553048 z"
         transform="matrix(0.86907767,-0.29317082,0.30617073,0.83217697,9.2711308,68.836655)" />
    </g>
    <g
       clip-path="url(#clip_46)"
       id="g161">
      <g
         id="g141">
        <g
           clip-path="url(#clip_47)"
           id="g140">
          <path
             d="m 15.83769,41 c 0.47993,0 0.82897,-0.26178 1.00349,-0.69808 L 28.097721,10.458999 c -4.84293,0.4363 -8.638741,3.4904 -10.732981,10.296681 L 13.78708,32.36126 7.1116902,12.029679 c -0.17452,-0.52356 -0.47993,-0.69808 -0.95986,-0.69808 H 0.95986002 c -0.61082001,0 -0.91623002,0.39267 -0.69808001,1.00349 L 10.77661,40.30192 C 10.95113,40.73822 11.30017,41 11.7801,41 Z"
             id="text107"
             style="font-weight:bold;font-size:43.63px;font-family:Batangas;fill:#f6f3ec"
             transform="matrix(.19514375 -.86896136 .86896136 .19514375 46.423467 164.80094)"
             aria-label="V" />
          <text
             fill="#f6f3ec"
             xml:space="preserve"
             transform="matrix(.19514375 -.86896136 .86896136 .19514375 46.423467 164.80094)"
             font-size="43.63"
             font-family="Batangas"
             font-weight="bold"
             id="text108"><tspan
               y="41"
               x="27.921875"
               id="tspan108"> </tspan></text>
          <path
             d="m 5.0610801,17.963359 c 2.3560201,0 4.7993001,-1.17801 4.7993001,-3.53403 0,-2.31239 -2.44328,-3.53403 -4.7993001,-3.53403 -2.39965,0 -4.79930009,1.22164 -4.79930009,3.53403 0,2.35602 2.39965009,3.53403 4.79930009,3.53403 z M 7.7661402,41 c 0.56719,0 0.8726,-0.30541 0.8726,-0.8726 V 29.61257 c 0,-4.49389 -2.31239,-7.4171 -6.5445001,-8.2897 V 40.1274 c 0,0.56719 0.30541,0.8726 0.8726,0.8726 z"
             id="text109"
             style="font-weight:bold;font-size:43.63px;font-family:Batangas;fill:#f6f3ec"
             transform="matrix(.3202809 -.8310204 .8310204 .3202809 53.423936 137.4045)"
             aria-label="i" />
          <text
             fill="#f6f3ec"
             xml:space="preserve"
             transform="matrix(.3202809 -.8310204 .8310204 .3202809 53.423936 137.4045)"
             font-size="43.63"
             font-family="Batangas"
             font-weight="bold"
             id="text110"><tspan
               y="41"
               x="10.484375"
               id="tspan110"> </tspan></text>
          <path
             d="m 12.39092,21.06109 c -6.4572399,0 -11.21291,4.05759 -11.21291,10.34031 0,6.36998 4.5811501,10.29668 11.21291,10.29668 4.7993,0 8.595111,-2.09424 10.122161,-6.45724 0.21815,-0.61082 -0.13089,-1.00349 -0.74171,-1.00349 H 16.92844 c -0.47993,0 -0.74171,0.26178 -0.95986,0.74171 -0.52356,1.17801 -1.78883,2.05061 -3.70855,2.05061 -2.4432798,0 -3.9703298,-1.7452 -4.1448498,-4.40663 H 22.164041 c 0.56719,0 0.8726,-0.30541 0.8726,-0.8726 V 30.9651 c 0,-6.36998 -4.799301,-9.90401 -10.645721,-9.90401 z m -4.1884798,8.02792 c 0.370855,-2.09424 1.548865,-3.57766 3.9703298,-3.57766 2.31239,0 3.79581,1.48342 3.9267,3.57766 z"
             id="text111"
             style="font-weight:bold;font-size:43.63px;font-family:Batangas;fill:#f6f3ec"
             transform="matrix(.42774336 -.7811597 .7811597 .42774336 57.71975 125.69664)"
             aria-label="e" />
          <text
             fill="#f6f3ec"
             xml:space="preserve"
             transform="matrix(.42774336 -.7811597 .7811597 .42774336 57.71975 125.69664)"
             font-size="43.63"
             font-family="Batangas"
             font-weight="bold"
             id="text112"><tspan
               y="41"
               x="24.3125"
               id="tspan112"> </tspan></text>
          <path
             d="m 10.73298,21.75917 v -8.289701 c -4.2321098,0.8726 -6.5444999,3.79581 -6.5444999,8.289701 H 1.39616 c -0.56718998,0 -0.87259999,0.30541 -0.87259999,0.8726 v 3.31588 c 0,0.56719 0.30541001,0.8726 0.87259999,0.8726 H 4.1884801 V 40.1274 c 0,0.56719 0.30541,0.8726 0.8726,0.8726 H 9.8603802 C 10.42757,41 10.73298,40.69459 10.73298,40.1274 V 26.82025 h 2.83595 c 0.56719,0 0.8726,-0.30541 0.8726,-0.8726 v -3.31588 c 0,-0.56719 -0.30541,-0.8726 -0.8726,-0.8726 z"
             id="text113"
             style="font-weight:bold;font-size:43.63px;font-family:Batangas;fill:#f6f3ec"
             transform="matrix(.53988096 -.70831027 .70831027 .53988096 70.29777 103.91844)"
             aria-label="t" />
          <text
             fill="#f6f3ec"
             xml:space="preserve"
             transform="matrix(.53988096 -.70831027 .70831027 .53988096 70.29777 103.91844)"
             font-size="43.63"
             font-family="Batangas"
             font-weight="bold"
             id="text114"><tspan
               y="41"
               x="14.96875"
               id="tspan114"> </tspan></text>
          <path
             d="m 14.48516,21.06109 c -2.53054,0 -4.8865598,1.112565 -6.8717248,4.035775 C 6.5445002,23.15533 4.6684101,21.84643 2.0942401,21.32287 V 40.1274 c 0,0.56719 0.30541,0.8726 0.8726,0.8726 h 4.7993001 c 0.56719,0 0.8726,-0.30541 0.8726,-0.8726 v -9.969455 c 0.26178,-2.39965 1.7670148,-3.861255 3.6212898,-3.861255 2.05061,0 2.92321,1.26527 2.92321,3.53403 V 40.1274 c 0,0.56719 0.30541,0.8726 0.8726,0.8726 h 4.799301 c 0.56719,0 0.8726,-0.30541 0.8726,-0.8726 V 29.83072 c 0,-5.2356 -2.094241,-8.76963 -7.242581,-8.76963 z"
             id="text115"
             style="font-weight:bold;font-size:43.63px;font-family:Batangas;fill:#f6f3ec"
             transform="matrix(.63809296 -.62129887 .62129887 .63809296 80.46373 90.538349)"
             aria-label="n" />
          <text
             fill="#f6f3ec"
             xml:space="preserve"
             transform="matrix(.63809296 -.62129887 .62129887 .63809296 80.46373 90.538349)"
             font-size="43.63"
             font-family="Batangas"
             font-weight="bold"
             id="text116"><tspan
               y="41"
               x="23.5625"
               id="tspan116"> </tspan></text>
          <path
             d="m 18.564565,24.878715 c -1.70157,-2.377835 -4.40663,-3.817625 -7.700695,-3.817625 -5.6718999,0 -9.5986,4.23211 -9.5986,10.29668 0,6.1082 3.9267001,10.34031 9.5986,10.34031 3.294065,0 5.999125,-1.43979 7.700695,-3.83944 1.068935,2.13787 2.901396,3.31588 5.431936,3.57766 V 21.32287 c -2.53054,0.26178 -4.363001,1.43979 -5.431936,3.555845 z M 12.87085,36.46248 c -2.66143,0 -4.5811498,-2.09424 -4.5811498,-5.06108 0,-2.96684 1.9197198,-5.06108 4.5811498,-5.06108 2.66143,0 4.58115,2.09424 4.58115,5.06108 0,2.96684 -1.91972,5.06108 -4.58115,5.06108 z"
             id="text117"
             style="font-weight:bold;font-size:43.63px;font-family:Batangas;fill:#f6f3ec"
             transform="matrix(.7440572 -.48944236 .48944236 .7440572 98.931598 73.002628)"
             aria-label="a" />
          <text
             fill="#f6f3ec"
             xml:space="preserve"
             transform="matrix(.7440572 -.48944236 .48944236 .7440572 98.931598 73.002628)"
             font-size="43.63"
             font-family="Batangas"
             font-weight="bold"
             id="text118"><tspan
               y="41"
               x="26.140625"
               id="tspan118"> </tspan></text>
          <path
             d="m 26.919711,21.06109 c -2.901395,0 -5.01745,0.807155 -6.849911,3.032285 -1.243455,-2.421465 -3.599475,-3.032285 -5.71553,-3.032285 -2.552355,0 -5.1919698,1.287085 -7.0898748,3.4904 C 6.1736452,22.89355 4.4284451,21.8028 2.0942401,21.32287 V 40.1274 c 0,0.56719 0.30541,0.8726 0.8726,0.8726 h 4.7993001 c 0.56719,0 0.8726,-0.30541 0.8726,-0.8726 V 29.91798 c 0.239965,-2.246945 1.3743448,-3.62129 3.3595098,-3.62129 2.1815,0 2.92321,1.48342 2.92321,4.23211 v 9.5986 c 0,0.56719 0.30541,0.8726 0.8726,0.8726 h 4.799301 c 0.56719,0 0.8726,-0.30541 0.8726,-0.8726 v -9.5986 c 0,-2.74869 1.00349,-4.23211 3.35951,-4.23211 2.35602,0 2.96684,1.48342 2.96684,4.23211 v 9.5986 c 0,0.56719 0.30541,0.8726 0.8726,0.8726 h 4.7993 c 0.56719,0 0.8726,-0.30541 0.8726,-0.8726 V 28.3473 c 0,-4.10122 -2.39965,-7.28621 -7.4171,-7.28621 z"
             id="text119"
             style="font-weight:bold;font-size:43.63px;font-family:Batangas;fill:#f6f3ec"
             transform="matrix(.8386708 -.29967673 .29967673 .8386708 123.22153 57.198347)"
             aria-label="m" />
          <text
             fill="#f6f3ec"
             xml:space="preserve"
             transform="matrix(.8386708 -.29967673 .29967673 .8386708 123.22153 57.198347)"
             font-size="43.63"
             font-family="Batangas"
             font-weight="bold"
             id="text120"><tspan
               y="41"
               x="36.21875"
               id="tspan120"> </tspan></text>
          <path
             d="m 12.39092,21.06109 c -6.4572399,0 -11.21291,4.05759 -11.21291,10.34031 0,6.36998 4.5811501,10.29668 11.21291,10.29668 4.7993,0 8.595111,-2.09424 10.122161,-6.45724 0.21815,-0.61082 -0.13089,-1.00349 -0.74171,-1.00349 H 16.92844 c -0.47993,0 -0.74171,0.26178 -0.95986,0.74171 -0.52356,1.17801 -1.78883,2.05061 -3.70855,2.05061 -2.4432798,0 -3.9703298,-1.7452 -4.1448498,-4.40663 H 22.164041 c 0.56719,0 0.8726,-0.30541 0.8726,-0.8726 V 30.9651 c 0,-6.36998 -4.799301,-9.90401 -10.645721,-9.90401 z m -4.1884798,8.02792 c 0.370855,-2.09424 1.548865,-3.57766 3.9703298,-3.57766 2.31239,0 3.79581,1.48342 3.9267,3.57766 z"
             id="text121"
             style="font-weight:bold;font-size:43.63px;font-family:Batangas;fill:#f6f3ec"
             transform="matrix(.88506719 -.09915106 .09915106 .88506719 159.09337 45.70149)"
             aria-label="e" />
          <text
             fill="#f6f3ec"
             xml:space="preserve"
             transform="matrix(.88506719 -.09915106 .09915106 .88506719 159.09337 45.70149)"
             font-size="43.63"
             font-family="Batangas"
             font-weight="bold"
             id="text122"><tspan
               y="41"
               x="24.3125"
               id="tspan122"> </tspan></text>
          <path
             d="m 11.60558,41.69808 c 6.15183,0 9.729491,-2.57417 9.729491,-7.02443 0,-7.94066 -12.8708508,-4.93019 -12.8708508,-8.2897 0,-0.65445 0.65445,-1.26527 2.1814998,-1.26527 1.87609,0 2.79232,0.61082 3.31588,1.7452 0.21815,0.47993 0.52356,0.74171 1.00349,0.74171 h 4.66841 c 0.61082,0 0.916231,-0.34904 0.78534,-0.95986 -0.95986,-3.75218 -4.31937,-5.58464 -9.42408,-5.58464 -5.9336799,0 -9.11867,2.48691 -9.11867,6.19546 0,7.76614 12.87085,4.45026 12.87085,8.02792 0,1.09075 -0.95986,1.87609 -3.01047,1.87609 -1.17801,0 -3.5776598,-0.4363 -4.1012198,-2.48691 -0.13089,-0.52356 -0.39267,-0.82897 -0.91623,-0.82897 H 1.96335 c -0.56719,0 -0.91623,0.34904 -0.82897,0.91623 0.82897,4.84293 4.9301901,6.93717 10.4712,6.93717 z"
             id="text123"
             style="font-weight:bold;font-size:43.63px;font-family:Batangas;fill:#f6f3ec"
             transform="matrix(.8885571 .060342049 -.060342049 .8885571 184.83243 43.268095)"
             aria-label="s" />
          <text
             fill="#f6f3ec"
             xml:space="preserve"
             transform="matrix(.8885571 .060342049 -.060342049 .8885571 184.83243 43.268095)"
             font-size="43.63"
             font-family="Batangas"
             font-weight="bold"
             id="text124"><tspan
               y="41"
               x="22.5625"
               id="tspan124"> </tspan></text>
          <path
             d="m 12.39092,21.06109 c -6.4572399,0 -11.21291,4.05759 -11.21291,10.34031 0,6.36998 4.5811501,10.29668 11.21291,10.29668 4.7993,0 8.595111,-2.09424 10.122161,-6.45724 0.21815,-0.61082 -0.13089,-1.00349 -0.74171,-1.00349 H 16.92844 c -0.47993,0 -0.74171,0.26178 -0.95986,0.74171 -0.52356,1.17801 -1.78883,2.05061 -3.70855,2.05061 -2.4432798,0 -3.9703298,-1.7452 -4.1448498,-4.40663 H 22.164041 c 0.56719,0 0.8726,-0.30541 0.8726,-0.8726 V 30.9651 c 0,-6.36998 -4.799301,-9.90401 -10.645721,-9.90401 z m -4.1884798,8.02792 c 0.370855,-2.09424 1.548865,-3.57766 3.9703298,-3.57766 2.31239,0 3.79581,1.48342 3.9267,3.57766 z"
             id="text125"
             style="font-weight:bold;font-size:43.63px;font-family:Batangas;fill:#f6f3ec"
             transform="matrix(.86353626 .21789898 -.21789898 .86353626 209.064 45.222658)"
             aria-label="e" />
          <text
             fill="#f6f3ec"
             xml:space="preserve"
             transform="matrix(.86353626 .21789898 -.21789898 .86353626 209.064 45.222658)"
             font-size="43.63"
             font-family="Batangas"
             font-weight="bold"
             id="text126"><tspan
               y="41"
               x="24.3125"
               id="tspan126"> </tspan></text>
          <text
             fill="#f6f3ec"
             xml:space="preserve"
             transform="matrix(.8258755 .33332334 -.33332334 .8258755 232.97019 51.886568)"
             font-size="43.63"
             font-family="Batangas"
             font-weight="bold"
             id="text127"><tspan
               y="41"
               x="0"
               id="tspan127"> </tspan></text>
          <text
             fill="#f6f3ec"
             xml:space="preserve"
             transform="matrix(.8258755 .33332334 -.33332334 .8258755 232.97019 51.886568)"
             font-size="43.63"
             font-family="Batangas"
             font-weight="bold"
             id="text128"><tspan
               y="41"
               x="11.34375"
               id="tspan128"> </tspan></text>
          <path
             d="m 16.31762,41.34904 c 6.413611,0 12.129141,-3.53403 13.743451,-9.51134 0.17452,-0.61082 -0.17452,-0.95986 -0.78534,-0.95986 h -5.19197 c -0.47993,0 -0.78534,0.21815 -1.00349,0.69808 -1.00349,2.48691 -3.664921,3.83944 -6.762651,3.83944 -4.7993,0 -8.6823698,-3.40314 -8.6823698,-9.33682 0,-5.890051 3.8830698,-9.293191 8.6823698,-9.293191 3.0541,0 5.715531,1.35253 6.762651,3.795811 0.21815,0.47993 0.52356,0.69808 1.00349,0.69808 h 5.14834 c 0.61082,0 0.95986,-0.34904 0.78534,-0.959861 -1.65794,-5.89005 -7.15532,-9.46771 -13.656191,-9.46771 -8.2896998,0 -15.2705,5.84642 -15.2705,15.226871 0,9.24956 6.8062802,15.2705 15.22687,15.2705 z"
             id="text129"
             style="font-weight:bold;font-size:43.63px;font-family:Batangas;fill:#f6f3ec"
             transform="matrix(.761073 .46253953 -.46253953 .761073 246.07852 56.74328)"
             aria-label="C" />
          <text
             fill="#f6f3ec"
             xml:space="preserve"
             transform="matrix(.761073 .46253953 -.46253953 .761073 246.07852 56.74328)"
             font-size="43.63"
             font-family="Batangas"
             font-weight="bold"
             id="text130"><tspan
               y="41"
               x="31.109375"
               id="tspan130"> </tspan></text>
          <path
             d="m 12.2164,41.69808 c 6.84991,0 10.951131,-4.23211 10.951131,-10.29668 0,-6.02094 -4.144851,-10.34031 -10.951131,-10.34031 -6.8499099,0 -10.99476,4.31937 -10.99476,10.34031 0,6.02094 4.1012201,10.29668 10.99476,10.29668 z m 0,-5.10471 c -2.9232098,0 -4.4938898,-2.26876 -4.4938898,-5.14834 0,-2.92321 1.61431,-5.27923 4.4938898,-5.27923 2.87958,0 4.45026,2.31239 4.45026,5.27923 0,2.92321 -1.57068,5.14834 -4.45026,5.14834 z"
             id="text131"
             style="font-weight:bold;font-size:43.63px;font-family:Batangas;fill:#f6f3ec"
             transform="matrix(.646342 .61271277 -.61271277 .646342 273.5655 74.439388)"
             aria-label="o" />
          <text
             fill="#f6f3ec"
             xml:space="preserve"
             transform="matrix(.646342 .61271277 -.61271277 .646342 273.5655 74.439388)"
             font-size="43.63"
             font-family="Batangas"
             font-weight="bold"
             id="text132"><tspan
               y="41"
               x="24.4375"
               id="tspan132"> </tspan></text>
          <path
             d="m 13.65619,8.2774992 c -3.35951,0 -9.2495599,2.1814998 -9.2495599,10.7329798 V 21.75917 H 1.61431 c -0.56719,0 -0.87259998,0.30541 -0.87259998,0.8726 v 3.31588 c 0,0.56719 0.30540998,0.8726 0.87259998,0.8726 H 4.4066301 V 40.1274 c 0,0.56719 0.30541,0.8726 0.8726,0.8726 H 10.07853 c 0.56719,0 0.8726,-0.30541 0.8726,-0.8726 V 26.82025 h 3.0541 c 0.56719,0 0.8726,-0.30541 0.8726,-0.8726 v -3.31588 c 0,-0.56719 -0.30541,-0.8726 -0.8726,-0.8726 h -3.0541 v -2.748691 c 0,-3.88307 1.39616,-4.75567 3.62129,-4.75567 0.56719,0 0.8726,-0.30541 0.8726,-0.8726 V 9.1500992 c 0,-0.56719 -0.30541,-0.8726 -0.8726,-0.8726 z"
             id="text133"
             style="font-weight:bold;font-size:43.63px;font-family:Batangas;fill:#f6f3ec"
             transform="matrix(.54637297 .7033146 -.7033146 .54637297 291.51933 92.26036)"
             aria-label="f" />
          <text
             fill="#f6f3ec"
             xml:space="preserve"
             transform="matrix(.54637297 .7033146 -.7033146 .54637297 291.51933 92.26036)"
             font-size="43.63"
             font-family="Batangas"
             font-weight="bold"
             id="text134"><tspan
               y="41"
               x="15.1875"
               id="tspan134"> </tspan></text>
          <path
             d="m 13.65619,8.2774992 c -3.35951,0 -9.2495599,2.1814998 -9.2495599,10.7329798 V 21.75917 H 1.61431 c -0.56719,0 -0.87259998,0.30541 -0.87259998,0.8726 v 3.31588 c 0,0.56719 0.30540998,0.8726 0.87259998,0.8726 H 4.4066301 V 40.1274 c 0,0.56719 0.30541,0.8726 0.8726,0.8726 H 10.07853 c 0.56719,0 0.8726,-0.30541 0.8726,-0.8726 V 26.82025 h 3.0541 c 0.56719,0 0.8726,-0.30541 0.8726,-0.8726 v -3.31588 c 0,-0.56719 -0.30541,-0.8726 -0.8726,-0.8726 h -3.0541 v -2.748691 c 0,-3.88307 1.39616,-4.75567 3.62129,-4.75567 0.56719,0 0.8726,-0.30541 0.8726,-0.8726 V 9.1500992 c 0,-0.56719 -0.30541,-0.8726 -0.8726,-0.8726 z"
             id="text135"
             style="font-weight:bold;font-size:43.63px;font-family:Batangas;fill:#f6f3ec"
             transform="matrix(.4611174 .7619354 -.7619354 .4611174 301.35704 105.18149)"
             aria-label="f" />
          <text
             fill="#f6f3ec"
             xml:space="preserve"
             transform="matrix(.4611174 .7619354 -.7619354 .4611174 301.35704 105.18149)"
             font-size="43.63"
             font-family="Batangas"
             font-weight="bold"
             id="text136"><tspan
               y="41"
               x="15.1875"
               id="tspan136"> </tspan></text>
          <path
             d="m 12.39092,21.06109 c -6.4572399,0 -11.21291,4.05759 -11.21291,10.34031 0,6.36998 4.5811501,10.29668 11.21291,10.29668 4.7993,0 8.595111,-2.09424 10.122161,-6.45724 0.21815,-0.61082 -0.13089,-1.00349 -0.74171,-1.00349 H 16.92844 c -0.47993,0 -0.74171,0.26178 -0.95986,0.74171 -0.52356,1.17801 -1.78883,2.05061 -3.70855,2.05061 -2.4432798,0 -3.9703298,-1.7452 -4.1448498,-4.40663 H 22.164041 c 0.56719,0 0.8726,-0.30541 0.8726,-0.8726 V 30.9651 c 0,-6.36998 -4.799301,-9.90401 -10.645721,-9.90401 z m -4.1884798,8.02792 c 0.370855,-2.09424 1.548865,-3.57766 3.9703298,-3.57766 2.31239,0 3.79581,1.48342 3.9267,3.57766 z"
             id="text137"
             style="font-weight:bold;font-size:43.63px;font-family:Batangas;fill:#f6f3ec"
             transform="matrix(.34113518 .8226795 -.8226795 .34113518 310.2386 119.778018)"
             aria-label="e" />
          <text
             fill="#f6f3ec"
             xml:space="preserve"
             transform="matrix(.34113518 .8226795 -.8226795 .34113518 310.2386 119.778018)"
             font-size="43.63"
             font-family="Batangas"
             font-weight="bold"
             id="text138"><tspan
               y="41"
               x="24.3125"
               id="tspan138"> </tspan></text>
          <path
             d="m 12.39092,21.06109 c -6.4572399,0 -11.21291,4.05759 -11.21291,10.34031 0,6.36998 4.5811501,10.29668 11.21291,10.29668 4.7993,0 8.595111,-2.09424 10.122161,-6.45724 0.21815,-0.61082 -0.13089,-1.00349 -0.74171,-1.00349 H 16.92844 c -0.47993,0 -0.74171,0.26178 -0.95986,0.74171 -0.52356,1.17801 -1.78883,2.05061 -3.70855,2.05061 -2.4432798,0 -3.9703298,-1.7452 -4.1448498,-4.40663 H 22.164041 c 0.56719,0 0.8726,-0.30541 0.8726,-0.8726 V 30.9651 c 0,-6.36998 -4.799301,-9.90401 -10.645721,-9.90401 z m -4.1884798,8.02792 c 0.370855,-2.09424 1.548865,-3.57766 3.9703298,-3.57766 2.31239,0 3.79581,1.48342 3.9267,3.57766 z"
             id="text139"
             style="font-weight:bold;font-size:43.63px;font-family:Batangas;fill:#f6f3ec"
             transform="matrix(.18308339 .8715821 -.8715821 .18308339 319.82847 143.96549)"
             aria-label="e" />
          <text
             fill="#f6f3ec"
             xml:space="preserve"
             transform="matrix(.18308339 .8715821 -.8715821 .18308339 319.82847 143.96549)"
             font-size="43.63"
             font-family="Batangas"
             font-weight="bold"
             id="text140"><tspan
               y="41"
               x="24.3125"
               id="tspan140"> </tspan></text>
        </g>
      </g>
      <g
         id="g156">
        <g
           clip-path="url(#clip_48)"
           id="g155">
          <path
             d="m 10.76868,41 c 11.544391,0 16.791841,-6.75324 16.791841,-15.5142 0,-8.760961 -5.29308,-15.5142007 -16.791841,-15.5142007 H 3.3766201 c -0.59319,0 -0.9126,0.3194097 -0.9126,0.9125997 V 40.0874 c 0,0.59319 0.31941,0.9126 0.9126,0.9126 z M 9.3085202,16.177279 H 11.4075 c 6.66198,0 9.30852,4.152331 9.30852,9.308521 0,5.15619 -2.69217,9.30852 -9.30852,9.30852 H 9.3085202 Z"
             id="text141"
             style="font-weight:bold;font-size:45.63px;font-family:Batangas;fill:#f6f3ec"
             transform="matrix(.39706654 .7546674 -.7546674 .39706654 99.08764 223.27439)"
             aria-label="D" />
          <path
             d="m 12.95892,20.14709 c -6.7532399,0 -11.72691,4.24359 -11.72691,10.81431 0,6.66198 4.7911501,10.76868 11.72691,10.76868 5.0193,0 8.989111,-2.19024 10.586161,-6.75324 0.22815,-0.63882 -0.13689,-1.04949 -0.77571,-1.04949 H 17.70444 c -0.50193,0 -0.77571,0.27378 -1.00386,0.77571 -0.54756,1.23201 -1.87083,2.14461 -3.87855,2.14461 -2.55528,0 -4.1523298,-1.8252 -4.3348498,-4.60863 H 23.180041 c 0.59319,0 0.9126,-0.31941 0.9126,-0.9126 V 30.5051 c 0,-6.66198 -5.019301,-10.35801 -11.133721,-10.35801 z m -4.3804798,8.39592 c 0.387855,-2.19024 1.6198648,-3.74166 4.1523298,-3.74166 2.41839,0 3.96981,1.55142 4.1067,3.74166 z"
             id="text142"
             style="font-weight:bold;font-size:45.63px;font-family:Batangas;fill:#f6f3ec"
             transform="matrix(.54066899 .65944048 -.65944048 .54066899 108.07555 241.05391)"
             aria-label="e" />
          <path
             d="m 8.1221402,41 c 0.59319,0 0.9126,-0.31941 0.9126,-0.9126 V 15.447199 c 0,-4.69989 -2.41839,-7.7570998 -6.8445001,-8.6696998 V 40.0874 c 0,0.59319 0.31941,0.9126 0.9126,0.9126 z"
             id="text143"
             style="font-weight:bold;font-size:45.63px;font-family:Batangas;fill:#f6f3ec"
             transform="matrix(.6256486 .5794381 -.5794381 .6256486 119.94278 255.21973)"
             aria-label="l" />
          <path
             d="m 5.2930801,16.907359 c 2.4640201,0 5.0192999,-1.23201 5.0192999,-3.69603 0,-2.41839 -2.5552798,-3.6960297 -5.0192999,-3.6960297 -2.50965,0 -5.01930009,1.2776397 -5.01930009,3.6960297 0,2.46402 2.50965009,3.69603 5.01930009,3.69603 z M 8.1221402,41 c 0.59319,0 0.9126,-0.31941 0.9126,-0.9126 V 29.09057 c 0,-4.69989 -2.41839,-7.7571 -6.8445001,-8.6697 V 40.0874 c 0,0.59319 0.31941,0.9126 0.9126,0.9126 z"
             id="text144"
             style="font-weight:bold;font-size:45.63px;font-family:Batangas;fill:#f6f3ec"
             transform="matrix(.67151877 .5255923 -.5255923 .67151877 125.52545 260.496)"
             aria-label="i" />
          <path
             d="m 15.14916,41 c 0.50193,0 0.86697,-0.27378 1.04949,-0.73008 l 7.528951,-19.84905 c -4.699891,0 -7.711471,2.32713 -9.399781,7.43769 L 11.8638,35.25062 7.3008002,21.60725 c -0.18252,-0.50193 -0.50193,-0.73008 -1.0038601,-0.73008 H 1.32327 c -0.68444999,0 -0.95822999,0.41067 -0.73007999,1.04949 L 7.5745802,40.26992 C 7.7571002,40.72622 8.1221402,41 8.6240702,41 Z"
             id="text145"
             style="font-weight:bold;font-size:45.63px;font-family:Batangas;fill:#f6f3ec"
             transform="matrix(.73435476 .43348349 -.43348349 .73435476 130.16779 264.84495)"
             aria-label="v" />
          <path
             d="m 12.95892,20.14709 c -6.7532399,0 -11.72691,4.24359 -11.72691,10.81431 0,6.66198 4.7911501,10.76868 11.72691,10.76868 5.0193,0 8.989111,-2.19024 10.586161,-6.75324 0.22815,-0.63882 -0.13689,-1.04949 -0.77571,-1.04949 H 17.70444 c -0.50193,0 -0.77571,0.27378 -1.00386,0.77571 -0.54756,1.23201 -1.87083,2.14461 -3.87855,2.14461 -2.55528,0 -4.1523298,-1.8252 -4.3348498,-4.60863 H 23.180041 c 0.59319,0 0.9126,-0.31941 0.9126,-0.9126 V 30.5051 c 0,-6.66198 -5.019301,-10.35801 -11.133721,-10.35801 z m -4.3804798,8.39592 c 0.387855,-2.19024 1.6198648,-3.74166 4.1523298,-3.74166 2.41839,0 3.96981,1.55142 4.1067,3.74166 z"
             id="text146"
             style="font-weight:bold;font-size:45.63px;font-family:Batangas;fill:#f6f3ec"
             transform="matrix(.8015173 .29112659 -.29112659 .8015173 143.99246 273.5206)"
             aria-label="e" />
          <path
             d="m 15.60546,20.60339 c -0.4563,-0.09126 -1.00386,-0.18252 -1.50579,-0.18252 -2.41839,0 -4.6770748,1.09512 -6.1144198,4.01544 -1.09512,-2.076165 -3.0572101,-3.445065 -5.7950101,-4.01544 V 40.0874 c 0,0.59319 0.31941,0.9126 0.9126,0.9126 h 5.0193001 c 0.59319,0 0.9126,-0.31941 0.9126,-0.9126 v -9.21726 c 0.27378,-2.78343 1.6883098,-4.24359 4.1523298,-4.24359 0.63882,0 1.32327,0.09126 2.09898,0.27378 0.63882,0.18252 1.04949,-0.09126 1.04949,-0.73008 v -4.51737 c 0,-0.50193 -0.22815,-0.9126 -0.73008,-1.04949 z"
             id="text147"
             style="font-weight:bold;font-size:45.63px;font-family:Batangas;fill:#f6f3ec"
             transform="matrix(.8374677 .1607252 -.1607252 .8374677 160.90206 279.67424)"
             aria-label="r" />
          <path
             d="m 12.95892,20.14709 c -6.7532399,0 -11.72691,4.24359 -11.72691,10.81431 0,6.66198 4.7911501,10.76868 11.72691,10.76868 5.0193,0 8.989111,-2.19024 10.586161,-6.75324 0.22815,-0.63882 -0.13689,-1.04949 -0.77571,-1.04949 H 17.70444 c -0.50193,0 -0.77571,0.27378 -1.00386,0.77571 -0.54756,1.23201 -1.87083,2.14461 -3.87855,2.14461 -2.55528,0 -4.1523298,-1.8252 -4.3348498,-4.60863 H 23.180041 c 0.59319,0 0.9126,-0.31941 0.9126,-0.9126 V 30.5051 c 0,-6.66198 -5.019301,-10.35801 -11.133721,-10.35801 z m -4.3804798,8.39592 c 0.387855,-2.19024 1.6198648,-3.74166 4.1523298,-3.74166 2.41839,0 3.96981,1.55142 4.1067,3.74166 z"
             id="text148"
             style="font-weight:bold;font-size:45.63px;font-family:Batangas;fill:#f6f3ec"
             transform="matrix(.85234579 .026294653 -.026294653 .85234579 171.55622 282.3017)"
             aria-label="e" />
          <path
             d="m 18.252,22.79363 c -1.73394,-1.68831 -4.1067,-2.64654 -6.89013,-2.64654 -5.9318999,0 -10.0386,4.42611 -10.0386,10.76868 0,6.3882 4.1067001,10.81431 10.0386,10.81431 3.33099,0 6.091605,-1.391715 7.871175,-3.764475 1.09512,2.2815 3.080026,3.490695 5.863456,3.490695 V 15.447199 c 0,-4.69989 -2.41839,-7.7570998 -6.844501,-8.6696998 z m -4.79115,13.46085 c -2.78343,0 -4.7911498,-2.19024 -4.7911498,-5.29308 0,-3.10284 2.0077198,-5.29308 4.7911498,-5.29308 2.78343,0 4.79115,2.19024 4.79115,5.29308 0,3.10284 -2.00772,5.29308 -4.79115,5.29308 z"
             id="text149"
             style="font-weight:bold;font-size:45.63px;font-family:Batangas;fill:#f6f3ec"
             transform="matrix(.8410145 -.1409941 .1409941 .8410145 188.7138 283.35597)"
             aria-label="d" />
          <text
             fill="#f6f3ec"
             xml:space="preserve"
             transform="matrix(.8114642 -.26212708 .26212708 .8114642 208.2969 279.83708)"
             font-size="45.63"
             font-family="Batangas"
             font-weight="bold"
             id="text150"><tspan
               y="41"
               x="0"
               id="tspan150"> </tspan></text>
          <path
             d="m 3.1941001,9.9715993 c -0.59319,0 -0.9126,0.3194097 -0.9126,0.9125997 v 4.38048 c 0,0.59319 0.31941,0.9126 0.9126,0.9126 H 7.2779852 C 4.2892201,17.340844 2.2815001,20.489315 2.2815001,25.25765 V 40.0874 c 0,0.59319 0.31941,0.9126 0.9126,0.9126 h 5.0193001 c 0.59319,0 0.9126,-0.31941 0.9126,-0.9126 V 23.683415 C 10.22112,26.30714 13.05018,28.08671 17.3394,28.08671 h 1.55142 c 0.59319,0 0.9126,-0.31941 0.9126,-0.9126 v -4.38048 c 0,-0.59319 -0.31941,-0.9126 -0.9126,-0.9126 H 9.1260002 V 16.177279 H 19.34712 c 0.59319,0 0.9126,-0.31941 0.9126,-0.9126 v -4.38048 c 0,-0.59319 -0.31941,-0.9125997 -0.9126,-0.9125997 z"
             id="text151"
             style="font-weight:bold;font-size:45.63px;font-family:Batangas;fill:#f6f3ec"
             transform="matrix(.7727984 -.36050967 .36050967 .7727984 215.33693 278.01258)"
             aria-label="F" />
          <path
             d="m 15.60546,20.60339 c -0.4563,-0.09126 -1.00386,-0.18252 -1.50579,-0.18252 -2.41839,0 -4.6770748,1.09512 -6.1144198,4.01544 -1.09512,-2.076165 -3.0572101,-3.445065 -5.7950101,-4.01544 V 40.0874 c 0,0.59319 0.31941,0.9126 0.9126,0.9126 h 5.0193001 c 0.59319,0 0.9126,-0.31941 0.9126,-0.9126 v -9.21726 c 0.27378,-2.78343 1.6883098,-4.24359 4.1523298,-4.24359 0.63882,0 1.32327,0.09126 2.09898,0.27378 0.63882,0.18252 1.04949,-0.09126 1.04949,-0.73008 v -4.51737 c 0,-0.50193 -0.22815,-0.9126 -0.73008,-1.04949 z"
             id="text152"
             style="font-weight:bold;font-size:45.63px;font-family:Batangas;fill:#f6f3ec"
             transform="matrix(.713242 -.46740837 .46740837 .713242 228.87337 271.82136)"
             aria-label="r" />
          <path
             d="m 12.95892,20.14709 c -6.7532399,0 -11.72691,4.24359 -11.72691,10.81431 0,6.66198 4.7911501,10.76868 11.72691,10.76868 5.0193,0 8.989111,-2.19024 10.586161,-6.75324 0.22815,-0.63882 -0.13689,-1.04949 -0.77571,-1.04949 H 17.70444 c -0.50193,0 -0.77571,0.27378 -1.00386,0.77571 -0.54756,1.23201 -1.87083,2.14461 -3.87855,2.14461 -2.55528,0 -4.1523298,-1.8252 -4.3348498,-4.60863 H 23.180041 c 0.59319,0 0.9126,-0.31941 0.9126,-0.9126 V 30.5051 c 0,-6.66198 -5.019301,-10.35801 -11.133721,-10.35801 z m -4.3804798,8.39592 c 0.387855,-2.19024 1.6198648,-3.74166 4.1523298,-3.74166 2.41839,0 3.96981,1.55142 4.1067,3.74166 z"
             id="text153"
             style="font-weight:bold;font-size:45.63px;font-family:Batangas;fill:#f6f3ec"
             transform="matrix(.6303707 -.5742974 .5742974 .6303707 238.35222 266.2906)"
             aria-label="e" />
          <path
             d="m 12.13758,41.73008 c 6.43383,0 10.175491,-2.69217 10.175491,-7.34643 0,-8.30466 -13.4608508,-5.15619 -13.4608508,-8.6697 0,-0.68445 0.68445,-1.32327 2.2814998,-1.32327 1.96209,0 2.92032,0.63882 3.46788,1.8252 0.22815,0.50193 0.54756,0.77571 1.04949,0.77571 h 4.88241 c 0.63882,0 0.958231,-0.36504 0.82134,-1.00386 -1.00386,-3.92418 -4.51737,-5.84064 -9.85608,-5.84064 -6.2056799,0 -9.53667,2.60091 -9.53667,6.47946 0,8.12214 13.46085,4.65426 13.46085,8.39592 0,1.14075 -1.00386,1.96209 -3.14847,1.96209 -1.23201,0 -3.7416598,-0.4563 -4.2892198,-2.60091 -0.13689,-0.54756 -0.41067,-0.86697 -0.95823,-0.86697 H 2.05335 c -0.59319,0 -0.95823,0.36504 -0.86697,0.95823 0.86697,5.06493 5.1561901,7.25517 10.9512,7.25517 z"
             id="text154"
             style="font-weight:bold;font-size:45.63px;font-family:Batangas;fill:#f6f3ec"
             transform="matrix(.5153474 -.67941287 .67941287 .5153474 251.4799 254.75379)"
             aria-label="s" />
          <path
             d="m 15.19479,20.42087 c -2.64654,0 -4.79115,1.18638 -6.1600498,2.897505 v -7.871176 c 0,-4.69989 -2.41839,-7.7570998 -6.8445001,-8.6696998 V 40.0874 c 0,0.59319 0.31941,0.9126 0.9126,0.9126 h 5.0193001 c 0.59319,0 0.9126,-0.31941 0.9126,-0.9126 v -9.126 c 0,-2.7378 1.6883098,-5.0193 3.8329198,-5.0193 2.14461,0 3.05721,1.27764 3.05721,3.6504 v 10.4949 c 0,0.59319 0.31941,0.9126 0.9126,0.9126 h 5.019301 c 0.59319,0 0.9126,-0.31941 0.9126,-0.9126 V 29.5925 c 0,-5.4756 -2.190241,-9.17163 -7.574581,-9.17163 z"
             id="text155"
             style="font-weight:bold;font-size:45.63px;font-family:Batangas;fill:#f6f3ec"
             transform="matrix(.38532309 -.76073047 .76073047 .38532309 261.4728 242.26194)"
             aria-label="h" />
        </g>
      </g>
      <g
         id="g158">
        <g
           clip-path="url(#clip_49)"
           id="g157">
          <path
             d="m 20.4734,6.5148997 q 0.6538,0 1.4944,0.11675 0.86395,0.0934 1.61115,0.3736 0.7472,0.25685 1.2609,0.7005001 0.5137,0.4203 0.5137,1.05075 0,0.3736 -0.21015,0.63045 -0.21015,0.25685 -0.67715,0.25685 -0.35025,0 -0.72385,-0.1401 -0.35025,-0.1401 -0.81725,-0.2802 -0.44365,-0.16345 -1.05075,-0.30355 -0.58375,-0.1401 -1.37765,-0.1401 -1.5411,0 -2.2883,0.5604 -0.72385,0.53705 -0.72385,1.4944002 0,0.6538 0.3269,1.09745 0.3269,0.44365 0.86395,0.77055 0.5604,0.30355 1.23755,0.5137 0.7005,0.21015 1.42435,0.39695 0.81725,0.21015 1.61115,0.5137 0.81725,0.30355 1.4477,0.7939 0.63045,0.49035 1.00405,1.23755 0.39695,0.7472 0.39695,1.89135 0,1.19085 -0.44365,2.1482 -0.44365,0.934 -1.2142,1.61115 -0.77055,0.6538 -1.84465,1.0274 -1.0741,0.35025 -2.335,0.35025 -0.7005,0 -1.6345,-0.1401 -0.934,-0.11675 -1.7746,-0.4203 -0.8406,-0.3269 -1.42435,-0.8406 -0.58375,-0.53705 -0.58375,-1.3076 0,-0.467 0.2335,-0.7472 0.25685,-0.2802 0.7472,-0.2802 0.39695,0 0.6538,0.16345 0.25685,0.1401 0.44365,0.3269 0.7005,0.6071 1.5878,0.81725 0.8873,0.21015 1.8213,0.21015 0.53705,0 1.1208,-0.07005 0.6071,-0.0934 1.09745,-0.35025 0.49035,-0.25685 0.81725,-0.72385 0.3269,-0.49035 0.3269,-1.3076 0,-0.7472 -0.30355,-1.2142 -0.2802,-0.49035 -0.77055,-0.81725 -0.49035,-0.3269 -1.1675,-0.53705 -0.6538,-0.21015 -1.42435,-0.4203 -0.86395,-0.2335 -1.70455,-0.5137 -0.8406,-0.2802 -1.4944,-0.7472 -0.6538,-0.49035 -1.0741,-1.2142 -0.39695,-0.7472 -0.39695,-1.89135 0,-1.14415 0.4203,-2.0081002 0.4203,-0.86395 1.14415,-1.4477 0.72385,-0.5837501 1.70455,-0.8873001 1.00405,-0.30355 2.1482,-0.30355 z M 28.54889,21.5523 q -0.0467,-0.86395 -0.0934,-1.9614 -0.02335,-1.1208 -0.02335,-2.45175 0,-1.65785 0.02335,-2.82535 0.02335,-1.19085 0.11675,-1.93805 0.11675,-0.77055 0.35025,-1.1208 0.2335,-0.3736 0.6538,-0.3736 0.39695,0 0.7005,0.2802 0.30355,0.2802 0.35025,1.2142 0.1401,2.45175 0.1401,4.74005 0,1.1675 -0.0467,2.1949 -0.0467,1.00405 -0.0934,2.21825 -0.02335,0.5604 -0.11675,0.86395 -0.07005,0.30355 -0.21015,0.467 -0.1401,0.16345 -0.3269,0.1868 -0.16345,0.0467 -0.39695,0.0467 -0.4203,0 -0.7005,-0.2802 -0.2802,-0.30355 -0.3269,-1.2609 z M 29.59964,6.6549997 q 0.53705,0 0.9807,0.4203 0.467,0.4203 0.467,1.0040501 0,0.5604 -0.467,0.9807 -0.467,0.39695 -1.05075,0.39695 -0.49035,0 -0.934,-0.39695 -0.4203,-0.4203 -0.4203,-1.0274 0,-0.5604001 0.4203,-0.9573501 0.44365,-0.4203 1.00405,-0.4203 z M 39.148386,13.0529 q -0.86395,0 -1.56445,0.2802 -0.67715,0.2802 -1.5411,0.8406 0,0.49035 0,1.4477 0,0.934 -0.02335,2.0548 -0.02335,1.09745 -0.0467,2.17155 -0.02335,1.0741 -0.0934,1.79795 -0.0467,0.467 -0.11675,0.7472 -0.0467,0.25685 -0.16345,0.39695 -0.0934,0.1401 -0.2802,0.1868 Q 35.155536,23 34.875336,23 q -0.2802,0 -0.467,-0.02335 -0.16345,-0.0467 -0.2802,-0.16345 -0.11675,-0.1401 -0.1868,-0.39695 -0.07005,-0.25685 -0.11675,-0.7005 -0.0467,-0.4203 -0.0934,-1.1208 -0.02335,-0.7005 -0.0467,-1.51775 -0.02335,-0.8406 -0.0467,-1.6812 0,-0.86395 0,-1.5878 0,-1.19085 0.02335,-1.93805 0.0467,-0.7472 0.1401,-1.33095 0.1401,-0.9807 0.3736,-1.23755 0.2335,-0.25685 0.63045,-0.25685 0.58375,0 0.86395,0.3269 0.30355,0.3269 0.3736,1.0741 0.86395,-0.7472 1.84465,-1.19085 1.00405,-0.44365 2.0548,-0.44365 1.00405,0 1.8213,0.467 0.8406,0.467 1.37765,1.51775 0.3269,0.63045 0.49035,1.401 0.16345,0.7472 0.2335,1.5878 0.02335,0.3736 0.0467,0.7472 0.02335,0.35025 0.02335,0.77055 0.02335,0.39695 0.02335,0.91065 0,0.5137 0,1.2142 0,0.7472 -0.02335,1.401 -0.02335,0.6538 -0.1401,1.14415 -0.0934,0.467 -0.35025,0.7472 -0.25685,0.25685 -0.7005,0.25685 -1.0741,0 -1.1208,-1.0274 0,-0.07005 0,-0.58375 0,-0.53705 -0.02335,-1.23755 0,-0.7005 -0.02335,-1.42435 0,-0.72385 -0.02335,-1.19085 -0.02335,-0.3736 -0.07005,-0.7939 -0.02335,-0.44365 -0.0934,-0.8873 -0.0467,-0.44365 -0.1401,-0.8406 -0.0934,-0.4203 -0.2335,-0.7472 -0.3269,-0.77055 -0.81725,-0.9807 -0.49035,-0.21015 -1.05075,-0.21015 z m 12.839052,-1.9614 q 0.67715,0 1.3543,0.11675 0.7005,0.11675 1.2609,0.3269 0.5604,0.21015 0.91065,0.5137 0.350251,0.30355 0.350251,0.7005 0,1.0274 -1.167501,1.0274 -0.2802,0 -0.53705,-0.07005 -0.2335,-0.0934 -0.5604,-0.16345 -0.3269,-0.0934 -0.81725,-0.16345 -0.49035,-0.0934 -1.2142,-0.0934 -1.5411,0 -2.3817,1.05075 -0.8406,1.05075 -0.8406,2.73195 0,1.84465 0.8406,2.96545 0.86395,1.1208 2.4284,1.1208 0.9807,0 1.5878,-0.16345 0.6071,-0.16345 0.9807,-0.3736 0.39695,-0.21015 0.63045,-0.3736 0.25685,-0.16345 0.5604,-0.16345 0.420301,0 0.653801,0.1868 0.25685,0.16345 0.25685,0.7005 0,0.5604 -0.44365,0.9807 -0.420301,0.4203 -1.074101,0.7005 -0.6538,0.2802 -1.42435,0.4203 -0.7472,0.1401 -1.37765,0.1401 -2.82535,0 -4.4365,-1.56445 -1.61115,-1.56445 -1.61115,-4.4365 0,-1.23755 0.3736,-2.335 0.39695,-1.1208 1.1675,-1.9614 0.77055,-0.8406 1.89135,-1.33095 1.14415,-0.49035 2.63855,-0.49035 z m 11.671918,7.6121 q -0.81725,0 -1.7279,-0.11675 -0.8873,-0.1401 -1.93805,-0.5604 0.21015,1.42435 1.1675,2.1482 0.9807,0.72385 2.802,0.72385 0.6538,0 1.1675,-0.07005 0.53705,-0.0934 0.934,-0.1868 0.39695,-0.11675 0.7005,-0.1868 0.30355,-0.0934 0.5604,-0.0934 0.3269,0 0.63045,0.21015 0.30355,0.1868 0.30355,0.6538 0,0.58375 -0.49035,0.95735 -0.467,0.3736 -1.1675,0.6071 -0.67715,0.21015 -1.4477,0.2802 -0.77055,0.0934 -1.3543,0.0934 -1.37765,0 -2.54515,-0.3736 -1.14415,-0.3736 -1.98475,-1.1208 -0.8406,-0.77055 -1.3076,-1.89135 -0.467,-1.1208 -0.467,-2.6152 0,-1.4477 0.44365,-2.5685 0.467,-1.1208 1.2609,-1.89135 0.7939,-0.77055 1.868,-1.1675 1.09745,-0.39695 2.35835,-0.39695 0.9807,0 1.89135,0.25685 0.934,0.25685 1.6345,0.77055 0.72385,0.5137 1.14415,1.3076 0.44365,0.77055 0.44365,1.8213 0,0.934 -0.35025,1.5878 -0.35025,0.6538 -1.00405,1.05075 -0.63045,0.39695 -1.5411,0.58375 -0.8873,0.1868 -1.98475,0.1868 z m -0.16345,-5.4172 q -0.63045,0 -1.2142,0.16345 -0.58375,0.1401 -1.0741,0.49035 -0.467,0.3269 -0.7939,0.8873 -0.3269,0.53705 -0.44365,1.3543 0.8873,0.39695 1.7279,0.5604 0.8406,0.1401 1.7746,0.1401 1.37765,0 2.03145,-0.3269 0.67715,-0.35025 0.67715,-1.23755 0,-0.81725 -0.63045,-1.42435 -0.6071,-0.6071 -2.0548,-0.6071 z"
             id="text156"
             style="font-size:23.35px;font-family:Sniglet;fill:#f6f3ec"
             transform="matrix(.84814199 .088543038 -.088543038 .84814199 32.562677 183.14157)"
             aria-label="Since" />
        </g>
      </g>
      <g
         id="g160">
        <g
           clip-path="url(#clip_50)"
           id="g159">
          <path
             d="m 6.2578001,8.8965998 q -0.8406,0 -1.401,0.1868 -0.5604,0.16345 -0.934,0.44365 -0.3736,0.2802 -0.6071,0.5837502 -0.21015,0.30355 -0.4203001,0.58375 -0.1868,0.2802 -0.4203,0.467 -0.21015,0.16345 -0.53705,0.16345 -0.5604,0 -0.7939,-0.2802 -0.21014998,-0.30355 -0.21014998,-0.7939 0,-1.0274002 0.77054998,-1.9147002 0.2335,-0.2802 0.63045,-0.58375 0.4203,-0.3269001 0.9807001,-0.5837501 0.58375,-0.25685 1.33095,-0.4203 0.77055,-0.1868 1.7279,-0.1868 2.54515,0 3.9461499,1.2375501 1.401,1.23755 1.401,3.4791502 0,0.44365 -0.0934,0.9807 -0.07005,0.53705 -0.30355,1.1208 -0.21015,0.58375 -0.6071,1.2142 -0.39695,0.63045 -1.0507498,1.28425 -0.5837501,0.58375 -1.2375501,1.0741 -0.6538,0.49035 -1.3543,0.9807 -0.7005,0.49035 -1.47105,1.05075 -0.7472,0.53705 -1.51775,1.23755 0.7472,0.39695 1.61115,0.5137 0.86395,0.11675 1.93805,0.11675 1.00405,0 1.6111501,-0.0467 0.6071,-0.0467 0.9806998,-0.11675 0.3736,-0.07005 0.58375,-0.11675 0.21015,-0.0467 0.44365,-0.0467 0.86395,0 0.86395,0.7939 0,0.7005 -0.58375,1.0741 -0.58375,0.3736 -1.401,0.5604 -0.8172498,0.16345 -1.6811999,0.1868 -0.86395,0.0467 -1.42435,0.0467 -0.30355,0 -0.86395,-0.0467 -0.53705,-0.02335 -1.1675,-0.11675 -0.63045,-0.0934 -1.28425,-0.25685 -0.63045,-0.1868 -1.1675001,-0.467 -0.5137,-0.30355 -0.8406,-0.72385 -0.3269,-0.44365 -0.3269,-1.05075 0,-0.81725 0.58375,-1.5411 0.6071,-0.7472 1.4944001,-1.4477 0.8873,-0.72385 1.9147,-1.42435 1.0274,-0.72385 1.9147,-1.47105 0.8873,-0.77055 1.47105,-1.5878 0.6071001,-0.81725 0.6071001,-1.7746 0,-1.19085 -0.8172501,-1.7746002 -0.7939,-0.6071 -2.2883,-0.6071 z M 14.216623,15.0143 q 0,-1.42435 0.25685,-2.91875 0.2802,-1.4944 0.9807,-2.7086002 0.7005,-1.2142 1.89135,-1.9847501 1.2142,-0.77055 3.0822,-0.77055 1.47105,0 2.49845,0.44365 1.05075,0.44365 1.7279,1.1675001 0.67715,0.72385 1.05075,1.65785 0.373601,0.9106502 0.560401,1.9147002 0.1868,1.00405 0.21015,1.98475 0.0467,0.9807 0.0467,1.79795 0,1.6345 -0.39695,3.01215 -0.373601,1.3543 -1.167501,2.335 -0.77055,0.9807 -1.9614,1.5411 -1.1675,0.53705 -2.7553,0.53705 -1.65785,0 -2.82535,-0.63045 -1.14415,-0.6538 -1.868,-1.7279 -0.7005,-1.09745 -1.0274,-2.54515 -0.30355,-1.47105 -0.30355,-3.10555 z m 2.335,-0.0467 q 0,1.14415 0.1868,2.1949 0.21015,1.0274 0.6538,1.8213 0.44365,0.77055 1.14415,1.23755 0.72385,0.467 1.75125,0.467 0.9807,0 1.70455,-0.39695 0.7472,-0.39695 1.23755,-1.09745 0.49035,-0.72385 0.72385,-1.70455 0.2335,-0.9807 0.2335,-2.12485 0,-0.86395 -0.07005,-1.9614 -0.07005,-1.1208 -0.44365,-2.1015 -0.35025,-0.9807 -1.1208,-1.6578502 -0.77055,-0.67715 -2.1482,-0.67715 -1.1675,0 -1.9147,0.5604 -0.72385,0.5604002 -1.1675,1.4477002 -0.44365,0.86395 -0.6071,1.93805 -0.16345,1.05075 -0.16345,2.0548 z M 33.710116,8.8965998 q -0.8406,0 -1.401,0.1868 -0.5604,0.16345 -0.934,0.44365 -0.3736,0.2802 -0.6071,0.5837502 -0.21015,0.30355 -0.4203,0.58375 -0.1868,0.2802 -0.4203,0.467 -0.21015,0.16345 -0.53705,0.16345 -0.5604,0 -0.7939,-0.2802 -0.21015,-0.30355 -0.21015,-0.7939 0,-1.0274002 0.77055,-1.9147002 0.2335,-0.2802 0.63045,-0.58375 0.4203,-0.3269001 0.9807,-0.5837501 0.58375,-0.25685 1.33095,-0.4203 0.77055,-0.1868 1.7279,-0.1868 2.54515,0 3.94615,1.2375501 1.401,1.23755 1.401,3.4791502 0,0.44365 -0.0934,0.9807 -0.07005,0.53705 -0.30355,1.1208 -0.21015,0.58375 -0.6071,1.2142 -0.39695,0.63045 -1.05075,1.28425 -0.58375,0.58375 -1.23755,1.0741 -0.6538,0.49035 -1.3543,0.9807 -0.7005,0.49035 -1.47105,1.05075 -0.7472,0.53705 -1.51775,1.23755 0.7472,0.39695 1.61115,0.5137 0.86395,0.11675 1.93805,0.11675 1.00405,0 1.61115,-0.0467 0.6071,-0.0467 0.9807,-0.11675 0.3736,-0.07005 0.58375,-0.11675 0.21015,-0.0467 0.44365,-0.0467 0.86395,0 0.86395,0.7939 0,0.7005 -0.58375,1.0741 -0.58375,0.3736 -1.401,0.5604 -0.81725,0.16345 -1.6812,0.1868 -0.86395,0.0467 -1.42435,0.0467 -0.30355,0 -0.86395,-0.0467 -0.53705,-0.02335 -1.1675,-0.11675 -0.63045,-0.0934 -1.28425,-0.25685 -0.63045,-0.1868 -1.1675,-0.467 -0.5137,-0.30355 -0.8406,-0.72385 -0.3269,-0.44365 -0.3269,-1.05075 0,-0.81725 0.58375,-1.5411 0.6071,-0.7472 1.4944,-1.4477 0.8873,-0.72385 1.9147,-1.42435 1.0274,-0.72385 1.9147,-1.47105 0.8873,-0.77055 1.47105,-1.5878 0.6071,-0.81725 0.6071,-1.7746 0,-1.19085 -0.81725,-1.7746002 -0.7939,-0.6071 -2.2883,-0.6071 z m 9.966924,0.0934 q -0.7472,0 -1.09745,-0.3736 -0.35025,-0.39695 -0.35025,-0.7939 0,-0.4203001 0.39695,-0.6771501 0.39695,-0.2802 1.05075,-0.4203 0.6538,-0.16345 1.4944,-0.21015 0.8406,-0.07005 1.70455,-0.07005 0.72385,0 1.61115,0.07005 0.8873,0.0467 1.65785,0.2802 0.77055,0.21015 1.28425,0.6538 0.5137,0.4203001 0.5137,1.1675001 0,0.58375 -0.44365,1.2142 -0.44365,0.6304502 -1.0274,1.1908502 -0.58375,0.5604 -1.1675,1.00405 -0.5604,0.4203 -0.81725,0.6071 2.4751,0 3.5959,1.23755 1.1208,1.23755 1.1208,3.5492 0,1.4477 -0.53705,2.5218 -0.5137,1.0741 -1.401,1.79795 -0.86395,0.7005 -2.0081,1.05075 -1.1208,0.35025 -2.31165,0.35025 -0.9807,0 -1.93805,-0.16345 -0.934,-0.16345 -1.6812,-0.5604 -0.7472,-0.4203 -1.2142,-1.09745 -0.44365,-0.7005 -0.44365,-1.7279 0,-1.0741 1.1675,-1.0741 0.35025,0 0.53705,0.1868 0.21015,0.16345 0.35025,0.4203 0.16345,0.2335 0.3269,0.53705 0.16345,0.30355 0.467,0.5604 0.3269,0.2335 0.8406,0.4203 0.53705,0.16345 1.401,0.16345 0.67715,0 1.33095,-0.1401 0.6538,-0.16345 1.1675,-0.5137 0.5137,-0.35025 0.81725,-0.934 0.3269,-0.6071 0.3269,-1.4944 0,-1.7279 -0.72385,-2.45175 -0.7005,-0.72385 -1.98475,-0.72385 -0.3269,0 -0.6071,0.11675 -0.2802,0.0934 -0.5604,0.2335 -0.2802,0.11675 -0.58375,0.2335 -0.30355,0.0934 -0.67715,0.0934 -0.3736,0 -0.6538,-0.3269 -0.2802,-0.35025 -0.2802,-0.8873 0,-0.3736 0.35025,-0.86395 0.3736,-0.49035 1.00405,-1.1208 0.6538,-0.63045 1.56445,-1.37765 0.91065,-0.7705502 2.03145,-1.6578502 -0.2335,0 -0.5604,0 -0.30355,0 -0.63045,0.02335 -0.30355,0 -0.6071,0 -0.30355,0 -0.5137,0 -0.8873,0 -1.75125,0 -0.8406,-0.02335 -1.5411,-0.02335 z"
             id="text158"
             style="font-size:23.35px;font-family:Sniglet;fill:#f6f3ec"
             transform="matrix(.84854927 -.08455094 .08455094 .84854927 285.18266 189.13654)"
             aria-label="2023" />
        </g>
      </g>
    </g>
    <path
       transform="matrix(1,0,0,-1,0,383.03999)"
       d="M137.47275 116.492549H237.52724V279.07823H137.47275Z"
       fill-opacity="0"
       id="path161" />
    <path
       transform="matrix(1,0,0,-1,0,383.03999)"
       d="M163.3547 149.2516H205.72142V181.48163H163.3547Z"
       fill-opacity="0"
       id="path162" />
    <path
       transform="matrix(1,0,0,-1,0,383.03999)"
       d="M112.64697 143.94469H365.40779V208.3409H112.64697Z"
       fill-opacity="0"
       id="path163" />
    <path
       transform="matrix(1,0,0,-1,0,383.03999)"
       d="M11.137954 145.70006H263.75904V206.58551H11.137954Z"
       fill-opacity="0"
       id="path164" />
  </g>
</svg>
