<svg xmlns="http://www.w3.org/2000/svg" xml:space="preserve" width="161.84" height="271.63" viewBox="0 0 42.82 71.87"><g transform="translate(-30.32 -77.54)"><ellipse cx="52.17" cy="103.82" rx="18.27" ry="17.35" style="fill:#bdffff;fill-opacity:1;stroke:#000;stroke-width:0;paint-order:stroke fill markers"/><path d="M51.12 77.54h2.23v35.22h-2.23z" style="fill:#5ee5e6;fill-opacity:1;stroke:#000;stroke-width:0;paint-order:stroke fill markers"/><path d="M52.9 94.45c-3.28 0-6.2 1.9-7.28 4.7a5.8 5.8 0 0 0-7.82 5.43H67a5.8 5.8 0 0 0-6.88-5.57c-1.11-2.74-4-4.56-7.22-4.56z" style="fill:#e5ddd9;fill-opacity:.79805458;stroke:#000;stroke-width:0;paint-order:stroke fill markers"/><path d="m15.9 99.75 2.9 36.31a5.4 5.4 42.81 0 0 5.35 4.97l30.69.1a6.2 6.2 137.26 0 0 6.18-5.71l2.72-35.8z" style="fill:#ffd088;fill-opacity:1;stroke:#000;stroke-width:0;paint-order:stroke fill markers" transform="matrix(.7445 0 0 1 22.33 8.28)"/><rect width="42.82" height="6.71" x="30.32" y="104.43" rx="3.04" ry="5.95" style="fill:#efa11a;fill-opacity:1;stroke:#000;stroke-width:0;paint-order:stroke fill markers"/><rect width="25.23" height="16.16" x="39.03" y="121.3" rx="2.76" ry="5.42" style="fill:#ef1c1a;fill-opacity:1;stroke:#000;stroke-width:0;paint-order:stroke fill markers"/><path d="M22.21 85.95c-.09.02-2.38-3.8-2.46-3.83s-4.3 1.44-4.34 1.37c-.06-.08 2.87-3.44 2.88-3.53s-2.7-3.63-2.65-3.7 4.16 1.67 4.25 1.65 2.62-3.7 2.7-3.66c.1.03-.3 4.47-.25 4.54s4.32 1.36 4.31 1.45c0 .09-4.34 1.08-4.4 1.16s.05 4.52-.04 4.55z" style="fill:#fbff0d;fill-opacity:1;stroke:#000;stroke-width:0;paint-order:stroke fill markers" transform="matrix(.86908 -.29317 .30617 .83218 9.27 68.84)"/></g></svg>